G04 EAGLE Gerber RS-274X export*
G75*
%MOMM*%
%FSLAX34Y34*%
%LPD*%
%INBottom Copper*%
%IPPOS*%
%AMOC8*
5,1,8,0,0,1.08239X$1,22.5*%
G01*
%ADD10C,1.676400*%
%ADD11R,1.168400X1.600200*%
%ADD12C,1.778000*%
%ADD13R,2.500000X2.500000*%
%ADD14C,1.308000*%
%ADD15C,6.350000*%
%ADD16R,3.200000X3.200000*%
%ADD17C,0.889000*%
%ADD18C,0.406400*%
%ADD19C,0.304800*%
%ADD20C,0.906400*%
%ADD21C,0.800100*%
%ADD22C,0.756400*%
%ADD23C,0.254000*%
%ADD24C,0.203200*%

G36*
X422935Y2552D02*
X422935Y2552D01*
X423035Y2554D01*
X423107Y2572D01*
X423181Y2581D01*
X423276Y2614D01*
X423373Y2639D01*
X423439Y2673D01*
X423509Y2698D01*
X423594Y2753D01*
X423683Y2799D01*
X423739Y2847D01*
X423802Y2887D01*
X423872Y2959D01*
X423948Y3024D01*
X423992Y3084D01*
X424044Y3138D01*
X424096Y3224D01*
X424155Y3305D01*
X424185Y3373D01*
X424223Y3437D01*
X424254Y3532D01*
X424293Y3625D01*
X424307Y3698D01*
X424329Y3769D01*
X424337Y3869D01*
X424355Y3968D01*
X424351Y4042D01*
X424357Y4116D01*
X424342Y4215D01*
X424337Y4316D01*
X424316Y4387D01*
X424305Y4461D01*
X424268Y4554D01*
X424240Y4651D01*
X424204Y4716D01*
X424177Y4785D01*
X424119Y4867D01*
X424070Y4955D01*
X424005Y5031D01*
X423978Y5071D01*
X423951Y5095D01*
X423912Y5141D01*
X423469Y5584D01*
X422458Y6975D01*
X421678Y8507D01*
X421146Y10142D01*
X421137Y10201D01*
X430824Y10201D01*
X430850Y10204D01*
X430876Y10202D01*
X431023Y10224D01*
X431170Y10241D01*
X431195Y10249D01*
X431221Y10253D01*
X431358Y10308D01*
X431498Y10358D01*
X431520Y10372D01*
X431545Y10382D01*
X431666Y10467D01*
X431791Y10547D01*
X431803Y10560D01*
X431850Y10515D01*
X431873Y10501D01*
X431892Y10484D01*
X432022Y10412D01*
X432149Y10336D01*
X432174Y10328D01*
X432197Y10315D01*
X432340Y10275D01*
X432481Y10230D01*
X432507Y10227D01*
X432532Y10220D01*
X432776Y10201D01*
X442463Y10201D01*
X442454Y10142D01*
X441922Y8507D01*
X441142Y6975D01*
X440131Y5584D01*
X439688Y5141D01*
X439626Y5063D01*
X439556Y4990D01*
X439518Y4926D01*
X439472Y4868D01*
X439429Y4777D01*
X439377Y4691D01*
X439354Y4620D01*
X439323Y4553D01*
X439301Y4455D01*
X439271Y4359D01*
X439265Y4285D01*
X439249Y4212D01*
X439251Y4112D01*
X439243Y4012D01*
X439254Y3938D01*
X439255Y3864D01*
X439280Y3766D01*
X439295Y3667D01*
X439322Y3598D01*
X439340Y3526D01*
X439386Y3437D01*
X439423Y3343D01*
X439466Y3282D01*
X439500Y3216D01*
X439565Y3140D01*
X439622Y3057D01*
X439677Y3007D01*
X439726Y2951D01*
X439806Y2891D01*
X439881Y2824D01*
X439946Y2788D01*
X440006Y2743D01*
X440098Y2704D01*
X440186Y2655D01*
X440258Y2635D01*
X440326Y2605D01*
X440425Y2588D01*
X440521Y2560D01*
X440621Y2552D01*
X440669Y2544D01*
X440705Y2546D01*
X440765Y2541D01*
X466854Y2541D01*
X466880Y2544D01*
X466906Y2542D01*
X467053Y2564D01*
X467200Y2581D01*
X467225Y2589D01*
X467251Y2593D01*
X467389Y2648D01*
X467528Y2698D01*
X467550Y2712D01*
X467575Y2722D01*
X467696Y2807D01*
X467821Y2887D01*
X467839Y2906D01*
X467861Y2921D01*
X467960Y3031D01*
X468063Y3138D01*
X468077Y3160D01*
X468094Y3180D01*
X468166Y3310D01*
X468242Y3437D01*
X468250Y3462D01*
X468263Y3485D01*
X468303Y3628D01*
X468348Y3769D01*
X468350Y3795D01*
X468358Y3820D01*
X468377Y4064D01*
X468377Y27298D01*
X469568Y28489D01*
X480964Y28489D01*
X481064Y28500D01*
X481164Y28502D01*
X481236Y28520D01*
X481310Y28529D01*
X481405Y28562D01*
X481502Y28587D01*
X481568Y28621D01*
X481638Y28646D01*
X481723Y28701D01*
X481812Y28747D01*
X481868Y28795D01*
X481931Y28835D01*
X482001Y28907D01*
X482077Y28972D01*
X482121Y29032D01*
X482173Y29086D01*
X482225Y29172D01*
X482284Y29253D01*
X482314Y29321D01*
X482352Y29385D01*
X482383Y29481D01*
X482422Y29573D01*
X482436Y29646D01*
X482458Y29717D01*
X482466Y29817D01*
X482484Y29916D01*
X482480Y29990D01*
X482486Y30064D01*
X482471Y30164D01*
X482466Y30264D01*
X482446Y30335D01*
X482435Y30409D01*
X482397Y30502D01*
X482370Y30599D01*
X482333Y30664D01*
X482306Y30733D01*
X482249Y30815D01*
X482199Y30903D01*
X482134Y30979D01*
X482107Y31019D01*
X482080Y31043D01*
X482041Y31089D01*
X479414Y33716D01*
X479315Y33795D01*
X479221Y33879D01*
X479179Y33903D01*
X479141Y33933D01*
X479027Y33987D01*
X478916Y34048D01*
X478869Y34061D01*
X478826Y34082D01*
X478702Y34108D01*
X478581Y34143D01*
X478520Y34148D01*
X478485Y34155D01*
X478437Y34154D01*
X478337Y34162D01*
X476231Y34162D01*
X473851Y35148D01*
X472028Y36971D01*
X471042Y39351D01*
X471042Y41929D01*
X472028Y44309D01*
X473851Y46132D01*
X476231Y47118D01*
X478809Y47118D01*
X481189Y46132D01*
X483012Y44309D01*
X483998Y41929D01*
X483998Y39823D01*
X484012Y39698D01*
X484019Y39571D01*
X484032Y39525D01*
X484038Y39477D01*
X484080Y39358D01*
X484115Y39237D01*
X484139Y39194D01*
X484155Y39149D01*
X484224Y39043D01*
X484285Y38932D01*
X484325Y38886D01*
X484344Y38856D01*
X484379Y38823D01*
X484444Y38746D01*
X489967Y33223D01*
X489967Y30012D01*
X489970Y29986D01*
X489968Y29960D01*
X489990Y29813D01*
X490007Y29666D01*
X490015Y29641D01*
X490019Y29615D01*
X490074Y29477D01*
X490124Y29338D01*
X490138Y29316D01*
X490148Y29291D01*
X490233Y29170D01*
X490313Y29045D01*
X490332Y29027D01*
X490347Y29005D01*
X490457Y28906D01*
X490564Y28803D01*
X490586Y28789D01*
X490606Y28772D01*
X490736Y28700D01*
X490863Y28624D01*
X490888Y28616D01*
X490911Y28603D01*
X491054Y28563D01*
X491195Y28518D01*
X491221Y28516D01*
X491246Y28508D01*
X491490Y28489D01*
X503252Y28489D01*
X504443Y27298D01*
X504443Y4064D01*
X504446Y4038D01*
X504444Y4012D01*
X504466Y3865D01*
X504483Y3718D01*
X504491Y3693D01*
X504495Y3667D01*
X504550Y3529D01*
X504600Y3390D01*
X504614Y3368D01*
X504624Y3343D01*
X504709Y3222D01*
X504789Y3097D01*
X504808Y3079D01*
X504823Y3057D01*
X504933Y2958D01*
X505040Y2855D01*
X505062Y2841D01*
X505082Y2824D01*
X505212Y2752D01*
X505339Y2676D01*
X505364Y2668D01*
X505387Y2655D01*
X505530Y2615D01*
X505671Y2570D01*
X505697Y2568D01*
X505722Y2560D01*
X505966Y2541D01*
X521858Y2541D01*
X521908Y2546D01*
X522026Y2550D01*
X524445Y2819D01*
X524501Y2832D01*
X524558Y2836D01*
X524768Y2893D01*
X524785Y2897D01*
X524788Y2899D01*
X524794Y2900D01*
X529394Y4561D01*
X529499Y4613D01*
X529607Y4657D01*
X529669Y4697D01*
X529706Y4716D01*
X529740Y4744D01*
X529811Y4791D01*
X533673Y7791D01*
X533757Y7873D01*
X533846Y7948D01*
X533893Y8006D01*
X533922Y8035D01*
X533946Y8073D01*
X533999Y8139D01*
X536745Y12186D01*
X536799Y12290D01*
X536861Y12389D01*
X536887Y12458D01*
X536906Y12495D01*
X536917Y12538D01*
X536947Y12618D01*
X538308Y17315D01*
X538317Y17371D01*
X538335Y17426D01*
X538363Y17641D01*
X538366Y17659D01*
X538366Y17663D01*
X538366Y17668D01*
X538475Y20024D01*
X538474Y20046D01*
X538477Y20080D01*
X538479Y20259D01*
X538476Y20284D01*
X538478Y20323D01*
X538438Y21554D01*
X538446Y21594D01*
X538472Y21685D01*
X538482Y21794D01*
X538491Y21843D01*
X538489Y21876D01*
X538494Y21929D01*
X539734Y155875D01*
X539723Y155983D01*
X539721Y156092D01*
X539705Y156153D01*
X539749Y157514D01*
X539748Y157528D01*
X539750Y157549D01*
X539750Y157617D01*
X539747Y157648D01*
X539749Y157701D01*
X539636Y160132D01*
X539627Y160188D01*
X539627Y160245D01*
X539583Y160458D01*
X539580Y160476D01*
X539579Y160479D01*
X539578Y160485D01*
X538217Y165182D01*
X538172Y165290D01*
X538135Y165401D01*
X538098Y165466D01*
X538083Y165504D01*
X538057Y165540D01*
X538015Y165614D01*
X535269Y169661D01*
X535193Y169750D01*
X535124Y169844D01*
X535069Y169894D01*
X535042Y169925D01*
X535006Y169951D01*
X534943Y170009D01*
X531081Y173009D01*
X530982Y173070D01*
X530887Y173138D01*
X530819Y173169D01*
X530784Y173190D01*
X530741Y173204D01*
X530664Y173239D01*
X526064Y174900D01*
X526008Y174913D01*
X525955Y174934D01*
X525743Y174976D01*
X525725Y174980D01*
X525721Y174980D01*
X525715Y174981D01*
X523296Y175250D01*
X523247Y175250D01*
X523128Y175259D01*
X505966Y175259D01*
X505940Y175256D01*
X505914Y175258D01*
X505767Y175236D01*
X505620Y175219D01*
X505595Y175211D01*
X505569Y175207D01*
X505431Y175152D01*
X505292Y175102D01*
X505270Y175088D01*
X505245Y175078D01*
X505124Y174993D01*
X504999Y174913D01*
X504981Y174894D01*
X504959Y174879D01*
X504860Y174769D01*
X504757Y174662D01*
X504743Y174640D01*
X504726Y174620D01*
X504654Y174490D01*
X504578Y174363D01*
X504570Y174338D01*
X504557Y174315D01*
X504517Y174172D01*
X504472Y174031D01*
X504470Y174005D01*
X504462Y173980D01*
X504443Y173736D01*
X504443Y158122D01*
X503252Y156931D01*
X469568Y156931D01*
X468377Y158122D01*
X468377Y173736D01*
X468374Y173762D01*
X468376Y173788D01*
X468354Y173935D01*
X468337Y174082D01*
X468329Y174107D01*
X468325Y174133D01*
X468270Y174270D01*
X468220Y174410D01*
X468206Y174432D01*
X468196Y174457D01*
X468111Y174578D01*
X468031Y174703D01*
X468012Y174721D01*
X467997Y174743D01*
X467887Y174842D01*
X467780Y174945D01*
X467758Y174959D01*
X467738Y174976D01*
X467608Y175048D01*
X467481Y175124D01*
X467456Y175132D01*
X467433Y175145D01*
X467290Y175185D01*
X467149Y175230D01*
X467123Y175232D01*
X467098Y175240D01*
X466854Y175259D01*
X414665Y175259D01*
X414615Y175254D01*
X414564Y175256D01*
X414442Y175234D01*
X414318Y175219D01*
X414271Y175202D01*
X414221Y175193D01*
X414107Y175144D01*
X413990Y175102D01*
X413948Y175075D01*
X413902Y175055D01*
X413802Y174980D01*
X413697Y174913D01*
X413662Y174877D01*
X413622Y174847D01*
X413542Y174752D01*
X413455Y174662D01*
X413429Y174619D01*
X413397Y174581D01*
X413340Y174470D01*
X413276Y174363D01*
X413261Y174315D01*
X413238Y174270D01*
X413208Y174150D01*
X413170Y174031D01*
X413166Y173981D01*
X413154Y173932D01*
X413152Y173808D01*
X413142Y173684D01*
X413150Y173634D01*
X413149Y173584D01*
X413176Y173462D01*
X413194Y173339D01*
X413213Y173292D01*
X413223Y173243D01*
X413277Y173131D01*
X413323Y173015D01*
X413351Y172974D01*
X413373Y172928D01*
X413451Y172831D01*
X413522Y172729D01*
X413559Y172695D01*
X413590Y172656D01*
X413688Y172579D01*
X413780Y172496D01*
X413824Y172471D01*
X413864Y172440D01*
X414082Y172329D01*
X419150Y170229D01*
X422959Y166420D01*
X425021Y161443D01*
X425021Y156057D01*
X422959Y151080D01*
X419150Y147271D01*
X414173Y145209D01*
X408787Y145209D01*
X403810Y147271D01*
X400001Y151080D01*
X397939Y156057D01*
X397939Y161443D01*
X400001Y166420D01*
X403810Y170229D01*
X408878Y172329D01*
X408922Y172353D01*
X408970Y172370D01*
X409074Y172438D01*
X409183Y172498D01*
X409220Y172532D01*
X409263Y172559D01*
X409349Y172649D01*
X409441Y172732D01*
X409470Y172774D01*
X409505Y172810D01*
X409569Y172917D01*
X409639Y173019D01*
X409658Y173066D01*
X409684Y173109D01*
X409721Y173227D01*
X409767Y173343D01*
X409774Y173393D01*
X409790Y173441D01*
X409800Y173565D01*
X409818Y173688D01*
X409814Y173738D01*
X409818Y173788D01*
X409799Y173911D01*
X409789Y174035D01*
X409774Y174083D01*
X409766Y174133D01*
X409720Y174248D01*
X409682Y174367D01*
X409656Y174410D01*
X409637Y174457D01*
X409566Y174559D01*
X409502Y174665D01*
X409467Y174702D01*
X409438Y174743D01*
X409346Y174826D01*
X409259Y174915D01*
X409217Y174943D01*
X409180Y174976D01*
X409071Y175036D01*
X408966Y175104D01*
X408919Y175121D01*
X408875Y175145D01*
X408755Y175179D01*
X408638Y175220D01*
X408588Y175226D01*
X408539Y175240D01*
X408295Y175259D01*
X389247Y175259D01*
X389147Y175248D01*
X389047Y175246D01*
X388974Y175228D01*
X388901Y175219D01*
X388806Y175186D01*
X388709Y175161D01*
X388643Y175127D01*
X388573Y175102D01*
X388488Y175047D01*
X388399Y175001D01*
X388342Y174953D01*
X388280Y174913D01*
X388210Y174841D01*
X388133Y174776D01*
X388089Y174716D01*
X388038Y174662D01*
X387986Y174576D01*
X387926Y174495D01*
X387897Y174427D01*
X387859Y174363D01*
X387828Y174267D01*
X387788Y174175D01*
X387775Y174102D01*
X387752Y174031D01*
X387744Y173931D01*
X387727Y173832D01*
X387730Y173758D01*
X387724Y173684D01*
X387739Y173584D01*
X387745Y173484D01*
X387765Y173413D01*
X387776Y173339D01*
X387813Y173246D01*
X387841Y173149D01*
X387877Y173084D01*
X387905Y173015D01*
X387962Y172933D01*
X388011Y172845D01*
X388076Y172769D01*
X388104Y172729D01*
X388130Y172705D01*
X388170Y172659D01*
X389829Y170999D01*
X391415Y167172D01*
X391415Y163028D01*
X389829Y159200D01*
X386900Y156271D01*
X385243Y155585D01*
X385176Y155548D01*
X385105Y155519D01*
X385025Y155463D01*
X384938Y155415D01*
X384882Y155364D01*
X384819Y155320D01*
X384753Y155247D01*
X384680Y155181D01*
X384637Y155118D01*
X384586Y155062D01*
X384538Y154976D01*
X384482Y154895D01*
X384454Y154823D01*
X384417Y154757D01*
X384390Y154662D01*
X384354Y154570D01*
X384343Y154495D01*
X384322Y154421D01*
X384310Y154272D01*
X384303Y154226D01*
X384305Y154206D01*
X384303Y154177D01*
X384303Y144411D01*
X384314Y144311D01*
X384316Y144211D01*
X384334Y144139D01*
X384343Y144065D01*
X384376Y143970D01*
X384401Y143873D01*
X384435Y143807D01*
X384460Y143737D01*
X384515Y143652D01*
X384561Y143563D01*
X384609Y143506D01*
X384649Y143444D01*
X384721Y143374D01*
X384786Y143298D01*
X384846Y143254D01*
X384900Y143202D01*
X384986Y143150D01*
X385067Y143091D01*
X385135Y143061D01*
X385199Y143023D01*
X385295Y142992D01*
X385387Y142953D01*
X385460Y142939D01*
X385531Y142917D01*
X385631Y142909D01*
X385730Y142891D01*
X385804Y142895D01*
X385878Y142889D01*
X385978Y142904D01*
X386078Y142909D01*
X386149Y142929D01*
X386223Y142940D01*
X386316Y142977D01*
X386413Y143005D01*
X386478Y143042D01*
X386547Y143069D01*
X386629Y143126D01*
X386717Y143175D01*
X386793Y143241D01*
X386833Y143268D01*
X386857Y143295D01*
X386903Y143334D01*
X388761Y145192D01*
X391141Y146178D01*
X393719Y146178D01*
X396099Y145192D01*
X397922Y143369D01*
X398908Y140989D01*
X398908Y139602D01*
X398909Y139589D01*
X398909Y139581D01*
X398915Y139539D01*
X398922Y139476D01*
X398929Y139350D01*
X398942Y139303D01*
X398948Y139255D01*
X398990Y139136D01*
X399025Y139015D01*
X399049Y138973D01*
X399065Y138927D01*
X399134Y138821D01*
X399195Y138711D01*
X399235Y138665D01*
X399254Y138635D01*
X399289Y138601D01*
X399354Y138525D01*
X418085Y119794D01*
X418085Y82136D01*
X378874Y42925D01*
X313276Y42925D01*
X293275Y62926D01*
X293176Y63005D01*
X293083Y63089D01*
X293040Y63113D01*
X293002Y63143D01*
X292888Y63197D01*
X292778Y63258D01*
X292731Y63271D01*
X292687Y63292D01*
X292564Y63318D01*
X292442Y63353D01*
X292381Y63358D01*
X292347Y63365D01*
X292299Y63364D01*
X292198Y63372D01*
X290811Y63372D01*
X288431Y64358D01*
X287450Y65339D01*
X287351Y65418D01*
X287257Y65502D01*
X287215Y65526D01*
X287177Y65556D01*
X287063Y65610D01*
X286952Y65671D01*
X286906Y65684D01*
X286862Y65705D01*
X286738Y65731D01*
X286617Y65766D01*
X286556Y65771D01*
X286521Y65778D01*
X286473Y65777D01*
X286373Y65785D01*
X268826Y65785D01*
X256572Y78039D01*
X256473Y78118D01*
X256380Y78202D01*
X256337Y78226D01*
X256299Y78256D01*
X256185Y78310D01*
X256075Y78371D01*
X256028Y78384D01*
X255984Y78405D01*
X255861Y78431D01*
X255739Y78466D01*
X255678Y78471D01*
X255644Y78478D01*
X255596Y78477D01*
X255495Y78485D01*
X191770Y78485D01*
X191744Y78482D01*
X191718Y78484D01*
X191571Y78462D01*
X191424Y78445D01*
X191399Y78437D01*
X191373Y78433D01*
X191235Y78378D01*
X191096Y78328D01*
X191074Y78314D01*
X191049Y78304D01*
X190928Y78219D01*
X190803Y78139D01*
X190785Y78120D01*
X190763Y78105D01*
X190664Y77995D01*
X190561Y77888D01*
X190547Y77866D01*
X190530Y77846D01*
X190458Y77716D01*
X190382Y77589D01*
X190374Y77564D01*
X190361Y77541D01*
X190321Y77398D01*
X190276Y77257D01*
X190274Y77231D01*
X190266Y77206D01*
X190247Y76962D01*
X190247Y65837D01*
X176795Y52385D01*
X176733Y52307D01*
X176663Y52234D01*
X176625Y52170D01*
X176578Y52112D01*
X176536Y52021D01*
X176484Y51935D01*
X176461Y51864D01*
X176430Y51797D01*
X176408Y51699D01*
X176378Y51603D01*
X176372Y51529D01*
X176356Y51456D01*
X176358Y51356D01*
X176350Y51256D01*
X176361Y51182D01*
X176362Y51108D01*
X176387Y51011D01*
X176401Y50911D01*
X176429Y50842D01*
X176447Y50770D01*
X176493Y50680D01*
X176530Y50587D01*
X176573Y50526D01*
X176607Y50460D01*
X176672Y50383D01*
X176729Y50301D01*
X176784Y50251D01*
X176833Y50195D01*
X176913Y50135D01*
X176988Y50068D01*
X177053Y50032D01*
X177113Y49987D01*
X177205Y49948D01*
X177293Y49899D01*
X177365Y49879D01*
X177433Y49849D01*
X177532Y49832D01*
X177628Y49804D01*
X177728Y49796D01*
X177776Y49788D01*
X177812Y49790D01*
X177872Y49785D01*
X227555Y49785D01*
X227681Y49799D01*
X227807Y49806D01*
X227854Y49819D01*
X227902Y49825D01*
X228021Y49867D01*
X228142Y49902D01*
X228184Y49926D01*
X228230Y49942D01*
X228336Y50011D01*
X228446Y50072D01*
X228492Y50112D01*
X228522Y50131D01*
X228556Y50166D01*
X228632Y50231D01*
X234376Y55975D01*
X234455Y56074D01*
X234539Y56167D01*
X234563Y56210D01*
X234593Y56248D01*
X234647Y56362D01*
X234708Y56472D01*
X234721Y56519D01*
X234742Y56563D01*
X234768Y56686D01*
X234803Y56808D01*
X234808Y56869D01*
X234815Y56903D01*
X234814Y56951D01*
X234822Y57052D01*
X234822Y58439D01*
X235808Y60819D01*
X237631Y62642D01*
X240011Y63628D01*
X242589Y63628D01*
X244969Y62642D01*
X246792Y60819D01*
X247778Y58439D01*
X247778Y55861D01*
X246792Y53481D01*
X244969Y51658D01*
X242589Y50672D01*
X241202Y50672D01*
X241076Y50658D01*
X240950Y50651D01*
X240903Y50638D01*
X240855Y50632D01*
X240736Y50590D01*
X240615Y50555D01*
X240573Y50531D01*
X240527Y50515D01*
X240421Y50446D01*
X240311Y50385D01*
X240265Y50345D01*
X240235Y50326D01*
X240201Y50291D01*
X240125Y50226D01*
X234381Y44482D01*
X232349Y42451D01*
X232287Y42372D01*
X232217Y42300D01*
X232179Y42236D01*
X232132Y42178D01*
X232090Y42087D01*
X232038Y42001D01*
X232015Y41930D01*
X231984Y41863D01*
X231962Y41764D01*
X231932Y41669D01*
X231926Y41595D01*
X231910Y41522D01*
X231912Y41421D01*
X231904Y41321D01*
X231915Y41248D01*
X231916Y41173D01*
X231941Y41076D01*
X231955Y40977D01*
X231983Y40908D01*
X232001Y40835D01*
X232047Y40746D01*
X232084Y40653D01*
X232127Y40592D01*
X232161Y40526D01*
X232226Y40449D01*
X232283Y40367D01*
X232338Y40317D01*
X232387Y40260D01*
X232467Y40200D01*
X232542Y40133D01*
X232607Y40097D01*
X232667Y40053D01*
X232759Y40013D01*
X232847Y39965D01*
X232919Y39944D01*
X232987Y39915D01*
X233086Y39897D01*
X233182Y39870D01*
X233282Y39862D01*
X233330Y39853D01*
X233366Y39855D01*
X233426Y39850D01*
X385979Y39850D01*
X386105Y39865D01*
X386231Y39871D01*
X386278Y39885D01*
X386326Y39890D01*
X386445Y39933D01*
X386566Y39968D01*
X386608Y39991D01*
X386654Y40008D01*
X386760Y40076D01*
X386870Y40138D01*
X386916Y40177D01*
X386946Y40197D01*
X386980Y40231D01*
X387056Y40296D01*
X389824Y43064D01*
X389903Y43163D01*
X389987Y43257D01*
X390011Y43299D01*
X390041Y43337D01*
X390095Y43451D01*
X390156Y43562D01*
X390169Y43609D01*
X390190Y43652D01*
X390216Y43776D01*
X390251Y43897D01*
X390256Y43958D01*
X390263Y43993D01*
X390262Y44041D01*
X390270Y44141D01*
X390270Y46189D01*
X399708Y55627D01*
X406836Y55627D01*
X406961Y55641D01*
X407088Y55648D01*
X407134Y55661D01*
X407182Y55667D01*
X407301Y55709D01*
X407422Y55744D01*
X407465Y55768D01*
X407510Y55784D01*
X407616Y55853D01*
X407727Y55914D01*
X407773Y55954D01*
X407803Y55973D01*
X407836Y56008D01*
X407913Y56073D01*
X431607Y79767D01*
X431686Y79866D01*
X431770Y79960D01*
X431794Y80002D01*
X431824Y80040D01*
X431878Y80154D01*
X431939Y80265D01*
X431952Y80312D01*
X431973Y80355D01*
X431999Y80479D01*
X432034Y80600D01*
X432039Y80661D01*
X432046Y80696D01*
X432045Y80744D01*
X432053Y80844D01*
X432053Y92825D01*
X432039Y92950D01*
X432032Y93077D01*
X432019Y93123D01*
X432013Y93171D01*
X431971Y93290D01*
X431936Y93412D01*
X431912Y93454D01*
X431896Y93499D01*
X431827Y93605D01*
X431766Y93716D01*
X431726Y93762D01*
X431707Y93792D01*
X431672Y93826D01*
X431607Y93902D01*
X430118Y95391D01*
X429132Y97771D01*
X429132Y100349D01*
X430118Y102729D01*
X431941Y104552D01*
X434321Y105538D01*
X436899Y105538D01*
X439279Y104552D01*
X441102Y102729D01*
X442088Y100349D01*
X442088Y97771D01*
X441102Y95391D01*
X439613Y93902D01*
X439534Y93803D01*
X439450Y93709D01*
X439426Y93667D01*
X439396Y93629D01*
X439342Y93515D01*
X439281Y93404D01*
X439268Y93358D01*
X439247Y93314D01*
X439221Y93190D01*
X439186Y93069D01*
X439181Y93008D01*
X439174Y92973D01*
X439175Y92925D01*
X439167Y92825D01*
X439167Y77267D01*
X410405Y48505D01*
X410329Y48496D01*
X410178Y48484D01*
X410155Y48476D01*
X410131Y48473D01*
X409990Y48423D01*
X409847Y48377D01*
X409826Y48364D01*
X409803Y48356D01*
X409677Y48274D01*
X409548Y48197D01*
X409531Y48180D01*
X409510Y48167D01*
X409406Y48059D01*
X409298Y47954D01*
X409285Y47934D01*
X409268Y47916D01*
X409191Y47787D01*
X409110Y47661D01*
X409102Y47638D01*
X409089Y47617D01*
X409044Y47474D01*
X408993Y47332D01*
X408991Y47308D01*
X408983Y47285D01*
X408971Y47136D01*
X408954Y46986D01*
X408957Y46962D01*
X408955Y46938D01*
X408978Y46789D01*
X408995Y46640D01*
X409004Y46612D01*
X409007Y46593D01*
X409024Y46549D01*
X409070Y46407D01*
X410084Y43961D01*
X410084Y41740D01*
X410095Y41640D01*
X410097Y41540D01*
X410115Y41468D01*
X410124Y41394D01*
X410157Y41300D01*
X410182Y41202D01*
X410216Y41136D01*
X410241Y41066D01*
X410296Y40982D01*
X410342Y40892D01*
X410390Y40836D01*
X410430Y40773D01*
X410502Y40703D01*
X410567Y40627D01*
X410627Y40583D01*
X410681Y40531D01*
X410767Y40479D01*
X410848Y40420D01*
X410916Y40390D01*
X410980Y40352D01*
X411076Y40321D01*
X411168Y40282D01*
X411241Y40269D01*
X411312Y40246D01*
X411412Y40238D01*
X411511Y40220D01*
X411585Y40224D01*
X411659Y40218D01*
X411759Y40233D01*
X411859Y40238D01*
X411930Y40259D01*
X412004Y40270D01*
X412097Y40307D01*
X412194Y40335D01*
X412259Y40371D01*
X412328Y40398D01*
X412410Y40456D01*
X412498Y40505D01*
X412574Y40570D01*
X412614Y40597D01*
X412638Y40624D01*
X412684Y40663D01*
X414577Y42556D01*
X417250Y45229D01*
X417289Y45243D01*
X417395Y45312D01*
X417506Y45373D01*
X417552Y45413D01*
X417582Y45432D01*
X417615Y45467D01*
X426300Y45467D01*
X433452Y38315D01*
X433452Y35644D01*
X433466Y35519D01*
X433473Y35393D01*
X433486Y35346D01*
X433492Y35298D01*
X433534Y35179D01*
X433569Y35058D01*
X433593Y35016D01*
X433609Y34970D01*
X433678Y34864D01*
X433739Y34753D01*
X433779Y34707D01*
X433798Y34677D01*
X433833Y34644D01*
X433898Y34567D01*
X435242Y33223D01*
X435242Y30277D01*
X432712Y27747D01*
X429747Y24782D01*
X429668Y24683D01*
X429584Y24589D01*
X429560Y24547D01*
X429530Y24509D01*
X429476Y24395D01*
X429415Y24284D01*
X429402Y24237D01*
X429381Y24194D01*
X429355Y24070D01*
X429320Y23948D01*
X429315Y23888D01*
X429308Y23853D01*
X429309Y23805D01*
X429301Y23705D01*
X429301Y15199D01*
X420795Y15199D01*
X420670Y15185D01*
X420543Y15178D01*
X420497Y15165D01*
X420449Y15159D01*
X420330Y15117D01*
X420209Y15082D01*
X420166Y15058D01*
X420121Y15042D01*
X420015Y14973D01*
X419904Y14912D01*
X419858Y14872D01*
X419828Y14853D01*
X419795Y14818D01*
X419718Y14753D01*
X417261Y12296D01*
X417182Y12197D01*
X417098Y12103D01*
X417074Y12061D01*
X417044Y12023D01*
X416990Y11909D01*
X416929Y11798D01*
X416916Y11751D01*
X416895Y11708D01*
X416869Y11584D01*
X416834Y11462D01*
X416829Y11402D01*
X416822Y11367D01*
X416823Y11319D01*
X416815Y11219D01*
X416815Y10628D01*
X415229Y6801D01*
X413570Y5141D01*
X413507Y5062D01*
X413438Y4990D01*
X413399Y4926D01*
X413353Y4868D01*
X413310Y4777D01*
X413259Y4691D01*
X413236Y4620D01*
X413204Y4553D01*
X413183Y4455D01*
X413152Y4359D01*
X413146Y4285D01*
X413131Y4212D01*
X413133Y4112D01*
X413124Y4012D01*
X413136Y3938D01*
X413137Y3864D01*
X413161Y3767D01*
X413176Y3667D01*
X413204Y3598D01*
X413222Y3526D01*
X413268Y3437D01*
X413305Y3343D01*
X413347Y3282D01*
X413381Y3216D01*
X413447Y3140D01*
X413504Y3057D01*
X413559Y3007D01*
X413607Y2951D01*
X413688Y2891D01*
X413763Y2824D01*
X413828Y2788D01*
X413888Y2743D01*
X413980Y2704D01*
X414068Y2655D01*
X414139Y2635D01*
X414208Y2605D01*
X414306Y2588D01*
X414403Y2560D01*
X414503Y2552D01*
X414551Y2544D01*
X414586Y2546D01*
X414647Y2541D01*
X422835Y2541D01*
X422935Y2552D01*
G37*
G36*
X41935Y2552D02*
X41935Y2552D01*
X42035Y2554D01*
X42107Y2572D01*
X42181Y2581D01*
X42275Y2614D01*
X42373Y2639D01*
X42439Y2673D01*
X42509Y2698D01*
X42593Y2753D01*
X42683Y2799D01*
X42739Y2847D01*
X42802Y2887D01*
X42872Y2959D01*
X42948Y3024D01*
X42992Y3084D01*
X43044Y3138D01*
X43096Y3224D01*
X43155Y3305D01*
X43185Y3373D01*
X43223Y3437D01*
X43254Y3533D01*
X43293Y3625D01*
X43306Y3698D01*
X43329Y3769D01*
X43337Y3869D01*
X43355Y3968D01*
X43351Y4042D01*
X43357Y4116D01*
X43342Y4216D01*
X43337Y4316D01*
X43316Y4387D01*
X43305Y4461D01*
X43268Y4554D01*
X43241Y4651D01*
X43204Y4716D01*
X43177Y4785D01*
X43119Y4867D01*
X43070Y4955D01*
X43005Y5031D01*
X42978Y5071D01*
X42951Y5095D01*
X42912Y5141D01*
X41540Y6513D01*
X39877Y10527D01*
X39877Y14873D01*
X41540Y18887D01*
X44613Y21960D01*
X48627Y23623D01*
X52973Y23623D01*
X56987Y21960D01*
X60060Y18887D01*
X61723Y14873D01*
X61723Y10527D01*
X60060Y6513D01*
X58688Y5141D01*
X58626Y5062D01*
X58556Y4990D01*
X58518Y4926D01*
X58472Y4868D01*
X58429Y4777D01*
X58377Y4691D01*
X58354Y4620D01*
X58323Y4553D01*
X58301Y4455D01*
X58271Y4359D01*
X58265Y4285D01*
X58249Y4212D01*
X58251Y4112D01*
X58243Y4012D01*
X58254Y3938D01*
X58255Y3864D01*
X58280Y3767D01*
X58295Y3667D01*
X58322Y3598D01*
X58340Y3526D01*
X58386Y3437D01*
X58423Y3343D01*
X58466Y3282D01*
X58500Y3216D01*
X58565Y3140D01*
X58622Y3057D01*
X58677Y3007D01*
X58726Y2951D01*
X58806Y2891D01*
X58881Y2824D01*
X58946Y2788D01*
X59006Y2743D01*
X59098Y2704D01*
X59186Y2655D01*
X59258Y2635D01*
X59326Y2605D01*
X59425Y2588D01*
X59521Y2560D01*
X59621Y2552D01*
X59669Y2544D01*
X59705Y2546D01*
X59765Y2541D01*
X67235Y2541D01*
X67335Y2552D01*
X67435Y2554D01*
X67507Y2572D01*
X67581Y2581D01*
X67675Y2614D01*
X67773Y2639D01*
X67839Y2673D01*
X67909Y2698D01*
X67993Y2753D01*
X68083Y2799D01*
X68139Y2847D01*
X68202Y2887D01*
X68272Y2959D01*
X68348Y3024D01*
X68392Y3084D01*
X68444Y3138D01*
X68496Y3224D01*
X68555Y3305D01*
X68585Y3373D01*
X68623Y3437D01*
X68654Y3533D01*
X68693Y3625D01*
X68706Y3698D01*
X68729Y3769D01*
X68737Y3869D01*
X68755Y3968D01*
X68751Y4042D01*
X68757Y4116D01*
X68742Y4216D01*
X68737Y4316D01*
X68716Y4387D01*
X68705Y4461D01*
X68668Y4554D01*
X68641Y4651D01*
X68604Y4716D01*
X68577Y4785D01*
X68519Y4867D01*
X68470Y4955D01*
X68405Y5031D01*
X68378Y5071D01*
X68351Y5095D01*
X68312Y5141D01*
X66940Y6513D01*
X65277Y10527D01*
X65277Y14873D01*
X66940Y18887D01*
X70013Y21960D01*
X74027Y23623D01*
X78373Y23623D01*
X82387Y21960D01*
X85460Y18887D01*
X87123Y14873D01*
X87123Y10527D01*
X85460Y6513D01*
X84088Y5141D01*
X84026Y5062D01*
X83956Y4990D01*
X83918Y4926D01*
X83872Y4868D01*
X83829Y4777D01*
X83777Y4691D01*
X83754Y4620D01*
X83723Y4553D01*
X83701Y4455D01*
X83671Y4359D01*
X83665Y4285D01*
X83649Y4212D01*
X83651Y4112D01*
X83643Y4012D01*
X83654Y3938D01*
X83655Y3864D01*
X83680Y3767D01*
X83695Y3667D01*
X83722Y3598D01*
X83740Y3526D01*
X83786Y3437D01*
X83823Y3343D01*
X83866Y3282D01*
X83900Y3216D01*
X83965Y3140D01*
X84022Y3057D01*
X84077Y3007D01*
X84126Y2951D01*
X84206Y2891D01*
X84281Y2824D01*
X84346Y2788D01*
X84406Y2743D01*
X84498Y2704D01*
X84586Y2655D01*
X84658Y2635D01*
X84726Y2605D01*
X84825Y2588D01*
X84921Y2560D01*
X85021Y2552D01*
X85069Y2544D01*
X85105Y2546D01*
X85165Y2541D01*
X92635Y2541D01*
X92735Y2552D01*
X92835Y2554D01*
X92907Y2572D01*
X92981Y2581D01*
X93075Y2614D01*
X93173Y2639D01*
X93239Y2673D01*
X93309Y2698D01*
X93393Y2753D01*
X93483Y2799D01*
X93539Y2847D01*
X93602Y2887D01*
X93672Y2959D01*
X93748Y3024D01*
X93792Y3084D01*
X93844Y3138D01*
X93896Y3224D01*
X93955Y3305D01*
X93985Y3373D01*
X94023Y3437D01*
X94054Y3533D01*
X94093Y3625D01*
X94106Y3698D01*
X94129Y3769D01*
X94137Y3869D01*
X94155Y3968D01*
X94151Y4042D01*
X94157Y4116D01*
X94142Y4216D01*
X94137Y4316D01*
X94116Y4387D01*
X94105Y4461D01*
X94068Y4554D01*
X94041Y4651D01*
X94004Y4716D01*
X93977Y4785D01*
X93919Y4867D01*
X93870Y4955D01*
X93805Y5031D01*
X93778Y5071D01*
X93751Y5095D01*
X93712Y5141D01*
X92340Y6513D01*
X90677Y10527D01*
X90677Y14873D01*
X92340Y18887D01*
X95413Y21960D01*
X96595Y22449D01*
X96662Y22487D01*
X96733Y22515D01*
X96813Y22571D01*
X96900Y22619D01*
X96956Y22670D01*
X97019Y22714D01*
X97085Y22787D01*
X97158Y22853D01*
X97201Y22916D01*
X97252Y22973D01*
X97300Y23059D01*
X97356Y23140D01*
X97384Y23211D01*
X97393Y23226D01*
X97400Y23239D01*
X97401Y23242D01*
X97421Y23278D01*
X97448Y23372D01*
X97484Y23464D01*
X97494Y23531D01*
X97506Y23571D01*
X97507Y23584D01*
X97516Y23613D01*
X97528Y23762D01*
X97535Y23809D01*
X97533Y23828D01*
X97535Y23857D01*
X97535Y47676D01*
X97521Y47802D01*
X97514Y47928D01*
X97501Y47974D01*
X97495Y48022D01*
X97453Y48141D01*
X97418Y48263D01*
X97394Y48305D01*
X97378Y48350D01*
X97309Y48457D01*
X97248Y48567D01*
X97208Y48613D01*
X97189Y48643D01*
X97154Y48677D01*
X97089Y48753D01*
X96265Y49577D01*
X96265Y67263D01*
X97456Y68454D01*
X98552Y68454D01*
X98578Y68457D01*
X98604Y68455D01*
X98751Y68477D01*
X98898Y68494D01*
X98923Y68502D01*
X98949Y68506D01*
X99087Y68561D01*
X99226Y68611D01*
X99248Y68625D01*
X99273Y68635D01*
X99394Y68720D01*
X99519Y68800D01*
X99537Y68819D01*
X99559Y68834D01*
X99658Y68944D01*
X99761Y69051D01*
X99775Y69073D01*
X99792Y69093D01*
X99864Y69223D01*
X99940Y69350D01*
X99948Y69375D01*
X99961Y69398D01*
X100001Y69541D01*
X100046Y69682D01*
X100048Y69708D01*
X100056Y69733D01*
X100075Y69977D01*
X100075Y80235D01*
X100073Y80258D01*
X100074Y80279D01*
X100060Y80373D01*
X100054Y80487D01*
X100041Y80534D01*
X100035Y80582D01*
X100024Y80613D01*
X100023Y80623D01*
X100000Y80680D01*
X99993Y80701D01*
X99958Y80822D01*
X99934Y80864D01*
X99918Y80910D01*
X99894Y80946D01*
X99894Y80947D01*
X99890Y80954D01*
X99849Y81016D01*
X99788Y81126D01*
X99748Y81172D01*
X99729Y81202D01*
X99694Y81236D01*
X99629Y81312D01*
X91472Y89469D01*
X91373Y89548D01*
X91280Y89632D01*
X91237Y89656D01*
X91199Y89686D01*
X91085Y89740D01*
X90975Y89801D01*
X90928Y89814D01*
X90884Y89835D01*
X90761Y89861D01*
X90639Y89896D01*
X90578Y89901D01*
X90544Y89908D01*
X90496Y89907D01*
X90395Y89915D01*
X89670Y89915D01*
X89545Y89901D01*
X89418Y89894D01*
X89372Y89881D01*
X89324Y89875D01*
X89205Y89833D01*
X89083Y89798D01*
X89041Y89774D01*
X88996Y89758D01*
X88890Y89689D01*
X88779Y89628D01*
X88733Y89588D01*
X88703Y89569D01*
X88670Y89534D01*
X88593Y89469D01*
X87539Y88415D01*
X85126Y87415D01*
X82514Y87415D01*
X80101Y88415D01*
X78255Y90261D01*
X77255Y92674D01*
X77255Y95286D01*
X78255Y97699D01*
X80101Y99545D01*
X82514Y100545D01*
X85126Y100545D01*
X86589Y99939D01*
X86591Y99938D01*
X86593Y99937D01*
X86757Y99891D01*
X86924Y99843D01*
X86926Y99843D01*
X86928Y99842D01*
X87172Y99823D01*
X87728Y99823D01*
X89060Y98491D01*
X89159Y98412D01*
X89253Y98328D01*
X89295Y98304D01*
X89333Y98274D01*
X89447Y98220D01*
X89558Y98159D01*
X89604Y98146D01*
X89648Y98125D01*
X89771Y98099D01*
X89893Y98064D01*
X89954Y98059D01*
X89989Y98052D01*
X90037Y98053D01*
X90137Y98045D01*
X94394Y98045D01*
X103063Y89376D01*
X103083Y89359D01*
X103100Y89339D01*
X103220Y89251D01*
X103336Y89159D01*
X103360Y89148D01*
X103381Y89132D01*
X103517Y89073D01*
X103651Y89010D01*
X103677Y89004D01*
X103701Y88994D01*
X103847Y88968D01*
X103992Y88937D01*
X104018Y88937D01*
X104044Y88932D01*
X104192Y88940D01*
X104340Y88943D01*
X104366Y88949D01*
X104392Y88950D01*
X104534Y88991D01*
X104678Y89028D01*
X104702Y89040D01*
X104727Y89047D01*
X104856Y89119D01*
X104988Y89187D01*
X105008Y89204D01*
X105031Y89217D01*
X105217Y89376D01*
X112616Y96775D01*
X115984Y96775D01*
X116046Y96713D01*
X116145Y96634D01*
X116238Y96550D01*
X116281Y96526D01*
X116319Y96496D01*
X116433Y96442D01*
X116543Y96381D01*
X116590Y96368D01*
X116634Y96347D01*
X116757Y96321D01*
X116879Y96286D01*
X116940Y96281D01*
X116974Y96274D01*
X117022Y96275D01*
X117123Y96267D01*
X126992Y96267D01*
X127117Y96281D01*
X127244Y96288D01*
X127290Y96301D01*
X127338Y96307D01*
X127457Y96349D01*
X127578Y96384D01*
X127621Y96408D01*
X127666Y96424D01*
X127772Y96493D01*
X127883Y96554D01*
X127929Y96594D01*
X127959Y96613D01*
X127992Y96648D01*
X128069Y96713D01*
X129631Y98275D01*
X132044Y99275D01*
X134656Y99275D01*
X137069Y98275D01*
X138915Y96429D01*
X139915Y94016D01*
X139915Y91404D01*
X138915Y88991D01*
X137069Y87145D01*
X134656Y86145D01*
X132044Y86145D01*
X129631Y87145D01*
X128069Y88707D01*
X127970Y88786D01*
X127876Y88870D01*
X127834Y88894D01*
X127796Y88924D01*
X127682Y88978D01*
X127571Y89039D01*
X127524Y89052D01*
X127481Y89073D01*
X127357Y89099D01*
X127236Y89134D01*
X127175Y89139D01*
X127140Y89146D01*
X127092Y89145D01*
X126992Y89153D01*
X117123Y89153D01*
X116997Y89139D01*
X116871Y89132D01*
X116824Y89119D01*
X116776Y89113D01*
X116657Y89071D01*
X116536Y89036D01*
X116494Y89012D01*
X116448Y88996D01*
X116342Y88927D01*
X116232Y88866D01*
X116186Y88826D01*
X116156Y88807D01*
X116122Y88772D01*
X116046Y88707D01*
X108651Y81312D01*
X108572Y81213D01*
X108488Y81120D01*
X108464Y81077D01*
X108434Y81039D01*
X108380Y80925D01*
X108352Y80873D01*
X108340Y80854D01*
X108339Y80850D01*
X108319Y80815D01*
X108306Y80768D01*
X108285Y80724D01*
X108259Y80601D01*
X108257Y80596D01*
X108234Y80522D01*
X108233Y80508D01*
X108224Y80479D01*
X108219Y80418D01*
X108212Y80384D01*
X108213Y80336D01*
X108205Y80235D01*
X108205Y69977D01*
X108208Y69951D01*
X108206Y69925D01*
X108228Y69778D01*
X108245Y69631D01*
X108253Y69606D01*
X108257Y69580D01*
X108312Y69442D01*
X108362Y69303D01*
X108376Y69281D01*
X108386Y69256D01*
X108471Y69135D01*
X108551Y69010D01*
X108570Y68992D01*
X108585Y68970D01*
X108695Y68871D01*
X108802Y68768D01*
X108824Y68754D01*
X108844Y68737D01*
X108974Y68665D01*
X109101Y68589D01*
X109126Y68581D01*
X109149Y68568D01*
X109292Y68528D01*
X109433Y68483D01*
X109459Y68481D01*
X109484Y68473D01*
X109728Y68454D01*
X111252Y68454D01*
X111278Y68457D01*
X111304Y68455D01*
X111451Y68477D01*
X111598Y68494D01*
X111623Y68502D01*
X111649Y68506D01*
X111787Y68561D01*
X111926Y68611D01*
X111948Y68625D01*
X111973Y68635D01*
X112094Y68720D01*
X112219Y68800D01*
X112237Y68819D01*
X112259Y68834D01*
X112358Y68944D01*
X112461Y69051D01*
X112475Y69073D01*
X112492Y69093D01*
X112564Y69223D01*
X112640Y69350D01*
X112648Y69375D01*
X112661Y69398D01*
X112701Y69541D01*
X112746Y69682D01*
X112748Y69708D01*
X112756Y69733D01*
X112775Y69977D01*
X112775Y70264D01*
X117696Y75185D01*
X146464Y75185D01*
X148845Y72804D01*
X148845Y72716D01*
X148859Y72591D01*
X148866Y72464D01*
X148879Y72418D01*
X148885Y72370D01*
X148927Y72251D01*
X148962Y72130D01*
X148986Y72087D01*
X149002Y72042D01*
X149071Y71936D01*
X149132Y71825D01*
X149172Y71779D01*
X149191Y71749D01*
X149226Y71716D01*
X149291Y71639D01*
X162317Y58613D01*
X162416Y58534D01*
X162510Y58450D01*
X162552Y58426D01*
X162590Y58396D01*
X162704Y58342D01*
X162815Y58281D01*
X162862Y58268D01*
X162905Y58247D01*
X163029Y58221D01*
X163150Y58186D01*
X163211Y58181D01*
X163246Y58174D01*
X163294Y58175D01*
X163394Y58167D01*
X171886Y58167D01*
X172011Y58181D01*
X172138Y58188D01*
X172184Y58201D01*
X172232Y58207D01*
X172351Y58249D01*
X172472Y58284D01*
X172515Y58308D01*
X172560Y58324D01*
X172666Y58393D01*
X172777Y58454D01*
X172823Y58494D01*
X172853Y58513D01*
X172887Y58548D01*
X172963Y58613D01*
X181472Y67122D01*
X181534Y67200D01*
X181604Y67273D01*
X181642Y67337D01*
X181689Y67395D01*
X181731Y67486D01*
X181783Y67572D01*
X181806Y67643D01*
X181837Y67710D01*
X181859Y67808D01*
X181889Y67904D01*
X181895Y67978D01*
X181911Y68051D01*
X181909Y68151D01*
X181917Y68251D01*
X181906Y68325D01*
X181905Y68399D01*
X181880Y68496D01*
X181866Y68596D01*
X181838Y68665D01*
X181820Y68737D01*
X181774Y68827D01*
X181737Y68920D01*
X181694Y68981D01*
X181660Y69047D01*
X181595Y69124D01*
X181538Y69206D01*
X181483Y69256D01*
X181434Y69312D01*
X181354Y69372D01*
X181279Y69439D01*
X181214Y69475D01*
X181154Y69520D01*
X181062Y69559D01*
X180974Y69608D01*
X180902Y69628D01*
X180834Y69658D01*
X180735Y69675D01*
X180639Y69703D01*
X180539Y69711D01*
X180491Y69719D01*
X180455Y69717D01*
X180395Y69722D01*
X180321Y69722D01*
X177941Y70708D01*
X176118Y72531D01*
X175132Y74911D01*
X175132Y77489D01*
X176118Y79869D01*
X177941Y81692D01*
X180321Y82678D01*
X180438Y82678D01*
X180564Y82692D01*
X180690Y82699D01*
X180737Y82712D01*
X180785Y82718D01*
X180904Y82760D01*
X181025Y82795D01*
X181067Y82819D01*
X181113Y82835D01*
X181219Y82904D01*
X181329Y82965D01*
X181376Y83005D01*
X181406Y83024D01*
X181439Y83059D01*
X181515Y83124D01*
X185006Y86615D01*
X255557Y86615D01*
X255657Y86626D01*
X255757Y86628D01*
X255829Y86646D01*
X255903Y86655D01*
X255998Y86688D01*
X256095Y86713D01*
X256161Y86747D01*
X256231Y86772D01*
X256316Y86827D01*
X256405Y86873D01*
X256462Y86921D01*
X256524Y86961D01*
X256594Y87033D01*
X256670Y87098D01*
X256715Y87158D01*
X256766Y87212D01*
X256818Y87298D01*
X256878Y87379D01*
X256907Y87447D01*
X256945Y87511D01*
X256976Y87607D01*
X257016Y87699D01*
X257029Y87772D01*
X257051Y87843D01*
X257060Y87943D01*
X257077Y88042D01*
X257073Y88116D01*
X257079Y88190D01*
X257065Y88290D01*
X257059Y88390D01*
X257039Y88461D01*
X257028Y88535D01*
X256991Y88628D01*
X256963Y88725D01*
X256926Y88790D01*
X256899Y88859D01*
X256842Y88941D01*
X256793Y89029D01*
X256728Y89105D01*
X256700Y89145D01*
X256674Y89169D01*
X256634Y89215D01*
X220058Y125791D01*
X219959Y125870D01*
X219865Y125954D01*
X219823Y125978D01*
X219785Y126008D01*
X219671Y126062D01*
X219560Y126123D01*
X219514Y126136D01*
X219470Y126157D01*
X219347Y126183D01*
X219225Y126218D01*
X219164Y126223D01*
X219129Y126230D01*
X219081Y126229D01*
X218981Y126237D01*
X183019Y126237D01*
X182894Y126223D01*
X182767Y126216D01*
X182721Y126203D01*
X182673Y126197D01*
X182554Y126155D01*
X182432Y126120D01*
X182390Y126096D01*
X182345Y126080D01*
X182239Y126011D01*
X182128Y125950D01*
X182082Y125910D01*
X182052Y125891D01*
X182018Y125856D01*
X181942Y125791D01*
X179945Y123794D01*
X177565Y122808D01*
X174987Y122808D01*
X172607Y123794D01*
X170784Y125617D01*
X169798Y127997D01*
X169798Y130575D01*
X170286Y131751D01*
X170327Y131896D01*
X170373Y132039D01*
X170375Y132063D01*
X170381Y132086D01*
X170389Y132236D01*
X170401Y132386D01*
X170397Y132410D01*
X170398Y132434D01*
X170371Y132582D01*
X170349Y132731D01*
X170340Y132753D01*
X170336Y132777D01*
X170276Y132915D01*
X170220Y133055D01*
X170206Y133075D01*
X170197Y133097D01*
X170107Y133218D01*
X170021Y133341D01*
X170003Y133357D01*
X169989Y133377D01*
X169874Y133474D01*
X169763Y133574D01*
X169741Y133586D01*
X169723Y133602D01*
X169589Y133670D01*
X169458Y133743D01*
X169434Y133749D01*
X169413Y133760D01*
X169267Y133797D01*
X169122Y133838D01*
X169093Y133840D01*
X169074Y133845D01*
X169027Y133845D01*
X168878Y133857D01*
X150241Y133857D01*
X150215Y133854D01*
X150189Y133856D01*
X150042Y133834D01*
X149895Y133817D01*
X149870Y133809D01*
X149844Y133805D01*
X149706Y133750D01*
X149567Y133700D01*
X149545Y133686D01*
X149520Y133676D01*
X149399Y133591D01*
X149274Y133511D01*
X149256Y133492D01*
X149234Y133477D01*
X149135Y133367D01*
X149032Y133260D01*
X149018Y133238D01*
X149001Y133218D01*
X148929Y133088D01*
X148853Y132961D01*
X148845Y132936D01*
X148832Y132913D01*
X148792Y132770D01*
X148747Y132629D01*
X148745Y132603D01*
X148737Y132578D01*
X148718Y132334D01*
X148718Y132061D01*
X147732Y129681D01*
X145909Y127858D01*
X143529Y126872D01*
X140951Y126872D01*
X138905Y127720D01*
X138857Y127734D01*
X138811Y127755D01*
X138690Y127781D01*
X138570Y127815D01*
X138520Y127818D01*
X138471Y127828D01*
X138347Y127826D01*
X138222Y127832D01*
X138173Y127823D01*
X138122Y127823D01*
X138002Y127792D01*
X137879Y127770D01*
X137833Y127750D01*
X137784Y127738D01*
X137674Y127681D01*
X137560Y127631D01*
X137519Y127601D01*
X137474Y127578D01*
X137380Y127497D01*
X137280Y127423D01*
X137247Y127385D01*
X137209Y127352D01*
X137135Y127252D01*
X137055Y127157D01*
X137032Y127112D01*
X137002Y127072D01*
X136953Y126957D01*
X136896Y126847D01*
X136884Y126798D01*
X136864Y126752D01*
X136842Y126629D01*
X136812Y126509D01*
X136811Y126458D01*
X136802Y126409D01*
X136809Y126285D01*
X136807Y126160D01*
X136818Y126111D01*
X136820Y126061D01*
X136855Y125941D01*
X136881Y125820D01*
X136903Y125774D01*
X136917Y125726D01*
X136978Y125617D01*
X137031Y125505D01*
X137062Y125466D01*
X137087Y125422D01*
X137245Y125235D01*
X167133Y95348D01*
X167133Y78879D01*
X167147Y78754D01*
X167154Y78627D01*
X167167Y78581D01*
X167173Y78533D01*
X167215Y78414D01*
X167250Y78292D01*
X167274Y78250D01*
X167290Y78205D01*
X167359Y78099D01*
X167420Y77988D01*
X167460Y77942D01*
X167479Y77912D01*
X167514Y77878D01*
X167579Y77802D01*
X169322Y76059D01*
X170308Y73679D01*
X170308Y71101D01*
X169322Y68721D01*
X167499Y66898D01*
X165119Y65912D01*
X162541Y65912D01*
X160161Y66898D01*
X158338Y68721D01*
X157352Y71101D01*
X157352Y73679D01*
X158338Y76059D01*
X160081Y77802D01*
X160160Y77901D01*
X160244Y77995D01*
X160268Y78037D01*
X160298Y78075D01*
X160352Y78189D01*
X160413Y78300D01*
X160426Y78346D01*
X160447Y78390D01*
X160473Y78514D01*
X160508Y78635D01*
X160513Y78696D01*
X160520Y78731D01*
X160519Y78779D01*
X160527Y78879D01*
X160527Y91981D01*
X160513Y92107D01*
X160506Y92233D01*
X160493Y92279D01*
X160487Y92327D01*
X160445Y92446D01*
X160410Y92568D01*
X160386Y92610D01*
X160370Y92655D01*
X160301Y92762D01*
X160240Y92872D01*
X160200Y92918D01*
X160181Y92948D01*
X160146Y92982D01*
X160081Y93058D01*
X134968Y118171D01*
X134869Y118250D01*
X134775Y118334D01*
X134733Y118358D01*
X134695Y118388D01*
X134581Y118442D01*
X134470Y118503D01*
X134424Y118516D01*
X134380Y118537D01*
X134257Y118563D01*
X134135Y118598D01*
X134074Y118603D01*
X134039Y118610D01*
X133991Y118609D01*
X133891Y118617D01*
X101502Y118617D01*
X89970Y130149D01*
X89871Y130228D01*
X89777Y130312D01*
X89735Y130336D01*
X89697Y130366D01*
X89583Y130420D01*
X89472Y130481D01*
X89426Y130494D01*
X89382Y130515D01*
X89259Y130541D01*
X89137Y130576D01*
X89076Y130581D01*
X89041Y130588D01*
X88993Y130587D01*
X88893Y130595D01*
X86324Y130595D01*
X83911Y131595D01*
X82065Y133441D01*
X81065Y135854D01*
X81065Y138466D01*
X82065Y140879D01*
X83911Y142725D01*
X86324Y143725D01*
X87957Y143725D01*
X88057Y143736D01*
X88157Y143738D01*
X88229Y143756D01*
X88303Y143765D01*
X88398Y143799D01*
X88495Y143823D01*
X88561Y143857D01*
X88631Y143882D01*
X88716Y143937D01*
X88805Y143983D01*
X88862Y144031D01*
X88924Y144071D01*
X88994Y144143D01*
X89070Y144208D01*
X89115Y144268D01*
X89166Y144322D01*
X89218Y144408D01*
X89278Y144489D01*
X89307Y144557D01*
X89345Y144621D01*
X89376Y144717D01*
X89416Y144809D01*
X89429Y144882D01*
X89451Y144953D01*
X89460Y145053D01*
X89477Y145152D01*
X89473Y145226D01*
X89479Y145300D01*
X89465Y145400D01*
X89459Y145500D01*
X89439Y145571D01*
X89428Y145645D01*
X89391Y145738D01*
X89363Y145835D01*
X89327Y145900D01*
X89299Y145969D01*
X89242Y146051D01*
X89193Y146139D01*
X89127Y146215D01*
X89100Y146255D01*
X89074Y146279D01*
X89034Y146325D01*
X87978Y147381D01*
X87879Y147460D01*
X87785Y147544D01*
X87743Y147568D01*
X87705Y147598D01*
X87591Y147652D01*
X87480Y147713D01*
X87434Y147726D01*
X87390Y147747D01*
X87267Y147773D01*
X87145Y147808D01*
X87084Y147813D01*
X87049Y147820D01*
X87001Y147819D01*
X86901Y147827D01*
X63402Y147827D01*
X56188Y155041D01*
X56128Y155089D01*
X56075Y155143D01*
X55992Y155197D01*
X55915Y155258D01*
X55846Y155290D01*
X55782Y155332D01*
X55689Y155365D01*
X55600Y155407D01*
X55525Y155423D01*
X55453Y155448D01*
X55355Y155459D01*
X55259Y155480D01*
X55183Y155479D01*
X55107Y155487D01*
X55009Y155476D01*
X54911Y155474D01*
X54837Y155456D01*
X54761Y155447D01*
X54618Y155401D01*
X54573Y155389D01*
X54556Y155380D01*
X54528Y155371D01*
X52872Y154685D01*
X48728Y154685D01*
X44900Y156271D01*
X41971Y159200D01*
X40385Y163028D01*
X40385Y167172D01*
X41971Y170999D01*
X43630Y172659D01*
X43693Y172738D01*
X43762Y172810D01*
X43801Y172874D01*
X43847Y172932D01*
X43890Y173023D01*
X43941Y173109D01*
X43964Y173180D01*
X43996Y173247D01*
X44017Y173345D01*
X44048Y173441D01*
X44054Y173515D01*
X44069Y173588D01*
X44067Y173688D01*
X44076Y173788D01*
X44064Y173862D01*
X44063Y173936D01*
X44039Y174033D01*
X44024Y174133D01*
X43996Y174202D01*
X43978Y174274D01*
X43932Y174363D01*
X43895Y174457D01*
X43853Y174518D01*
X43819Y174584D01*
X43753Y174660D01*
X43696Y174743D01*
X43641Y174793D01*
X43593Y174849D01*
X43512Y174909D01*
X43437Y174976D01*
X43372Y175012D01*
X43312Y175057D01*
X43220Y175096D01*
X43132Y175145D01*
X43061Y175165D01*
X42992Y175195D01*
X42894Y175212D01*
X42797Y175240D01*
X42697Y175248D01*
X42649Y175256D01*
X42614Y175254D01*
X42553Y175259D01*
X22235Y175259D01*
X22185Y175254D01*
X22134Y175256D01*
X22012Y175234D01*
X21888Y175219D01*
X21841Y175202D01*
X21791Y175193D01*
X21677Y175144D01*
X21560Y175102D01*
X21518Y175075D01*
X21472Y175055D01*
X21372Y174980D01*
X21267Y174913D01*
X21232Y174877D01*
X21192Y174847D01*
X21112Y174752D01*
X21025Y174662D01*
X20999Y174619D01*
X20967Y174581D01*
X20910Y174470D01*
X20846Y174363D01*
X20831Y174315D01*
X20808Y174270D01*
X20778Y174150D01*
X20740Y174031D01*
X20736Y173981D01*
X20724Y173932D01*
X20722Y173808D01*
X20712Y173684D01*
X20720Y173634D01*
X20719Y173584D01*
X20745Y173462D01*
X20764Y173339D01*
X20783Y173292D01*
X20793Y173243D01*
X20847Y173131D01*
X20893Y173015D01*
X20921Y172974D01*
X20943Y172928D01*
X21021Y172831D01*
X21092Y172729D01*
X21129Y172695D01*
X21160Y172656D01*
X21258Y172579D01*
X21350Y172496D01*
X21394Y172471D01*
X21434Y172440D01*
X21652Y172329D01*
X26720Y170229D01*
X30529Y166420D01*
X32591Y161443D01*
X32591Y156057D01*
X30529Y151080D01*
X26720Y147271D01*
X21743Y145209D01*
X16357Y145209D01*
X11380Y147271D01*
X7571Y151080D01*
X5471Y156148D01*
X5447Y156192D01*
X5430Y156240D01*
X5362Y156344D01*
X5302Y156453D01*
X5268Y156490D01*
X5241Y156533D01*
X5151Y156619D01*
X5068Y156711D01*
X5026Y156740D01*
X4990Y156775D01*
X4883Y156839D01*
X4781Y156909D01*
X4734Y156928D01*
X4691Y156954D01*
X4573Y156992D01*
X4457Y157037D01*
X4407Y157044D01*
X4359Y157060D01*
X4235Y157070D01*
X4112Y157088D01*
X4062Y157084D01*
X4012Y157088D01*
X3889Y157069D01*
X3765Y157059D01*
X3717Y157044D01*
X3667Y157036D01*
X3552Y156990D01*
X3433Y156952D01*
X3390Y156926D01*
X3343Y156907D01*
X3241Y156837D01*
X3135Y156772D01*
X3098Y156737D01*
X3057Y156708D01*
X2974Y156616D01*
X2885Y156529D01*
X2857Y156487D01*
X2824Y156450D01*
X2764Y156341D01*
X2696Y156236D01*
X2679Y156189D01*
X2655Y156145D01*
X2621Y156025D01*
X2580Y155908D01*
X2574Y155858D01*
X2560Y155809D01*
X2541Y155565D01*
X2541Y118523D01*
X2555Y118398D01*
X2562Y118272D01*
X2575Y118225D01*
X2581Y118177D01*
X2623Y118058D01*
X2658Y117937D01*
X2682Y117895D01*
X2698Y117849D01*
X2767Y117743D01*
X2828Y117633D01*
X2868Y117586D01*
X2887Y117556D01*
X2922Y117523D01*
X2987Y117446D01*
X3146Y117287D01*
X5081Y115352D01*
X5081Y64988D01*
X2987Y62894D01*
X2908Y62795D01*
X2824Y62701D01*
X2800Y62659D01*
X2770Y62621D01*
X2716Y62507D01*
X2655Y62396D01*
X2642Y62349D01*
X2621Y62306D01*
X2595Y62182D01*
X2560Y62060D01*
X2555Y62000D01*
X2548Y61965D01*
X2549Y61917D01*
X2541Y61817D01*
X2541Y22235D01*
X2546Y22185D01*
X2544Y22134D01*
X2566Y22012D01*
X2581Y21888D01*
X2598Y21841D01*
X2607Y21791D01*
X2656Y21677D01*
X2698Y21560D01*
X2725Y21518D01*
X2745Y21472D01*
X2820Y21372D01*
X2887Y21267D01*
X2923Y21232D01*
X2953Y21192D01*
X3048Y21112D01*
X3138Y21025D01*
X3181Y20999D01*
X3219Y20967D01*
X3330Y20910D01*
X3437Y20846D01*
X3485Y20831D01*
X3530Y20808D01*
X3650Y20778D01*
X3769Y20740D01*
X3819Y20736D01*
X3868Y20724D01*
X3992Y20722D01*
X4116Y20712D01*
X4166Y20720D01*
X4216Y20719D01*
X4338Y20745D01*
X4461Y20764D01*
X4508Y20783D01*
X4557Y20793D01*
X4669Y20847D01*
X4785Y20893D01*
X4826Y20921D01*
X4872Y20943D01*
X4969Y21021D01*
X5071Y21092D01*
X5105Y21129D01*
X5144Y21160D01*
X5221Y21258D01*
X5304Y21350D01*
X5329Y21394D01*
X5360Y21434D01*
X5471Y21652D01*
X7571Y26720D01*
X11380Y30529D01*
X16357Y32591D01*
X21743Y32591D01*
X26720Y30529D01*
X30529Y26720D01*
X32591Y21743D01*
X32591Y16357D01*
X30529Y11380D01*
X26720Y7571D01*
X21652Y5471D01*
X21608Y5447D01*
X21560Y5430D01*
X21456Y5362D01*
X21347Y5302D01*
X21310Y5268D01*
X21267Y5241D01*
X21181Y5151D01*
X21089Y5068D01*
X21060Y5026D01*
X21025Y4990D01*
X20961Y4883D01*
X20891Y4781D01*
X20872Y4734D01*
X20846Y4691D01*
X20808Y4573D01*
X20763Y4457D01*
X20756Y4407D01*
X20740Y4359D01*
X20730Y4235D01*
X20712Y4112D01*
X20716Y4062D01*
X20712Y4012D01*
X20731Y3889D01*
X20741Y3765D01*
X20756Y3717D01*
X20764Y3667D01*
X20810Y3552D01*
X20848Y3433D01*
X20874Y3390D01*
X20893Y3343D01*
X20963Y3241D01*
X21028Y3135D01*
X21063Y3098D01*
X21092Y3057D01*
X21184Y2974D01*
X21271Y2885D01*
X21313Y2857D01*
X21350Y2824D01*
X21459Y2764D01*
X21564Y2696D01*
X21611Y2679D01*
X21655Y2655D01*
X21775Y2621D01*
X21892Y2580D01*
X21942Y2574D01*
X21991Y2560D01*
X22235Y2541D01*
X41835Y2541D01*
X41935Y2552D01*
G37*
G36*
X358501Y75707D02*
X358501Y75707D01*
X358627Y75714D01*
X358674Y75727D01*
X358722Y75733D01*
X358841Y75775D01*
X358962Y75810D01*
X359004Y75834D01*
X359050Y75850D01*
X359156Y75919D01*
X359266Y75980D01*
X359313Y76020D01*
X359343Y76039D01*
X359376Y76074D01*
X359453Y76139D01*
X360818Y77505D01*
X363036Y78423D01*
X365436Y78423D01*
X367654Y77505D01*
X368765Y76393D01*
X368865Y76314D01*
X368958Y76230D01*
X369001Y76206D01*
X369038Y76176D01*
X369153Y76122D01*
X369263Y76061D01*
X369310Y76048D01*
X369353Y76027D01*
X369477Y76001D01*
X369599Y75966D01*
X369659Y75961D01*
X369694Y75954D01*
X369742Y75955D01*
X369842Y75947D01*
X383065Y75947D01*
X383191Y75961D01*
X383317Y75968D01*
X383363Y75981D01*
X383411Y75987D01*
X383530Y76029D01*
X383652Y76064D01*
X383694Y76088D01*
X383739Y76104D01*
X383846Y76173D01*
X383956Y76234D01*
X384002Y76274D01*
X384032Y76293D01*
X384066Y76328D01*
X384142Y76393D01*
X396301Y88552D01*
X396380Y88651D01*
X396464Y88745D01*
X396488Y88787D01*
X396518Y88825D01*
X396572Y88939D01*
X396633Y89050D01*
X396646Y89096D01*
X396667Y89140D01*
X396693Y89263D01*
X396728Y89385D01*
X396733Y89446D01*
X396740Y89481D01*
X396739Y89529D01*
X396747Y89629D01*
X396747Y99006D01*
X396736Y99106D01*
X396734Y99207D01*
X396716Y99279D01*
X396707Y99353D01*
X396674Y99447D01*
X396649Y99545D01*
X396615Y99611D01*
X396590Y99681D01*
X396535Y99765D01*
X396489Y99854D01*
X396441Y99911D01*
X396401Y99974D01*
X396329Y100043D01*
X396264Y100120D01*
X396204Y100164D01*
X396150Y100216D01*
X396064Y100267D01*
X395983Y100327D01*
X395915Y100356D01*
X395851Y100395D01*
X395755Y100425D01*
X395663Y100465D01*
X395590Y100478D01*
X395519Y100501D01*
X395419Y100509D01*
X395320Y100527D01*
X395246Y100523D01*
X395172Y100529D01*
X395072Y100514D01*
X394972Y100509D01*
X394901Y100488D01*
X394827Y100477D01*
X394734Y100440D01*
X394637Y100412D01*
X394572Y100376D01*
X394503Y100348D01*
X394421Y100291D01*
X394333Y100242D01*
X394257Y100177D01*
X394217Y100149D01*
X394193Y100123D01*
X394147Y100083D01*
X379607Y85543D01*
X377375Y83311D01*
X376954Y83311D01*
X376829Y83297D01*
X376703Y83290D01*
X376656Y83277D01*
X376608Y83271D01*
X376489Y83229D01*
X376368Y83194D01*
X376326Y83170D01*
X376280Y83154D01*
X376174Y83085D01*
X376064Y83024D01*
X376017Y82984D01*
X375987Y82965D01*
X375954Y82930D01*
X375951Y82928D01*
X375949Y82927D01*
X375947Y82924D01*
X375877Y82865D01*
X374258Y81245D01*
X372040Y80327D01*
X369640Y80327D01*
X367422Y81245D01*
X365725Y82942D01*
X364807Y85160D01*
X364807Y87560D01*
X365725Y89778D01*
X366311Y90363D01*
X366327Y90383D01*
X366347Y90400D01*
X366435Y90519D01*
X366527Y90636D01*
X366538Y90660D01*
X366554Y90681D01*
X366613Y90817D01*
X366676Y90951D01*
X366682Y90977D01*
X366692Y91001D01*
X366718Y91147D01*
X366750Y91292D01*
X366749Y91318D01*
X366754Y91344D01*
X366746Y91492D01*
X366744Y91640D01*
X366737Y91666D01*
X366736Y91692D01*
X366695Y91834D01*
X366659Y91978D01*
X366647Y92001D01*
X366639Y92027D01*
X366567Y92156D01*
X366499Y92288D01*
X366482Y92308D01*
X366469Y92331D01*
X366311Y92517D01*
X365725Y93102D01*
X364807Y95320D01*
X364807Y96584D01*
X364804Y96610D01*
X364806Y96636D01*
X364784Y96782D01*
X364767Y96930D01*
X364758Y96954D01*
X364754Y96980D01*
X364699Y97118D01*
X364649Y97258D01*
X364635Y97280D01*
X364625Y97304D01*
X364541Y97426D01*
X364460Y97551D01*
X364441Y97569D01*
X364427Y97590D01*
X364317Y97689D01*
X364210Y97793D01*
X364187Y97806D01*
X364168Y97824D01*
X364038Y97896D01*
X363911Y97972D01*
X363886Y97980D01*
X363863Y97992D01*
X363720Y98033D01*
X363579Y98078D01*
X363553Y98080D01*
X363527Y98087D01*
X363284Y98107D01*
X362020Y98107D01*
X359802Y99025D01*
X358105Y100722D01*
X357187Y102940D01*
X357187Y105231D01*
X357172Y105356D01*
X357166Y105483D01*
X357152Y105529D01*
X357147Y105577D01*
X357104Y105696D01*
X357069Y105817D01*
X357046Y105860D01*
X357029Y105905D01*
X356961Y106011D01*
X356899Y106122D01*
X356860Y106168D01*
X356840Y106198D01*
X356806Y106231D01*
X356741Y106308D01*
X314143Y148905D01*
X314044Y148984D01*
X313950Y149068D01*
X313908Y149092D01*
X313870Y149122D01*
X313756Y149176D01*
X313645Y149237D01*
X313599Y149250D01*
X313555Y149271D01*
X313432Y149297D01*
X313310Y149332D01*
X313249Y149337D01*
X313214Y149344D01*
X313166Y149343D01*
X313066Y149351D01*
X290837Y149351D01*
X288605Y151583D01*
X285042Y155146D01*
X284982Y155194D01*
X284929Y155249D01*
X284846Y155302D01*
X284769Y155363D01*
X284700Y155396D01*
X284636Y155437D01*
X284543Y155470D01*
X284454Y155512D01*
X284379Y155528D01*
X284307Y155554D01*
X284209Y155565D01*
X284113Y155585D01*
X284037Y155584D01*
X283961Y155593D01*
X283863Y155581D01*
X283765Y155579D01*
X283691Y155561D01*
X283615Y155552D01*
X283473Y155506D01*
X283427Y155494D01*
X283410Y155486D01*
X283382Y155477D01*
X281472Y154685D01*
X277328Y154685D01*
X273500Y156271D01*
X270571Y159200D01*
X268985Y163028D01*
X268985Y167172D01*
X270571Y170999D01*
X272230Y172659D01*
X272293Y172738D01*
X272362Y172810D01*
X272401Y172874D01*
X272447Y172932D01*
X272490Y173023D01*
X272541Y173109D01*
X272564Y173180D01*
X272596Y173247D01*
X272617Y173345D01*
X272648Y173441D01*
X272654Y173515D01*
X272669Y173588D01*
X272667Y173688D01*
X272676Y173788D01*
X272664Y173862D01*
X272663Y173936D01*
X272639Y174033D01*
X272624Y174133D01*
X272596Y174202D01*
X272578Y174274D01*
X272532Y174363D01*
X272495Y174457D01*
X272453Y174518D01*
X272419Y174584D01*
X272353Y174660D01*
X272296Y174743D01*
X272241Y174793D01*
X272193Y174849D01*
X272112Y174909D01*
X272037Y174976D01*
X271972Y175012D01*
X271912Y175057D01*
X271820Y175096D01*
X271732Y175145D01*
X271661Y175165D01*
X271592Y175195D01*
X271494Y175212D01*
X271397Y175240D01*
X271297Y175248D01*
X271249Y175256D01*
X271214Y175254D01*
X271153Y175259D01*
X262247Y175259D01*
X262147Y175248D01*
X262047Y175246D01*
X261974Y175228D01*
X261901Y175219D01*
X261806Y175186D01*
X261709Y175161D01*
X261643Y175127D01*
X261573Y175102D01*
X261488Y175047D01*
X261399Y175001D01*
X261342Y174953D01*
X261280Y174913D01*
X261210Y174841D01*
X261133Y174776D01*
X261089Y174716D01*
X261038Y174662D01*
X260986Y174576D01*
X260926Y174495D01*
X260897Y174427D01*
X260859Y174363D01*
X260828Y174267D01*
X260788Y174175D01*
X260775Y174102D01*
X260752Y174031D01*
X260744Y173931D01*
X260727Y173832D01*
X260730Y173758D01*
X260724Y173684D01*
X260739Y173584D01*
X260745Y173484D01*
X260765Y173413D01*
X260776Y173339D01*
X260813Y173246D01*
X260841Y173149D01*
X260877Y173084D01*
X260905Y173015D01*
X260962Y172933D01*
X261011Y172845D01*
X261076Y172769D01*
X261104Y172729D01*
X261130Y172705D01*
X261170Y172659D01*
X262829Y170999D01*
X264415Y167172D01*
X264415Y163028D01*
X263729Y161372D01*
X263708Y161298D01*
X263677Y161228D01*
X263660Y161132D01*
X263633Y161037D01*
X263629Y160960D01*
X263616Y160885D01*
X263621Y160787D01*
X263616Y160689D01*
X263630Y160613D01*
X263634Y160537D01*
X263661Y160443D01*
X263679Y160346D01*
X263709Y160276D01*
X263730Y160202D01*
X263778Y160116D01*
X263817Y160026D01*
X263863Y159965D01*
X263900Y159898D01*
X263997Y159784D01*
X264025Y159747D01*
X264040Y159734D01*
X264059Y159712D01*
X285402Y138369D01*
X285501Y138290D01*
X285595Y138206D01*
X285637Y138182D01*
X285675Y138152D01*
X285789Y138098D01*
X285900Y138037D01*
X285946Y138024D01*
X285990Y138003D01*
X286113Y137977D01*
X286235Y137942D01*
X286296Y137937D01*
X286331Y137930D01*
X286379Y137931D01*
X286479Y137923D01*
X305931Y137923D01*
X306056Y137937D01*
X306183Y137944D01*
X306229Y137957D01*
X306277Y137963D01*
X306396Y138005D01*
X306518Y138040D01*
X306560Y138064D01*
X306605Y138080D01*
X306711Y138149D01*
X306822Y138210D01*
X306868Y138250D01*
X306898Y138269D01*
X306932Y138304D01*
X307008Y138369D01*
X308751Y140112D01*
X311131Y141098D01*
X313709Y141098D01*
X316089Y140112D01*
X317912Y138289D01*
X318898Y135909D01*
X318898Y133331D01*
X317912Y130951D01*
X316089Y129128D01*
X313709Y128142D01*
X311131Y128142D01*
X308751Y129128D01*
X307008Y130871D01*
X306909Y130950D01*
X306815Y131034D01*
X306773Y131058D01*
X306735Y131088D01*
X306621Y131142D01*
X306510Y131203D01*
X306464Y131216D01*
X306420Y131237D01*
X306296Y131263D01*
X306175Y131298D01*
X306114Y131303D01*
X306079Y131310D01*
X306031Y131309D01*
X305931Y131317D01*
X283112Y131317D01*
X259388Y155041D01*
X259328Y155089D01*
X259275Y155143D01*
X259192Y155197D01*
X259115Y155258D01*
X259046Y155290D01*
X258982Y155332D01*
X258889Y155365D01*
X258800Y155407D01*
X258725Y155423D01*
X258653Y155448D01*
X258555Y155459D01*
X258459Y155480D01*
X258383Y155479D01*
X258307Y155487D01*
X258209Y155476D01*
X258111Y155474D01*
X258037Y155456D01*
X257961Y155447D01*
X257818Y155401D01*
X257773Y155389D01*
X257756Y155380D01*
X257728Y155371D01*
X256072Y154685D01*
X251928Y154685D01*
X248100Y156271D01*
X245171Y159200D01*
X243585Y163028D01*
X243585Y167172D01*
X245171Y170999D01*
X246830Y172659D01*
X246893Y172738D01*
X246962Y172810D01*
X247001Y172874D01*
X247047Y172932D01*
X247090Y173023D01*
X247141Y173109D01*
X247164Y173180D01*
X247196Y173247D01*
X247217Y173345D01*
X247248Y173441D01*
X247254Y173515D01*
X247269Y173588D01*
X247267Y173688D01*
X247276Y173788D01*
X247264Y173862D01*
X247263Y173936D01*
X247239Y174033D01*
X247224Y174133D01*
X247196Y174202D01*
X247178Y174274D01*
X247132Y174363D01*
X247095Y174457D01*
X247053Y174518D01*
X247019Y174584D01*
X246953Y174660D01*
X246896Y174743D01*
X246841Y174793D01*
X246793Y174849D01*
X246712Y174909D01*
X246637Y174976D01*
X246572Y175012D01*
X246512Y175057D01*
X246420Y175096D01*
X246332Y175145D01*
X246261Y175165D01*
X246192Y175195D01*
X246094Y175212D01*
X245997Y175240D01*
X245897Y175248D01*
X245849Y175256D01*
X245814Y175254D01*
X245753Y175259D01*
X236847Y175259D01*
X236747Y175248D01*
X236647Y175246D01*
X236574Y175228D01*
X236501Y175219D01*
X236406Y175186D01*
X236309Y175161D01*
X236243Y175127D01*
X236173Y175102D01*
X236088Y175047D01*
X235999Y175001D01*
X235942Y174953D01*
X235880Y174913D01*
X235810Y174841D01*
X235733Y174776D01*
X235689Y174716D01*
X235638Y174662D01*
X235586Y174576D01*
X235526Y174495D01*
X235497Y174427D01*
X235459Y174363D01*
X235428Y174267D01*
X235388Y174175D01*
X235375Y174102D01*
X235352Y174031D01*
X235344Y173931D01*
X235327Y173832D01*
X235330Y173758D01*
X235324Y173684D01*
X235339Y173584D01*
X235345Y173484D01*
X235365Y173413D01*
X235376Y173339D01*
X235413Y173246D01*
X235441Y173149D01*
X235477Y173084D01*
X235505Y173015D01*
X235562Y172933D01*
X235611Y172845D01*
X235676Y172769D01*
X235704Y172729D01*
X235730Y172705D01*
X235770Y172659D01*
X237429Y170999D01*
X239015Y167172D01*
X239015Y163028D01*
X237429Y159201D01*
X236532Y158303D01*
X236469Y158224D01*
X236400Y158152D01*
X236361Y158088D01*
X236315Y158030D01*
X236272Y157939D01*
X236221Y157853D01*
X236198Y157782D01*
X236166Y157715D01*
X236145Y157617D01*
X236114Y157521D01*
X236108Y157447D01*
X236093Y157374D01*
X236095Y157274D01*
X236086Y157174D01*
X236098Y157100D01*
X236099Y157026D01*
X236123Y156929D01*
X236138Y156829D01*
X236166Y156760D01*
X236184Y156688D01*
X236230Y156599D01*
X236267Y156505D01*
X236309Y156444D01*
X236343Y156378D01*
X236409Y156302D01*
X236466Y156219D01*
X236521Y156169D01*
X236569Y156113D01*
X236650Y156053D01*
X236725Y155986D01*
X236790Y155950D01*
X236850Y155905D01*
X236942Y155866D01*
X237030Y155817D01*
X237101Y155797D01*
X237170Y155767D01*
X237268Y155750D01*
X237365Y155722D01*
X237465Y155714D01*
X237513Y155706D01*
X237548Y155708D01*
X237609Y155703D01*
X241398Y155703D01*
X274607Y122494D01*
X274706Y122415D01*
X274800Y122331D01*
X274842Y122307D01*
X274880Y122277D01*
X274994Y122223D01*
X275105Y122162D01*
X275151Y122149D01*
X275195Y122128D01*
X275318Y122102D01*
X275440Y122067D01*
X275501Y122062D01*
X275536Y122055D01*
X275584Y122056D01*
X275684Y122048D01*
X278149Y122048D01*
X280529Y121062D01*
X282352Y119239D01*
X283338Y116859D01*
X283338Y114281D01*
X282352Y111901D01*
X282018Y111567D01*
X282002Y111547D01*
X281982Y111530D01*
X281893Y111410D01*
X281801Y111294D01*
X281790Y111270D01*
X281775Y111249D01*
X281716Y111113D01*
X281652Y110979D01*
X281647Y110953D01*
X281637Y110929D01*
X281610Y110783D01*
X281579Y110638D01*
X281580Y110612D01*
X281575Y110586D01*
X281583Y110438D01*
X281585Y110290D01*
X281591Y110264D01*
X281593Y110238D01*
X281634Y110096D01*
X281670Y109952D01*
X281682Y109929D01*
X281689Y109903D01*
X281762Y109774D01*
X281830Y109642D01*
X281847Y109622D01*
X281860Y109599D01*
X282018Y109413D01*
X283622Y107809D01*
X284608Y105429D01*
X284608Y102852D01*
X284328Y102177D01*
X284321Y102152D01*
X284309Y102128D01*
X284273Y101984D01*
X284233Y101842D01*
X284231Y101816D01*
X284225Y101790D01*
X284223Y101642D01*
X284216Y101494D01*
X284220Y101468D01*
X284220Y101442D01*
X284252Y101297D01*
X284278Y101151D01*
X284289Y101127D01*
X284294Y101101D01*
X284358Y100968D01*
X284417Y100831D01*
X284433Y100810D01*
X284444Y100787D01*
X284536Y100671D01*
X284625Y100552D01*
X284645Y100535D01*
X284661Y100514D01*
X284778Y100422D01*
X284891Y100326D01*
X284914Y100314D01*
X284935Y100298D01*
X285153Y100187D01*
X286879Y99472D01*
X288702Y97649D01*
X289688Y95269D01*
X289688Y92691D01*
X288780Y90499D01*
X288738Y90354D01*
X288692Y90211D01*
X288691Y90187D01*
X288684Y90164D01*
X288677Y90013D01*
X288664Y89864D01*
X288668Y89840D01*
X288667Y89816D01*
X288694Y89668D01*
X288716Y89519D01*
X288725Y89497D01*
X288729Y89473D01*
X288789Y89335D01*
X288845Y89195D01*
X288859Y89175D01*
X288868Y89153D01*
X288958Y89032D01*
X289044Y88909D01*
X289062Y88893D01*
X289076Y88873D01*
X289191Y88776D01*
X289303Y88676D01*
X289324Y88664D01*
X289342Y88648D01*
X289476Y88580D01*
X289608Y88507D01*
X289631Y88501D01*
X289652Y88490D01*
X289798Y88453D01*
X289943Y88412D01*
X289972Y88410D01*
X289991Y88405D01*
X290038Y88405D01*
X290187Y88393D01*
X298548Y88393D01*
X310802Y76139D01*
X310901Y76060D01*
X310995Y75976D01*
X311037Y75952D01*
X311075Y75922D01*
X311189Y75868D01*
X311300Y75807D01*
X311346Y75794D01*
X311390Y75773D01*
X311513Y75747D01*
X311635Y75712D01*
X311696Y75707D01*
X311731Y75700D01*
X311779Y75701D01*
X311879Y75693D01*
X358376Y75693D01*
X358501Y75707D01*
G37*
G36*
X376813Y99774D02*
X376813Y99774D01*
X376961Y99776D01*
X376986Y99782D01*
X377012Y99784D01*
X377155Y99825D01*
X377298Y99861D01*
X377322Y99873D01*
X377347Y99880D01*
X377477Y99953D01*
X377608Y100021D01*
X377628Y100038D01*
X377651Y100051D01*
X377837Y100209D01*
X384924Y107296D01*
X384941Y107316D01*
X384961Y107333D01*
X385049Y107453D01*
X385141Y107569D01*
X385152Y107593D01*
X385168Y107614D01*
X385227Y107750D01*
X385290Y107884D01*
X385295Y107910D01*
X385306Y107934D01*
X385332Y108080D01*
X385363Y108225D01*
X385363Y108251D01*
X385367Y108277D01*
X385360Y108425D01*
X385357Y108573D01*
X385351Y108599D01*
X385350Y108625D01*
X385308Y108767D01*
X385272Y108911D01*
X385260Y108935D01*
X385253Y108960D01*
X385181Y109089D01*
X385113Y109221D01*
X385096Y109241D01*
X385083Y109264D01*
X384924Y109450D01*
X364489Y129885D01*
X364489Y144156D01*
X364475Y144282D01*
X364468Y144408D01*
X364455Y144454D01*
X364449Y144502D01*
X364407Y144621D01*
X364372Y144743D01*
X364348Y144785D01*
X364332Y144831D01*
X364263Y144937D01*
X364202Y145047D01*
X364162Y145093D01*
X364143Y145123D01*
X364108Y145157D01*
X364043Y145233D01*
X363165Y146111D01*
X363066Y146190D01*
X362972Y146274D01*
X362930Y146298D01*
X362892Y146328D01*
X362778Y146382D01*
X362667Y146443D01*
X362621Y146456D01*
X362577Y146477D01*
X362454Y146503D01*
X362332Y146538D01*
X362271Y146543D01*
X362236Y146550D01*
X362188Y146549D01*
X362088Y146557D01*
X347574Y146557D01*
X345226Y148905D01*
X345127Y148984D01*
X345033Y149068D01*
X344991Y149092D01*
X344953Y149122D01*
X344839Y149176D01*
X344728Y149237D01*
X344681Y149250D01*
X344638Y149271D01*
X344514Y149297D01*
X344393Y149332D01*
X344332Y149337D01*
X344297Y149344D01*
X344249Y149343D01*
X344149Y149351D01*
X325998Y149351D01*
X325898Y149340D01*
X325798Y149338D01*
X325725Y149320D01*
X325652Y149311D01*
X325557Y149278D01*
X325460Y149253D01*
X325393Y149219D01*
X325323Y149194D01*
X325239Y149139D01*
X325150Y149093D01*
X325093Y149045D01*
X325031Y149005D01*
X324961Y148933D01*
X324884Y148868D01*
X324840Y148808D01*
X324788Y148754D01*
X324737Y148668D01*
X324677Y148587D01*
X324648Y148519D01*
X324610Y148455D01*
X324579Y148359D01*
X324539Y148267D01*
X324526Y148194D01*
X324503Y148123D01*
X324495Y148023D01*
X324478Y147924D01*
X324481Y147850D01*
X324475Y147776D01*
X324490Y147676D01*
X324495Y147576D01*
X324516Y147505D01*
X324527Y147431D01*
X324564Y147338D01*
X324592Y147241D01*
X324628Y147176D01*
X324656Y147107D01*
X324713Y147025D01*
X324762Y146937D01*
X324827Y146861D01*
X324855Y146821D01*
X324881Y146797D01*
X324921Y146751D01*
X361052Y110619D01*
X361151Y110541D01*
X361245Y110456D01*
X361287Y110433D01*
X361325Y110403D01*
X361439Y110349D01*
X361550Y110288D01*
X361597Y110274D01*
X361640Y110254D01*
X361764Y110227D01*
X361886Y110193D01*
X361946Y110188D01*
X361981Y110180D01*
X362029Y110181D01*
X362129Y110173D01*
X364420Y110173D01*
X366638Y109255D01*
X368335Y107558D01*
X369253Y105340D01*
X369253Y104076D01*
X369256Y104050D01*
X369254Y104024D01*
X369276Y103878D01*
X369293Y103730D01*
X369302Y103706D01*
X369306Y103680D01*
X369361Y103542D01*
X369411Y103402D01*
X369425Y103380D01*
X369435Y103356D01*
X369519Y103234D01*
X369600Y103109D01*
X369619Y103091D01*
X369633Y103070D01*
X369743Y102971D01*
X369850Y102867D01*
X369873Y102854D01*
X369892Y102836D01*
X370022Y102764D01*
X370149Y102688D01*
X370174Y102680D01*
X370197Y102668D01*
X370340Y102627D01*
X370481Y102582D01*
X370507Y102580D01*
X370533Y102573D01*
X370776Y102553D01*
X372040Y102553D01*
X372220Y102479D01*
X372222Y102478D01*
X372224Y102477D01*
X372248Y102470D01*
X372282Y102453D01*
X374258Y101635D01*
X375683Y100209D01*
X375704Y100193D01*
X375721Y100173D01*
X375840Y100085D01*
X375956Y99992D01*
X375980Y99981D01*
X376001Y99966D01*
X376137Y99907D01*
X376271Y99843D01*
X376297Y99838D01*
X376321Y99828D01*
X376467Y99801D01*
X376612Y99770D01*
X376638Y99771D01*
X376664Y99766D01*
X376813Y99774D01*
G37*
%LPC*%
G36*
X54179Y57899D02*
X54179Y57899D01*
X54179Y64777D01*
X54306Y64757D01*
X55666Y64315D01*
X56939Y63667D01*
X58096Y62826D01*
X58232Y62690D01*
X58311Y62628D01*
X58383Y62558D01*
X58447Y62520D01*
X58505Y62474D01*
X58596Y62431D01*
X58682Y62379D01*
X58753Y62356D01*
X58820Y62325D01*
X58918Y62304D01*
X59014Y62273D01*
X59088Y62267D01*
X59161Y62251D01*
X59261Y62253D01*
X59361Y62245D01*
X59435Y62256D01*
X59509Y62257D01*
X59607Y62282D01*
X59706Y62297D01*
X59775Y62324D01*
X59847Y62342D01*
X59936Y62388D01*
X60030Y62425D01*
X60091Y62468D01*
X60157Y62502D01*
X60234Y62567D01*
X60316Y62624D01*
X60366Y62679D01*
X60422Y62728D01*
X60482Y62808D01*
X60549Y62883D01*
X60585Y62948D01*
X60629Y63008D01*
X60669Y63100D01*
X60718Y63188D01*
X60738Y63260D01*
X60768Y63328D01*
X60785Y63427D01*
X60813Y63523D01*
X60821Y63624D01*
X60829Y63671D01*
X60827Y63707D01*
X60832Y63767D01*
X60832Y64868D01*
X60818Y64994D01*
X60811Y65120D01*
X60798Y65167D01*
X60792Y65215D01*
X60750Y65334D01*
X60715Y65455D01*
X60691Y65497D01*
X60675Y65543D01*
X60606Y65649D01*
X60545Y65759D01*
X60505Y65805D01*
X60486Y65835D01*
X60451Y65869D01*
X60386Y65945D01*
X55625Y70706D01*
X55625Y100744D01*
X57508Y102627D01*
X57525Y102647D01*
X57545Y102664D01*
X57633Y102784D01*
X57725Y102900D01*
X57736Y102923D01*
X57752Y102945D01*
X57810Y103081D01*
X57874Y103215D01*
X57879Y103240D01*
X57890Y103265D01*
X57916Y103411D01*
X57947Y103555D01*
X57947Y103582D01*
X57951Y103608D01*
X57944Y103756D01*
X57941Y103904D01*
X57935Y103929D01*
X57933Y103956D01*
X57892Y104098D01*
X57856Y104242D01*
X57844Y104265D01*
X57837Y104290D01*
X57765Y104420D01*
X57697Y104552D01*
X57680Y104572D01*
X57667Y104595D01*
X57508Y104781D01*
X56738Y105551D01*
X55752Y107931D01*
X55752Y110509D01*
X55936Y110953D01*
X55963Y111045D01*
X55998Y111134D01*
X56010Y111212D01*
X56032Y111288D01*
X56037Y111384D01*
X56051Y111478D01*
X56045Y111557D01*
X56049Y111636D01*
X56032Y111730D01*
X56025Y111826D01*
X56001Y111901D01*
X55986Y111979D01*
X55948Y112067D01*
X55920Y112158D01*
X55879Y112226D01*
X55848Y112299D01*
X55791Y112375D01*
X55742Y112458D01*
X55687Y112515D01*
X55640Y112578D01*
X55567Y112640D01*
X55501Y112709D01*
X55434Y112752D01*
X55374Y112804D01*
X55288Y112847D01*
X55208Y112899D01*
X55134Y112926D01*
X55063Y112962D01*
X54971Y112985D01*
X54881Y113018D01*
X54802Y113027D01*
X54725Y113046D01*
X54630Y113048D01*
X54535Y113059D01*
X54426Y113051D01*
X54377Y113052D01*
X54345Y113045D01*
X54291Y113040D01*
X54179Y113023D01*
X54179Y119901D01*
X61057Y119901D01*
X61037Y119774D01*
X60595Y118414D01*
X60340Y117913D01*
X60327Y117879D01*
X60309Y117848D01*
X60267Y117716D01*
X60218Y117586D01*
X60214Y117550D01*
X60203Y117516D01*
X60192Y117378D01*
X60174Y117240D01*
X60178Y117205D01*
X60175Y117169D01*
X60195Y117032D01*
X60209Y116894D01*
X60221Y116860D01*
X60226Y116824D01*
X60278Y116695D01*
X60323Y116564D01*
X60342Y116534D01*
X60355Y116500D01*
X60434Y116386D01*
X60508Y116269D01*
X60534Y116244D01*
X60554Y116214D01*
X60657Y116121D01*
X60756Y116024D01*
X60786Y116005D01*
X60813Y115981D01*
X60934Y115914D01*
X61052Y115841D01*
X61086Y115829D01*
X61118Y115812D01*
X61251Y115774D01*
X61383Y115730D01*
X61419Y115727D01*
X61453Y115717D01*
X61697Y115698D01*
X63518Y115698D01*
X64992Y115087D01*
X65090Y115059D01*
X65185Y115022D01*
X65257Y115012D01*
X65327Y114992D01*
X65429Y114987D01*
X65530Y114972D01*
X65602Y114978D01*
X65675Y114975D01*
X65775Y114993D01*
X65877Y115002D01*
X65946Y115024D01*
X66018Y115037D01*
X66111Y115078D01*
X66208Y115110D01*
X66271Y115147D01*
X66337Y115176D01*
X66419Y115237D01*
X66507Y115290D01*
X66559Y115341D01*
X66617Y115384D01*
X66683Y115462D01*
X66756Y115533D01*
X66795Y115595D01*
X66842Y115650D01*
X66889Y115741D01*
X66944Y115827D01*
X66968Y115896D01*
X67001Y115960D01*
X67026Y116059D01*
X67060Y116156D01*
X67068Y116228D01*
X67070Y116238D01*
X67076Y116257D01*
X67076Y116261D01*
X67085Y116299D01*
X67087Y116394D01*
X67088Y116416D01*
X67098Y116502D01*
X67095Y116524D01*
X67095Y119416D01*
X68095Y121829D01*
X69941Y123675D01*
X72354Y124675D01*
X74966Y124675D01*
X77379Y123675D01*
X79225Y121829D01*
X80225Y119416D01*
X80225Y116804D01*
X79225Y114391D01*
X77409Y112575D01*
X77330Y112476D01*
X77246Y112382D01*
X77222Y112340D01*
X77192Y112302D01*
X77138Y112188D01*
X77077Y112077D01*
X77064Y112030D01*
X77043Y111987D01*
X77017Y111863D01*
X76982Y111742D01*
X76977Y111681D01*
X76970Y111646D01*
X76971Y111598D01*
X76963Y111498D01*
X76963Y101502D01*
X72329Y96868D01*
X72250Y96769D01*
X72166Y96675D01*
X72142Y96633D01*
X72112Y96595D01*
X72058Y96481D01*
X71997Y96370D01*
X71984Y96324D01*
X71963Y96280D01*
X71937Y96157D01*
X71902Y96035D01*
X71897Y95974D01*
X71890Y95939D01*
X71891Y95891D01*
X71883Y95791D01*
X71883Y92972D01*
X71897Y92847D01*
X71904Y92720D01*
X71917Y92674D01*
X71923Y92626D01*
X71965Y92507D01*
X72000Y92386D01*
X72024Y92343D01*
X72040Y92298D01*
X72109Y92192D01*
X72170Y92081D01*
X72210Y92035D01*
X72229Y92005D01*
X72264Y91972D01*
X72329Y91895D01*
X74145Y90079D01*
X75145Y87666D01*
X75145Y85054D01*
X74145Y82641D01*
X72299Y80795D01*
X69886Y79795D01*
X67274Y79795D01*
X65861Y80381D01*
X65716Y80422D01*
X65573Y80468D01*
X65549Y80470D01*
X65526Y80476D01*
X65375Y80484D01*
X65226Y80496D01*
X65202Y80492D01*
X65178Y80493D01*
X65030Y80466D01*
X64881Y80444D01*
X64859Y80435D01*
X64835Y80431D01*
X64697Y80371D01*
X64557Y80315D01*
X64537Y80302D01*
X64515Y80292D01*
X64394Y80202D01*
X64271Y80116D01*
X64255Y80098D01*
X64235Y80084D01*
X64138Y79969D01*
X64038Y79858D01*
X64026Y79836D01*
X64010Y79818D01*
X63942Y79684D01*
X63869Y79553D01*
X63863Y79529D01*
X63852Y79508D01*
X63815Y79362D01*
X63774Y79217D01*
X63772Y79188D01*
X63767Y79170D01*
X63767Y79123D01*
X63755Y78973D01*
X63755Y74705D01*
X63769Y74579D01*
X63776Y74453D01*
X63789Y74406D01*
X63795Y74358D01*
X63837Y74239D01*
X63872Y74118D01*
X63896Y74076D01*
X63912Y74030D01*
X63981Y73924D01*
X64042Y73814D01*
X64082Y73768D01*
X64101Y73738D01*
X64136Y73704D01*
X64201Y73628D01*
X66135Y71694D01*
X66234Y71615D01*
X66327Y71531D01*
X66370Y71507D01*
X66408Y71477D01*
X66522Y71423D01*
X66632Y71362D01*
X66679Y71349D01*
X66723Y71328D01*
X66846Y71302D01*
X66968Y71267D01*
X67029Y71262D01*
X67063Y71255D01*
X67111Y71256D01*
X67212Y71248D01*
X68599Y71248D01*
X70979Y70262D01*
X72802Y68439D01*
X73788Y66059D01*
X73788Y63481D01*
X72802Y61101D01*
X70979Y59278D01*
X68599Y58292D01*
X66021Y58292D01*
X63641Y59278D01*
X63627Y59293D01*
X63591Y59321D01*
X63560Y59355D01*
X63455Y59429D01*
X63354Y59509D01*
X63312Y59529D01*
X63275Y59555D01*
X63155Y59603D01*
X63038Y59658D01*
X62994Y59668D01*
X62952Y59685D01*
X62824Y59704D01*
X62698Y59731D01*
X62652Y59731D01*
X62607Y59738D01*
X62478Y59728D01*
X62349Y59725D01*
X62305Y59714D01*
X62260Y59711D01*
X62137Y59672D01*
X62011Y59640D01*
X61971Y59620D01*
X61927Y59606D01*
X61817Y59540D01*
X61701Y59481D01*
X61667Y59451D01*
X61628Y59428D01*
X61534Y59339D01*
X61436Y59255D01*
X61409Y59218D01*
X61376Y59187D01*
X61306Y59079D01*
X61229Y58975D01*
X61211Y58933D01*
X61186Y58895D01*
X61142Y58773D01*
X61091Y58655D01*
X61083Y58610D01*
X61067Y58567D01*
X61052Y58439D01*
X61029Y58312D01*
X61032Y58266D01*
X61026Y58221D01*
X61045Y57977D01*
X61057Y57899D01*
X54179Y57899D01*
G37*
%LPD*%
%LPC*%
G36*
X11345Y37859D02*
X11345Y37859D01*
X10699Y38032D01*
X10120Y38367D01*
X9647Y38840D01*
X9312Y39419D01*
X9139Y40065D01*
X9139Y50651D01*
X13494Y50651D01*
X13599Y50663D01*
X13705Y50665D01*
X13772Y50683D01*
X13840Y50691D01*
X13940Y50726D01*
X14042Y50753D01*
X14103Y50785D01*
X14168Y50808D01*
X14257Y50866D01*
X14351Y50915D01*
X14403Y50960D01*
X14461Y50997D01*
X14534Y51073D01*
X14615Y51143D01*
X14655Y51198D01*
X14703Y51248D01*
X14757Y51339D01*
X14820Y51425D01*
X14847Y51488D01*
X14882Y51547D01*
X14914Y51648D01*
X14955Y51746D01*
X14974Y51835D01*
X14988Y51879D01*
X14991Y51918D01*
X15005Y51985D01*
X15096Y52711D01*
X15097Y52778D01*
X15107Y52845D01*
X15099Y53021D01*
X15099Y53060D01*
X15097Y53071D01*
X15096Y53089D01*
X15005Y53815D01*
X14980Y53918D01*
X14964Y54023D01*
X14939Y54087D01*
X14923Y54154D01*
X14875Y54248D01*
X14836Y54347D01*
X14796Y54403D01*
X14765Y54465D01*
X14697Y54546D01*
X14637Y54633D01*
X14586Y54679D01*
X14541Y54732D01*
X14457Y54795D01*
X14378Y54866D01*
X14318Y54900D01*
X14263Y54941D01*
X14166Y54984D01*
X14073Y55035D01*
X14007Y55054D01*
X13944Y55081D01*
X13839Y55101D01*
X13737Y55130D01*
X13647Y55137D01*
X13601Y55145D01*
X13562Y55144D01*
X13494Y55149D01*
X9139Y55149D01*
X9139Y65735D01*
X9312Y66381D01*
X9647Y66960D01*
X10120Y67433D01*
X10699Y67768D01*
X11345Y67941D01*
X21931Y67941D01*
X21931Y61464D01*
X21934Y61438D01*
X21932Y61412D01*
X21954Y61265D01*
X21971Y61118D01*
X21979Y61093D01*
X21983Y61067D01*
X22038Y60929D01*
X22088Y60790D01*
X22102Y60768D01*
X22112Y60743D01*
X22197Y60622D01*
X22277Y60497D01*
X22296Y60479D01*
X22311Y60457D01*
X22421Y60358D01*
X22528Y60255D01*
X22550Y60241D01*
X22570Y60224D01*
X22700Y60152D01*
X22827Y60076D01*
X22852Y60068D01*
X22875Y60055D01*
X23018Y60015D01*
X23159Y59970D01*
X23185Y59968D01*
X23210Y59960D01*
X23454Y59941D01*
X24906Y59941D01*
X24932Y59944D01*
X24958Y59942D01*
X25105Y59964D01*
X25252Y59981D01*
X25277Y59989D01*
X25303Y59993D01*
X25441Y60048D01*
X25580Y60098D01*
X25602Y60112D01*
X25627Y60122D01*
X25748Y60207D01*
X25873Y60287D01*
X25891Y60306D01*
X25913Y60321D01*
X26012Y60431D01*
X26115Y60538D01*
X26129Y60560D01*
X26146Y60580D01*
X26218Y60710D01*
X26294Y60837D01*
X26302Y60862D01*
X26315Y60885D01*
X26355Y61028D01*
X26400Y61169D01*
X26402Y61195D01*
X26410Y61220D01*
X26429Y61464D01*
X26429Y67941D01*
X35616Y67941D01*
X35642Y67944D01*
X35668Y67942D01*
X35815Y67964D01*
X35962Y67981D01*
X35987Y67989D01*
X36013Y67993D01*
X36151Y68048D01*
X36290Y68098D01*
X36312Y68112D01*
X36337Y68122D01*
X36458Y68207D01*
X36583Y68287D01*
X36601Y68306D01*
X36623Y68321D01*
X36722Y68431D01*
X36825Y68538D01*
X36839Y68560D01*
X36856Y68580D01*
X36928Y68710D01*
X37004Y68837D01*
X37012Y68862D01*
X37025Y68885D01*
X37065Y69028D01*
X37110Y69169D01*
X37112Y69195D01*
X37120Y69220D01*
X37139Y69464D01*
X37139Y70602D01*
X38059Y72822D01*
X39758Y74521D01*
X41978Y75441D01*
X44382Y75441D01*
X46602Y74521D01*
X48301Y72822D01*
X49221Y70602D01*
X49221Y68198D01*
X48678Y66887D01*
X48651Y66795D01*
X48616Y66707D01*
X48604Y66628D01*
X48582Y66552D01*
X48577Y66457D01*
X48563Y66362D01*
X48569Y66283D01*
X48565Y66204D01*
X48582Y66110D01*
X48589Y66015D01*
X48613Y65939D01*
X48628Y65861D01*
X48666Y65773D01*
X48694Y65682D01*
X48735Y65614D01*
X48766Y65542D01*
X48824Y65465D01*
X48872Y65383D01*
X48927Y65325D01*
X48974Y65262D01*
X49047Y65200D01*
X49114Y65131D01*
X49180Y65088D01*
X49240Y65037D01*
X49325Y64993D01*
X49406Y64941D01*
X49480Y64914D01*
X49551Y64878D01*
X49643Y64855D01*
X49733Y64822D01*
X49812Y64813D01*
X49889Y64794D01*
X49984Y64792D01*
X50079Y64781D01*
X50181Y64789D01*
X50181Y57899D01*
X43303Y57899D01*
X43323Y58026D01*
X43765Y59386D01*
X44413Y60659D01*
X44618Y60941D01*
X44694Y61076D01*
X44774Y61209D01*
X44780Y61227D01*
X44789Y61244D01*
X44833Y61393D01*
X44880Y61541D01*
X44881Y61560D01*
X44887Y61579D01*
X44895Y61734D01*
X44908Y61888D01*
X44905Y61907D01*
X44906Y61927D01*
X44879Y62080D01*
X44856Y62233D01*
X44849Y62251D01*
X44846Y62270D01*
X44785Y62413D01*
X44727Y62557D01*
X44716Y62573D01*
X44709Y62590D01*
X44617Y62716D01*
X44529Y62843D01*
X44514Y62856D01*
X44503Y62871D01*
X44385Y62973D01*
X44270Y63076D01*
X44253Y63086D01*
X44238Y63098D01*
X44100Y63170D01*
X43965Y63245D01*
X43946Y63250D01*
X43929Y63259D01*
X43779Y63297D01*
X43629Y63340D01*
X43606Y63342D01*
X43591Y63345D01*
X43548Y63346D01*
X43386Y63359D01*
X41978Y63359D01*
X41327Y63629D01*
X41182Y63670D01*
X41039Y63716D01*
X41015Y63718D01*
X40992Y63725D01*
X40841Y63732D01*
X40692Y63744D01*
X40668Y63741D01*
X40644Y63742D01*
X40496Y63715D01*
X40347Y63692D01*
X40325Y63684D01*
X40301Y63679D01*
X40163Y63619D01*
X40023Y63564D01*
X40003Y63550D01*
X39981Y63540D01*
X39860Y63450D01*
X39737Y63365D01*
X39721Y63347D01*
X39701Y63332D01*
X39604Y63217D01*
X39504Y63106D01*
X39492Y63085D01*
X39476Y63066D01*
X39408Y62933D01*
X39335Y62801D01*
X39329Y62778D01*
X39318Y62756D01*
X39281Y62611D01*
X39240Y62466D01*
X39238Y62436D01*
X39233Y62418D01*
X39233Y62371D01*
X39221Y62222D01*
X39221Y55149D01*
X34866Y55149D01*
X34761Y55137D01*
X34655Y55135D01*
X34588Y55117D01*
X34520Y55109D01*
X34420Y55074D01*
X34318Y55047D01*
X34257Y55015D01*
X34192Y54992D01*
X34103Y54934D01*
X34009Y54885D01*
X33957Y54840D01*
X33899Y54803D01*
X33826Y54727D01*
X33745Y54657D01*
X33705Y54602D01*
X33657Y54552D01*
X33603Y54461D01*
X33540Y54375D01*
X33513Y54312D01*
X33478Y54253D01*
X33446Y54152D01*
X33405Y54054D01*
X33386Y53965D01*
X33372Y53921D01*
X33369Y53882D01*
X33355Y53815D01*
X33264Y53089D01*
X33263Y53022D01*
X33253Y52955D01*
X33261Y52779D01*
X33261Y52740D01*
X33263Y52729D01*
X33264Y52711D01*
X33355Y51985D01*
X33380Y51882D01*
X33396Y51777D01*
X33421Y51713D01*
X33437Y51646D01*
X33485Y51552D01*
X33524Y51453D01*
X33564Y51397D01*
X33595Y51335D01*
X33663Y51254D01*
X33723Y51167D01*
X33774Y51121D01*
X33819Y51068D01*
X33903Y51005D01*
X33982Y50934D01*
X34042Y50900D01*
X34097Y50859D01*
X34194Y50816D01*
X34287Y50765D01*
X34353Y50746D01*
X34416Y50719D01*
X34520Y50699D01*
X34623Y50670D01*
X34713Y50663D01*
X34759Y50655D01*
X34798Y50656D01*
X34866Y50651D01*
X39221Y50651D01*
X39221Y40065D01*
X39048Y39419D01*
X38713Y38840D01*
X38240Y38367D01*
X37661Y38032D01*
X37015Y37859D01*
X26429Y37859D01*
X26429Y44336D01*
X26426Y44362D01*
X26428Y44388D01*
X26406Y44535D01*
X26389Y44682D01*
X26381Y44707D01*
X26377Y44733D01*
X26322Y44871D01*
X26272Y45010D01*
X26258Y45032D01*
X26248Y45057D01*
X26163Y45178D01*
X26083Y45303D01*
X26064Y45321D01*
X26049Y45343D01*
X25939Y45442D01*
X25832Y45545D01*
X25810Y45559D01*
X25790Y45576D01*
X25660Y45648D01*
X25533Y45724D01*
X25508Y45732D01*
X25485Y45745D01*
X25342Y45785D01*
X25201Y45830D01*
X25175Y45832D01*
X25150Y45840D01*
X24906Y45859D01*
X23454Y45859D01*
X23428Y45856D01*
X23402Y45858D01*
X23255Y45836D01*
X23108Y45819D01*
X23083Y45811D01*
X23057Y45807D01*
X22919Y45752D01*
X22780Y45702D01*
X22758Y45688D01*
X22733Y45678D01*
X22612Y45593D01*
X22487Y45513D01*
X22469Y45494D01*
X22447Y45479D01*
X22348Y45369D01*
X22245Y45262D01*
X22231Y45240D01*
X22214Y45220D01*
X22142Y45090D01*
X22066Y44963D01*
X22058Y44938D01*
X22045Y44915D01*
X22005Y44772D01*
X21960Y44631D01*
X21957Y44605D01*
X21950Y44580D01*
X21931Y44336D01*
X21931Y37859D01*
X11345Y37859D01*
G37*
%LPD*%
%LPC*%
G36*
X41978Y102359D02*
X41978Y102359D01*
X39758Y103279D01*
X38059Y104978D01*
X37139Y107198D01*
X37139Y108336D01*
X37136Y108362D01*
X37138Y108388D01*
X37116Y108535D01*
X37099Y108682D01*
X37091Y108707D01*
X37087Y108733D01*
X37032Y108871D01*
X36982Y109010D01*
X36968Y109032D01*
X36958Y109057D01*
X36873Y109178D01*
X36793Y109303D01*
X36774Y109321D01*
X36759Y109343D01*
X36649Y109442D01*
X36542Y109545D01*
X36520Y109559D01*
X36500Y109576D01*
X36370Y109648D01*
X36243Y109724D01*
X36218Y109732D01*
X36195Y109745D01*
X36052Y109785D01*
X35911Y109830D01*
X35885Y109832D01*
X35860Y109840D01*
X35616Y109859D01*
X26429Y109859D01*
X26429Y116336D01*
X26426Y116362D01*
X26428Y116388D01*
X26406Y116535D01*
X26389Y116682D01*
X26381Y116707D01*
X26377Y116733D01*
X26322Y116871D01*
X26272Y117010D01*
X26258Y117032D01*
X26248Y117057D01*
X26163Y117178D01*
X26083Y117303D01*
X26064Y117321D01*
X26049Y117343D01*
X25939Y117442D01*
X25832Y117545D01*
X25810Y117559D01*
X25790Y117576D01*
X25660Y117648D01*
X25533Y117724D01*
X25508Y117732D01*
X25485Y117745D01*
X25342Y117785D01*
X25201Y117830D01*
X25175Y117832D01*
X25150Y117840D01*
X24906Y117859D01*
X23454Y117859D01*
X23428Y117856D01*
X23402Y117858D01*
X23255Y117836D01*
X23108Y117819D01*
X23083Y117811D01*
X23057Y117807D01*
X22919Y117752D01*
X22780Y117702D01*
X22758Y117688D01*
X22733Y117678D01*
X22612Y117593D01*
X22487Y117513D01*
X22469Y117494D01*
X22447Y117479D01*
X22348Y117369D01*
X22245Y117262D01*
X22231Y117240D01*
X22214Y117220D01*
X22142Y117090D01*
X22066Y116963D01*
X22058Y116938D01*
X22045Y116915D01*
X22005Y116772D01*
X21960Y116631D01*
X21957Y116605D01*
X21950Y116580D01*
X21931Y116336D01*
X21931Y109859D01*
X11345Y109859D01*
X10699Y110032D01*
X10120Y110367D01*
X9647Y110840D01*
X9312Y111419D01*
X9139Y112065D01*
X9139Y122651D01*
X13589Y122651D01*
X13665Y122659D01*
X13742Y122658D01*
X13838Y122679D01*
X13935Y122691D01*
X14007Y122716D01*
X14082Y122733D01*
X14171Y122775D01*
X14263Y122808D01*
X14328Y122850D01*
X14397Y122883D01*
X14473Y122944D01*
X14556Y122997D01*
X14609Y123052D01*
X14669Y123100D01*
X14730Y123177D01*
X14798Y123248D01*
X14838Y123314D01*
X14885Y123374D01*
X14927Y123463D01*
X14977Y123547D01*
X15000Y123620D01*
X15033Y123690D01*
X15053Y123786D01*
X15083Y123879D01*
X15089Y123955D01*
X15105Y124031D01*
X15107Y124179D01*
X15111Y124226D01*
X15108Y124245D01*
X15109Y124275D01*
X15092Y124524D01*
X15087Y124549D01*
X15088Y124575D01*
X15056Y124721D01*
X15055Y124725D01*
X15060Y124799D01*
X15058Y124844D01*
X15060Y125001D01*
X15057Y125042D01*
X15092Y125275D01*
X15109Y125525D01*
X15105Y125602D01*
X15111Y125678D01*
X15097Y125775D01*
X15092Y125873D01*
X15071Y125947D01*
X15059Y126023D01*
X15023Y126114D01*
X14996Y126208D01*
X14959Y126275D01*
X14931Y126347D01*
X14875Y126427D01*
X14827Y126513D01*
X14776Y126570D01*
X14732Y126633D01*
X14659Y126698D01*
X14593Y126771D01*
X14530Y126815D01*
X14473Y126866D01*
X14387Y126914D01*
X14307Y126969D01*
X14235Y126998D01*
X14168Y127035D01*
X14074Y127061D01*
X13983Y127097D01*
X13907Y127109D01*
X13833Y127130D01*
X13685Y127142D01*
X13638Y127148D01*
X13618Y127147D01*
X13589Y127149D01*
X9139Y127149D01*
X9139Y137735D01*
X9312Y138381D01*
X9647Y138960D01*
X10120Y139433D01*
X10699Y139768D01*
X11345Y139941D01*
X21931Y139941D01*
X21931Y133464D01*
X21934Y133438D01*
X21932Y133412D01*
X21954Y133265D01*
X21971Y133118D01*
X21979Y133093D01*
X21983Y133067D01*
X22038Y132929D01*
X22088Y132790D01*
X22102Y132768D01*
X22112Y132743D01*
X22197Y132622D01*
X22277Y132497D01*
X22296Y132479D01*
X22311Y132457D01*
X22421Y132358D01*
X22528Y132255D01*
X22550Y132241D01*
X22570Y132224D01*
X22700Y132152D01*
X22827Y132076D01*
X22852Y132068D01*
X22875Y132055D01*
X23018Y132015D01*
X23159Y131970D01*
X23185Y131968D01*
X23210Y131960D01*
X23454Y131941D01*
X24906Y131941D01*
X24932Y131944D01*
X24958Y131942D01*
X25105Y131964D01*
X25252Y131981D01*
X25277Y131989D01*
X25303Y131993D01*
X25441Y132048D01*
X25580Y132098D01*
X25602Y132112D01*
X25627Y132122D01*
X25748Y132207D01*
X25873Y132287D01*
X25891Y132306D01*
X25913Y132321D01*
X26012Y132431D01*
X26115Y132538D01*
X26129Y132560D01*
X26146Y132580D01*
X26218Y132710D01*
X26294Y132837D01*
X26302Y132862D01*
X26315Y132885D01*
X26355Y133028D01*
X26400Y133169D01*
X26402Y133195D01*
X26410Y133220D01*
X26429Y133464D01*
X26429Y139941D01*
X37015Y139941D01*
X37661Y139768D01*
X38240Y139433D01*
X38713Y138960D01*
X39048Y138381D01*
X39221Y137735D01*
X39221Y127149D01*
X34744Y127149D01*
X34718Y127146D01*
X34692Y127148D01*
X34545Y127126D01*
X34398Y127109D01*
X34373Y127101D01*
X34347Y127097D01*
X34209Y127042D01*
X34070Y126992D01*
X34048Y126978D01*
X34023Y126968D01*
X33902Y126883D01*
X33777Y126803D01*
X33759Y126784D01*
X33737Y126769D01*
X33638Y126659D01*
X33535Y126552D01*
X33521Y126530D01*
X33504Y126510D01*
X33432Y126380D01*
X33356Y126253D01*
X33348Y126228D01*
X33335Y126205D01*
X33295Y126062D01*
X33250Y125921D01*
X33248Y125895D01*
X33240Y125870D01*
X33221Y125626D01*
X33221Y124174D01*
X33224Y124148D01*
X33222Y124122D01*
X33244Y123975D01*
X33261Y123828D01*
X33269Y123803D01*
X33273Y123777D01*
X33328Y123639D01*
X33378Y123500D01*
X33392Y123478D01*
X33402Y123453D01*
X33487Y123332D01*
X33567Y123207D01*
X33586Y123189D01*
X33601Y123167D01*
X33711Y123068D01*
X33818Y122965D01*
X33840Y122951D01*
X33860Y122934D01*
X33990Y122862D01*
X34117Y122786D01*
X34142Y122778D01*
X34165Y122765D01*
X34308Y122725D01*
X34449Y122680D01*
X34475Y122677D01*
X34500Y122670D01*
X34744Y122651D01*
X39221Y122651D01*
X39221Y115578D01*
X39238Y115429D01*
X39250Y115279D01*
X39258Y115256D01*
X39261Y115232D01*
X39311Y115091D01*
X39357Y114947D01*
X39370Y114927D01*
X39378Y114904D01*
X39459Y114778D01*
X39537Y114649D01*
X39554Y114631D01*
X39567Y114611D01*
X39675Y114507D01*
X39780Y114399D01*
X39800Y114386D01*
X39818Y114369D01*
X39947Y114292D01*
X40073Y114210D01*
X40096Y114202D01*
X40117Y114190D01*
X40260Y114144D01*
X40402Y114094D01*
X40426Y114091D01*
X40449Y114084D01*
X40598Y114072D01*
X40748Y114055D01*
X40772Y114058D01*
X40796Y114056D01*
X40945Y114078D01*
X41094Y114096D01*
X41122Y114105D01*
X41141Y114107D01*
X41185Y114125D01*
X41327Y114171D01*
X41978Y114441D01*
X43386Y114441D01*
X43540Y114458D01*
X43694Y114472D01*
X43713Y114478D01*
X43732Y114481D01*
X43878Y114533D01*
X44025Y114582D01*
X44042Y114592D01*
X44060Y114598D01*
X44190Y114682D01*
X44323Y114763D01*
X44336Y114777D01*
X44353Y114787D01*
X44461Y114899D01*
X44571Y115008D01*
X44581Y115024D01*
X44595Y115038D01*
X44675Y115171D01*
X44757Y115302D01*
X44764Y115320D01*
X44774Y115337D01*
X44821Y115485D01*
X44872Y115631D01*
X44874Y115650D01*
X44880Y115669D01*
X44892Y115823D01*
X44909Y115978D01*
X44906Y115997D01*
X44908Y116016D01*
X44885Y116170D01*
X44866Y116324D01*
X44859Y116342D01*
X44856Y116361D01*
X44799Y116506D01*
X44745Y116651D01*
X44733Y116670D01*
X44727Y116685D01*
X44702Y116721D01*
X44618Y116859D01*
X44413Y117141D01*
X43765Y118414D01*
X43323Y119774D01*
X43303Y119901D01*
X50181Y119901D01*
X50181Y113011D01*
X50133Y113018D01*
X50054Y113012D01*
X49975Y113015D01*
X49881Y112997D01*
X49786Y112989D01*
X49710Y112965D01*
X49633Y112950D01*
X49545Y112912D01*
X49454Y112882D01*
X49386Y112841D01*
X49314Y112809D01*
X49237Y112752D01*
X49155Y112702D01*
X49099Y112647D01*
X49035Y112600D01*
X48974Y112526D01*
X48906Y112460D01*
X48863Y112393D01*
X48812Y112332D01*
X48769Y112247D01*
X48717Y112166D01*
X48691Y112092D01*
X48655Y112021D01*
X48633Y111928D01*
X48601Y111838D01*
X48592Y111759D01*
X48573Y111682D01*
X48572Y111587D01*
X48562Y111492D01*
X48571Y111413D01*
X48570Y111334D01*
X48591Y111240D01*
X48602Y111145D01*
X48636Y111042D01*
X48647Y110994D01*
X48661Y110964D01*
X48678Y110913D01*
X49221Y109602D01*
X49221Y107198D01*
X48301Y104978D01*
X46602Y103279D01*
X44382Y102359D01*
X41978Y102359D01*
G37*
%LPD*%
%LPC*%
G36*
X489457Y95757D02*
X489457Y95757D01*
X489457Y126867D01*
X491448Y126671D01*
X494752Y126013D01*
X497976Y125035D01*
X501089Y123746D01*
X504060Y122158D01*
X506862Y120286D01*
X509466Y118148D01*
X511848Y115766D01*
X513986Y113162D01*
X515858Y110360D01*
X517446Y107389D01*
X518735Y104276D01*
X519713Y101052D01*
X520371Y97748D01*
X520567Y95757D01*
X489457Y95757D01*
G37*
%LPD*%
%LPC*%
G36*
X452253Y95757D02*
X452253Y95757D01*
X452449Y97748D01*
X452844Y99733D01*
X452845Y99734D01*
X453107Y101052D01*
X454085Y104276D01*
X455374Y107389D01*
X456962Y110360D01*
X458834Y113162D01*
X460972Y115766D01*
X463354Y118148D01*
X463970Y118654D01*
X465826Y120177D01*
X465826Y120178D01*
X465958Y120286D01*
X468760Y122158D01*
X471731Y123746D01*
X474844Y125035D01*
X478068Y126013D01*
X481372Y126671D01*
X483363Y126867D01*
X483363Y95757D01*
X452253Y95757D01*
G37*
%LPD*%
%LPC*%
G36*
X489457Y89663D02*
X489457Y89663D01*
X520567Y89663D01*
X520371Y87672D01*
X520160Y86615D01*
X520160Y86614D01*
X519857Y85092D01*
X519857Y85091D01*
X519713Y84368D01*
X518735Y81144D01*
X517446Y78031D01*
X515858Y75060D01*
X513986Y72258D01*
X511848Y69654D01*
X509466Y67272D01*
X508125Y66171D01*
X506862Y65134D01*
X504060Y63262D01*
X501089Y61674D01*
X497976Y60385D01*
X494752Y59407D01*
X491448Y58749D01*
X489457Y58553D01*
X489457Y89663D01*
G37*
%LPD*%
%LPC*%
G36*
X481372Y58749D02*
X481372Y58749D01*
X478068Y59407D01*
X474844Y60385D01*
X471731Y61674D01*
X468760Y63262D01*
X465958Y65134D01*
X463354Y67272D01*
X460972Y69654D01*
X458834Y72258D01*
X456962Y75060D01*
X455374Y78031D01*
X454085Y81144D01*
X453107Y84368D01*
X452449Y87672D01*
X452253Y89663D01*
X483363Y89663D01*
X483363Y58553D01*
X481372Y58749D01*
G37*
%LPD*%
G36*
X142816Y2552D02*
X142816Y2552D01*
X142917Y2554D01*
X142989Y2572D01*
X143063Y2581D01*
X143157Y2615D01*
X143255Y2639D01*
X143321Y2673D01*
X143391Y2698D01*
X143475Y2753D01*
X143564Y2799D01*
X143621Y2847D01*
X143683Y2887D01*
X143753Y2959D01*
X143830Y3025D01*
X143874Y3084D01*
X143926Y3138D01*
X143977Y3224D01*
X144037Y3305D01*
X144066Y3373D01*
X144105Y3437D01*
X144135Y3533D01*
X144175Y3625D01*
X144188Y3698D01*
X144211Y3769D01*
X144219Y3869D01*
X144237Y3968D01*
X144233Y4042D01*
X144239Y4116D01*
X144224Y4215D01*
X144219Y4316D01*
X144198Y4387D01*
X144187Y4461D01*
X144150Y4554D01*
X144122Y4651D01*
X144086Y4716D01*
X144058Y4785D01*
X144001Y4867D01*
X143952Y4955D01*
X143887Y5031D01*
X143859Y5071D01*
X143833Y5095D01*
X143793Y5141D01*
X143681Y5253D01*
X142624Y6709D01*
X141807Y8312D01*
X141251Y10023D01*
X141223Y10201D01*
X151424Y10201D01*
X151450Y10204D01*
X151476Y10202D01*
X151623Y10224D01*
X151770Y10241D01*
X151795Y10249D01*
X151821Y10253D01*
X151958Y10308D01*
X152098Y10358D01*
X152120Y10372D01*
X152145Y10382D01*
X152266Y10467D01*
X152391Y10547D01*
X152403Y10560D01*
X152450Y10515D01*
X152473Y10501D01*
X152492Y10484D01*
X152622Y10412D01*
X152749Y10336D01*
X152774Y10328D01*
X152797Y10315D01*
X152940Y10275D01*
X153081Y10230D01*
X153107Y10227D01*
X153132Y10220D01*
X153376Y10201D01*
X176824Y10201D01*
X176850Y10204D01*
X176876Y10202D01*
X177023Y10224D01*
X177170Y10241D01*
X177195Y10249D01*
X177221Y10253D01*
X177358Y10308D01*
X177498Y10358D01*
X177520Y10372D01*
X177545Y10382D01*
X177666Y10467D01*
X177791Y10547D01*
X177803Y10560D01*
X177850Y10515D01*
X177873Y10501D01*
X177892Y10484D01*
X178022Y10412D01*
X178149Y10336D01*
X178174Y10328D01*
X178197Y10315D01*
X178340Y10275D01*
X178481Y10230D01*
X178507Y10227D01*
X178532Y10220D01*
X178776Y10201D01*
X188977Y10201D01*
X188949Y10023D01*
X188393Y8312D01*
X187576Y6709D01*
X186519Y5253D01*
X186407Y5141D01*
X186344Y5063D01*
X186274Y4990D01*
X186236Y4926D01*
X186190Y4868D01*
X186147Y4777D01*
X186095Y4691D01*
X186073Y4620D01*
X186041Y4553D01*
X186020Y4455D01*
X185989Y4359D01*
X185983Y4285D01*
X185968Y4212D01*
X185969Y4112D01*
X185961Y4012D01*
X185972Y3938D01*
X185974Y3864D01*
X185998Y3767D01*
X186013Y3667D01*
X186040Y3598D01*
X186059Y3526D01*
X186105Y3437D01*
X186142Y3343D01*
X186184Y3282D01*
X186218Y3216D01*
X186283Y3140D01*
X186341Y3057D01*
X186396Y3007D01*
X186444Y2951D01*
X186525Y2891D01*
X186599Y2824D01*
X186664Y2788D01*
X186724Y2744D01*
X186816Y2704D01*
X186904Y2655D01*
X186976Y2635D01*
X187044Y2605D01*
X187143Y2588D01*
X187240Y2560D01*
X187340Y2552D01*
X187387Y2544D01*
X187423Y2546D01*
X187484Y2541D01*
X194235Y2541D01*
X194335Y2552D01*
X194435Y2554D01*
X194507Y2572D01*
X194581Y2581D01*
X194675Y2614D01*
X194773Y2639D01*
X194839Y2673D01*
X194909Y2698D01*
X194993Y2753D01*
X195083Y2799D01*
X195139Y2847D01*
X195202Y2887D01*
X195272Y2959D01*
X195348Y3024D01*
X195392Y3084D01*
X195444Y3138D01*
X195496Y3224D01*
X195555Y3305D01*
X195585Y3373D01*
X195623Y3437D01*
X195654Y3533D01*
X195693Y3625D01*
X195706Y3698D01*
X195729Y3769D01*
X195737Y3869D01*
X195755Y3968D01*
X195751Y4042D01*
X195757Y4116D01*
X195742Y4216D01*
X195737Y4316D01*
X195716Y4387D01*
X195705Y4461D01*
X195668Y4554D01*
X195641Y4651D01*
X195604Y4716D01*
X195577Y4785D01*
X195519Y4867D01*
X195470Y4955D01*
X195405Y5031D01*
X195378Y5071D01*
X195351Y5095D01*
X195312Y5141D01*
X193940Y6513D01*
X192277Y10527D01*
X192277Y14873D01*
X193940Y18887D01*
X195029Y19976D01*
X195092Y20055D01*
X195162Y20127D01*
X195200Y20191D01*
X195246Y20249D01*
X195289Y20340D01*
X195340Y20426D01*
X195363Y20497D01*
X195395Y20565D01*
X195416Y20663D01*
X195447Y20758D01*
X195453Y20833D01*
X195468Y20905D01*
X195467Y21006D01*
X195475Y21106D01*
X195464Y21179D01*
X195462Y21254D01*
X195438Y21351D01*
X195423Y21450D01*
X195395Y21520D01*
X195377Y21592D01*
X195331Y21681D01*
X195294Y21774D01*
X195252Y21835D01*
X195218Y21901D01*
X195153Y21978D01*
X195095Y22060D01*
X195040Y22110D01*
X194992Y22167D01*
X194911Y22227D01*
X194837Y22294D01*
X194771Y22330D01*
X194712Y22374D01*
X194619Y22414D01*
X194531Y22462D01*
X194460Y22483D01*
X194392Y22512D01*
X194293Y22530D01*
X194196Y22557D01*
X194096Y22565D01*
X194049Y22574D01*
X194013Y22572D01*
X193952Y22577D01*
X187743Y22577D01*
X187589Y22559D01*
X187434Y22545D01*
X187416Y22539D01*
X187397Y22537D01*
X187251Y22485D01*
X187103Y22436D01*
X187087Y22426D01*
X187068Y22419D01*
X186938Y22335D01*
X186806Y22254D01*
X186792Y22241D01*
X186776Y22230D01*
X186668Y22119D01*
X186557Y22010D01*
X186547Y21994D01*
X186533Y21980D01*
X186454Y21847D01*
X186371Y21716D01*
X186365Y21697D01*
X186355Y21681D01*
X186307Y21533D01*
X186256Y21386D01*
X186254Y21367D01*
X186248Y21349D01*
X186236Y21194D01*
X186220Y21040D01*
X186222Y21021D01*
X186220Y21001D01*
X186243Y20848D01*
X186263Y20694D01*
X186269Y20676D01*
X186272Y20657D01*
X186329Y20513D01*
X186383Y20367D01*
X186395Y20347D01*
X186401Y20333D01*
X186426Y20297D01*
X186510Y20158D01*
X187576Y18691D01*
X188393Y17088D01*
X188949Y15377D01*
X188977Y15199D01*
X178776Y15199D01*
X178750Y15196D01*
X178724Y15198D01*
X178577Y15176D01*
X178430Y15159D01*
X178405Y15151D01*
X178379Y15147D01*
X178242Y15092D01*
X178102Y15042D01*
X178080Y15028D01*
X178055Y15018D01*
X177934Y14933D01*
X177809Y14853D01*
X177797Y14840D01*
X177750Y14885D01*
X177727Y14899D01*
X177708Y14916D01*
X177578Y14988D01*
X177451Y15064D01*
X177426Y15072D01*
X177403Y15085D01*
X177260Y15125D01*
X177119Y15170D01*
X177093Y15172D01*
X177068Y15180D01*
X176824Y15199D01*
X153376Y15199D01*
X153350Y15196D01*
X153324Y15198D01*
X153177Y15176D01*
X153030Y15159D01*
X153005Y15151D01*
X152979Y15147D01*
X152842Y15092D01*
X152702Y15042D01*
X152680Y15028D01*
X152655Y15018D01*
X152534Y14933D01*
X152409Y14853D01*
X152397Y14840D01*
X152350Y14885D01*
X152327Y14899D01*
X152308Y14916D01*
X152178Y14988D01*
X152051Y15064D01*
X152026Y15072D01*
X152003Y15085D01*
X151860Y15125D01*
X151719Y15170D01*
X151693Y15172D01*
X151668Y15180D01*
X151424Y15199D01*
X141223Y15199D01*
X141251Y15377D01*
X141807Y17088D01*
X142624Y18691D01*
X143690Y20158D01*
X143766Y20293D01*
X143845Y20426D01*
X143851Y20445D01*
X143861Y20462D01*
X143904Y20610D01*
X143952Y20758D01*
X143953Y20778D01*
X143959Y20796D01*
X143967Y20951D01*
X143980Y21106D01*
X143977Y21125D01*
X143978Y21144D01*
X143951Y21297D01*
X143928Y21450D01*
X143921Y21468D01*
X143917Y21487D01*
X143856Y21630D01*
X143799Y21774D01*
X143788Y21790D01*
X143781Y21808D01*
X143689Y21933D01*
X143600Y22060D01*
X143586Y22073D01*
X143574Y22089D01*
X143457Y22190D01*
X143341Y22294D01*
X143324Y22303D01*
X143310Y22316D01*
X143173Y22387D01*
X143036Y22462D01*
X143018Y22468D01*
X143001Y22477D01*
X142851Y22515D01*
X142701Y22557D01*
X142678Y22559D01*
X142663Y22563D01*
X142619Y22564D01*
X142457Y22577D01*
X136248Y22577D01*
X136148Y22565D01*
X136048Y22564D01*
X135975Y22545D01*
X135901Y22537D01*
X135807Y22503D01*
X135710Y22479D01*
X135643Y22444D01*
X135573Y22419D01*
X135489Y22365D01*
X135400Y22319D01*
X135343Y22271D01*
X135281Y22230D01*
X135211Y22158D01*
X135134Y22093D01*
X135090Y22033D01*
X135038Y21980D01*
X134987Y21893D01*
X134927Y21813D01*
X134898Y21745D01*
X134860Y21681D01*
X134829Y21585D01*
X134789Y21493D01*
X134776Y21420D01*
X134753Y21349D01*
X134745Y21249D01*
X134727Y21150D01*
X134731Y21075D01*
X134725Y21001D01*
X134740Y20902D01*
X134745Y20802D01*
X134766Y20730D01*
X134777Y20657D01*
X134814Y20563D01*
X134842Y20467D01*
X134878Y20402D01*
X134906Y20333D01*
X134963Y20250D01*
X135012Y20163D01*
X135077Y20086D01*
X135105Y20047D01*
X135131Y20023D01*
X135171Y19976D01*
X136260Y18887D01*
X137923Y14873D01*
X137923Y10527D01*
X136260Y6513D01*
X134888Y5141D01*
X134826Y5062D01*
X134756Y4990D01*
X134718Y4926D01*
X134672Y4868D01*
X134629Y4777D01*
X134577Y4691D01*
X134554Y4620D01*
X134523Y4553D01*
X134501Y4455D01*
X134471Y4359D01*
X134465Y4285D01*
X134449Y4212D01*
X134451Y4112D01*
X134443Y4012D01*
X134454Y3938D01*
X134455Y3864D01*
X134480Y3767D01*
X134495Y3667D01*
X134522Y3598D01*
X134540Y3526D01*
X134586Y3437D01*
X134623Y3343D01*
X134666Y3282D01*
X134700Y3216D01*
X134765Y3140D01*
X134822Y3057D01*
X134877Y3007D01*
X134926Y2951D01*
X135006Y2891D01*
X135081Y2824D01*
X135146Y2788D01*
X135206Y2743D01*
X135298Y2704D01*
X135386Y2655D01*
X135458Y2635D01*
X135526Y2605D01*
X135625Y2588D01*
X135721Y2560D01*
X135821Y2552D01*
X135869Y2544D01*
X135905Y2546D01*
X135965Y2541D01*
X142716Y2541D01*
X142816Y2552D01*
G37*
%LPC*%
G36*
X54179Y123899D02*
X54179Y123899D01*
X54179Y143857D01*
X54306Y143837D01*
X55666Y143395D01*
X56939Y142747D01*
X58096Y141906D01*
X59106Y140896D01*
X59947Y139739D01*
X60595Y138466D01*
X61037Y137106D01*
X61261Y135695D01*
X61261Y123899D01*
X54179Y123899D01*
G37*
%LPD*%
%LPC*%
G36*
X54179Y53901D02*
X54179Y53901D01*
X61261Y53901D01*
X61261Y42105D01*
X61037Y40694D01*
X60595Y39334D01*
X59947Y38061D01*
X59106Y36904D01*
X58096Y35894D01*
X56939Y35053D01*
X55666Y34405D01*
X54306Y33963D01*
X54179Y33943D01*
X54179Y53901D01*
G37*
%LPD*%
%LPC*%
G36*
X43099Y123899D02*
X43099Y123899D01*
X43099Y135695D01*
X43323Y137106D01*
X43765Y138466D01*
X44413Y139739D01*
X45254Y140896D01*
X46264Y141906D01*
X47421Y142747D01*
X48694Y143395D01*
X50054Y143837D01*
X50181Y143857D01*
X50181Y123899D01*
X43099Y123899D01*
G37*
%LPD*%
%LPC*%
G36*
X50054Y33963D02*
X50054Y33963D01*
X48694Y34405D01*
X47421Y35053D01*
X46264Y35894D01*
X45254Y36904D01*
X44413Y38061D01*
X43765Y39334D01*
X43323Y40694D01*
X43099Y42105D01*
X43099Y53901D01*
X50181Y53901D01*
X50181Y33943D01*
X50054Y33963D01*
G37*
%LPD*%
%LPC*%
G36*
X434299Y15199D02*
X434299Y15199D01*
X434299Y23363D01*
X434358Y23354D01*
X435993Y22822D01*
X437525Y22042D01*
X438916Y21031D01*
X440131Y19816D01*
X441142Y18425D01*
X441922Y16893D01*
X442454Y15258D01*
X442463Y15199D01*
X434299Y15199D01*
G37*
%LPD*%
%LPC*%
G36*
X486409Y92709D02*
X486409Y92709D01*
X486409Y92711D01*
X486411Y92711D01*
X486411Y92709D01*
X486409Y92709D01*
G37*
%LPD*%
D10*
X254000Y12700D03*
X279400Y12700D03*
X304800Y12700D03*
X330200Y12700D03*
X355600Y12700D03*
X381000Y12700D03*
X406400Y12700D03*
X431800Y12700D03*
X203200Y165100D03*
X228600Y165100D03*
X254000Y165100D03*
X279400Y165100D03*
X304800Y165100D03*
X330200Y165100D03*
X355600Y165100D03*
X381000Y165100D03*
D11*
X104140Y58420D03*
X132080Y58420D03*
X118110Y58420D03*
D10*
X177800Y165100D03*
X152400Y165100D03*
X127000Y165100D03*
X101600Y165100D03*
X76200Y165100D03*
X50800Y165100D03*
D12*
X50800Y12700D03*
X76200Y12700D03*
X101600Y12700D03*
X127000Y12700D03*
X152400Y12700D03*
X177800Y12700D03*
X203200Y12700D03*
X228600Y12700D03*
D13*
X24180Y52900D03*
X24180Y124900D03*
D14*
X52180Y121900D02*
X52180Y134980D01*
X52180Y55900D02*
X52180Y42820D01*
D15*
X486410Y92710D03*
D16*
X486410Y10456D03*
X486410Y174964D03*
D17*
X241300Y57150D03*
D18*
X229870Y45720D01*
D17*
X146050Y57150D03*
D18*
X149860Y45720D02*
X229870Y45720D01*
X149860Y45720D02*
X146050Y49530D01*
X146050Y57150D01*
X144780Y58420D02*
X132080Y58420D01*
X144780Y58420D02*
X146050Y57150D01*
D19*
X127000Y19050D02*
X127000Y12700D01*
X127000Y19050D02*
X134084Y26134D01*
X412635Y12700D02*
X431685Y31750D01*
X412635Y12700D02*
X406400Y12700D01*
X395631Y26134D02*
X399216Y29718D01*
X409448Y29718D01*
X413893Y34163D02*
X413893Y36842D01*
X418580Y41529D01*
X418719Y41529D01*
X419100Y41910D01*
X429895Y36842D02*
X429895Y33540D01*
X431685Y31750D01*
X424827Y41910D02*
X419100Y41910D01*
X424827Y41910D02*
X429895Y36842D01*
X395631Y26134D02*
X134084Y26134D01*
X409448Y29718D02*
X413893Y34163D01*
D20*
X330200Y85090D03*
D17*
X92710Y43180D03*
X207010Y54610D03*
X257810Y57150D03*
X186690Y93980D03*
X109220Y111760D03*
D19*
X486410Y92710D02*
X486410Y69850D01*
X431800Y15676D02*
X431800Y12700D01*
D17*
X516890Y45720D03*
D21*
X359410Y139700D03*
X441960Y127000D03*
D22*
X391160Y91440D03*
D17*
X305054Y144272D03*
X461010Y43180D03*
X115570Y31750D03*
X403606Y42672D03*
D19*
X402365Y42672D01*
X390906Y31214D02*
X116106Y31214D01*
X390906Y31214D02*
X402365Y42672D01*
X116106Y31214D02*
X115570Y31750D01*
D17*
X283210Y93980D03*
D23*
X275590Y93980D01*
X227330Y142240D01*
X97790Y142240D01*
X88900Y151130D02*
X64770Y151130D01*
X50800Y165100D01*
X88900Y151130D02*
X97790Y142240D01*
D17*
X276860Y115570D03*
D23*
X240030Y152400D01*
X114300Y152400D01*
X101600Y165100D01*
D17*
X163830Y72390D03*
D20*
X87630Y137160D03*
D23*
X102870Y121920D01*
X135890Y121920D01*
X163830Y93980D01*
X163830Y72390D01*
D17*
X421894Y33528D03*
D19*
X389382Y12700D02*
X381000Y12700D01*
X389382Y12700D02*
X401320Y24638D01*
X413004Y24638D02*
X421894Y33528D01*
X413004Y24638D02*
X401320Y24638D01*
D21*
X370840Y86360D03*
D23*
X374650Y86360D01*
D24*
X339090Y165100D02*
X330200Y165100D01*
X350520Y153670D02*
X367030Y153670D01*
X371602Y149098D01*
X371602Y132831D02*
X394614Y109820D01*
X394614Y104862D01*
X376112Y86360D01*
X370840Y86360D01*
X350520Y153670D02*
X339090Y165100D01*
X371602Y149098D02*
X371602Y132831D01*
D21*
X372364Y65024D03*
D23*
X372618Y64770D02*
X384810Y64770D01*
X372618Y64770D02*
X372364Y65024D01*
X384810Y64770D02*
X405130Y85090D01*
X405130Y113030D01*
X381000Y137160D01*
X381000Y165100D01*
D21*
X370840Y96520D03*
D23*
X370840Y99060D01*
D24*
X313690Y165100D02*
X304800Y165100D01*
X346043Y152400D02*
X348837Y149606D01*
X363982Y149606D02*
X367538Y146050D01*
X367538Y131148D01*
X370840Y96520D02*
X378460Y96520D01*
X326390Y152400D02*
X313690Y165100D01*
X326390Y152400D02*
X346043Y152400D01*
X348837Y149606D02*
X363982Y149606D01*
X367538Y131148D02*
X390313Y108373D01*
X378460Y96520D01*
D21*
X363220Y104140D03*
D24*
X292100Y152400D02*
X279400Y165100D01*
X314960Y152400D02*
X363220Y104140D01*
X314960Y152400D02*
X292100Y152400D01*
D17*
X312420Y134620D03*
D23*
X284480Y134620D01*
X254000Y165100D01*
X86360Y96520D02*
X83820Y93980D01*
D20*
X83820Y93980D03*
D19*
X114300Y92710D02*
X133350Y92710D01*
D20*
X133350Y92710D03*
D18*
X104140Y58420D02*
X101600Y55880D01*
X101600Y12700D01*
X104140Y82550D02*
X114300Y92710D01*
X104140Y82550D02*
X104140Y58420D01*
X104140Y82550D02*
X92710Y93980D01*
X83820Y93980D01*
D19*
X104140Y58420D02*
X108712Y53848D01*
X108712Y48946D01*
X116637Y41021D01*
X141423Y41021D01*
X146151Y36294D01*
X388084Y36294D01*
D17*
X435610Y99060D03*
D19*
X393827Y42037D02*
X388084Y36294D01*
X408940Y52070D02*
X435610Y78740D01*
X435610Y99060D01*
X393827Y44716D02*
X393827Y42037D01*
X393827Y44716D02*
X401181Y52070D01*
X408940Y52070D01*
D21*
X370332Y55118D03*
D17*
X176276Y129286D03*
D23*
X271780Y78740D02*
X295910Y78740D01*
X271780Y78740D02*
X220980Y129540D01*
X176530Y129540D01*
X176276Y129286D01*
X295910Y78740D02*
X319532Y55118D01*
X370332Y55118D01*
D21*
X364236Y72390D03*
D23*
X385064Y72644D02*
X400050Y87630D01*
X385064Y72644D02*
X364490Y72644D01*
X364236Y72390D01*
X400050Y87630D02*
X400050Y110490D01*
X375920Y134620D01*
D17*
X142240Y133350D03*
D23*
X146050Y137160D01*
X222250Y137160D01*
X274320Y85090D01*
X297180Y85090D01*
X309880Y72390D01*
X364236Y72390D01*
X375920Y134620D02*
X375920Y153670D01*
D24*
X364490Y165100D02*
X355600Y165100D01*
X364490Y165100D02*
X375920Y153670D01*
D17*
X62230Y109220D03*
X67310Y64770D03*
D18*
X59690Y72390D01*
X59690Y99060D01*
X62230Y101600D01*
X62230Y109220D01*
D17*
X292100Y69850D03*
D18*
X314960Y46990D01*
X377190Y46990D01*
X387985Y57785D02*
X414020Y83820D01*
X387985Y57785D02*
X377190Y46990D01*
X414020Y83820D02*
X414020Y118110D01*
D17*
X181610Y76200D03*
D18*
X392430Y139700D02*
X414020Y118110D01*
D17*
X392430Y139700D03*
D19*
X161290Y54610D02*
X144780Y71120D01*
X161290Y54610D02*
X173990Y54610D01*
X186690Y67310D01*
X186690Y82550D01*
D18*
X257810Y82550D01*
X186690Y82550D02*
X181610Y77470D01*
X181610Y76200D01*
X144780Y71120D02*
X119380Y71120D01*
X116840Y68580D01*
X116840Y59690D01*
X270510Y69850D02*
X292100Y69850D01*
X270510Y69850D02*
X257810Y82550D01*
X118110Y58420D02*
X116840Y59690D01*
D17*
X278130Y104140D03*
D23*
X274320Y104140D01*
X231140Y147320D01*
X100330Y147320D01*
X82550Y165100D01*
X76200Y165100D01*
D20*
X68580Y86360D03*
X73660Y118110D03*
D23*
X68580Y97790D02*
X68580Y86360D01*
X68580Y97790D02*
X73660Y102870D01*
X73660Y118110D01*
X120650Y58420D02*
X129540Y58420D01*
D17*
X477520Y40640D03*
D19*
X486410Y31750D01*
X486410Y10456D01*
M02*
