G04 EAGLE Gerber RS-274X export*
G75*
%MOMM*%
%FSLAX34Y34*%
%LPD*%
%IN*%
%IPPOS*%
%AMOC8*
5,1,8,0,0,1.08239X$1,22.5*%
G01*
%ADD10C,0.254000*%


D10*
X0Y20320D02*
X77Y18549D01*
X309Y16791D01*
X692Y15061D01*
X1225Y13370D01*
X1904Y11732D01*
X2722Y10160D01*
X3675Y8665D01*
X4754Y7259D01*
X5952Y5952D01*
X7259Y4754D01*
X8665Y3675D01*
X10160Y2722D01*
X11732Y1904D01*
X13370Y1225D01*
X15061Y692D01*
X16791Y309D01*
X18549Y77D01*
X20320Y0D01*
X521970Y0D01*
X523683Y130D01*
X525379Y409D01*
X527043Y835D01*
X528664Y1404D01*
X530230Y2113D01*
X531727Y2955D01*
X533146Y3924D01*
X534475Y5014D01*
X535703Y6215D01*
X536823Y7518D01*
X537824Y8914D01*
X538700Y10392D01*
X539444Y11941D01*
X540050Y13549D01*
X540514Y15204D01*
X540831Y16892D01*
X541000Y18602D01*
X541020Y20320D01*
X542290Y157480D01*
X542270Y159198D01*
X542101Y160908D01*
X541784Y162597D01*
X541320Y164251D01*
X540714Y165859D01*
X539970Y167408D01*
X539094Y168886D01*
X538093Y170282D01*
X536973Y171585D01*
X535745Y172786D01*
X534416Y173876D01*
X532997Y174845D01*
X531500Y175687D01*
X529934Y176396D01*
X528313Y176965D01*
X526649Y177391D01*
X524953Y177670D01*
X523240Y177800D01*
X20320Y177800D01*
X18549Y177723D01*
X16791Y177491D01*
X15061Y177108D01*
X13370Y176575D01*
X11732Y175896D01*
X10160Y175078D01*
X8665Y174125D01*
X7259Y173046D01*
X5952Y171848D01*
X4754Y170541D01*
X3675Y169135D01*
X2722Y167640D01*
X1904Y166068D01*
X1225Y164430D01*
X692Y162739D01*
X309Y161009D01*
X77Y159251D01*
X0Y157480D01*
X0Y116840D01*
X2540Y114300D01*
X2540Y66040D01*
X0Y63500D01*
X0Y20320D01*
X17680Y52900D02*
X17652Y52549D01*
X17654Y52198D01*
X17687Y51848D01*
X17750Y51502D01*
X17843Y51163D01*
X17966Y50833D01*
X18117Y50515D01*
X18294Y50212D01*
X18498Y49925D01*
X18726Y49657D01*
X18976Y49410D01*
X19247Y49186D01*
X19536Y48986D01*
X19842Y48812D01*
X20162Y48666D01*
X20493Y48548D01*
X20833Y48459D01*
X21180Y48400D01*
X27180Y48400D01*
X27527Y48459D01*
X27867Y48548D01*
X28198Y48666D01*
X28518Y48812D01*
X28824Y48986D01*
X29113Y49186D01*
X29384Y49410D01*
X29634Y49657D01*
X29862Y49925D01*
X30066Y50212D01*
X30243Y50515D01*
X30394Y50833D01*
X30517Y51163D01*
X30610Y51502D01*
X30673Y51848D01*
X30706Y52198D01*
X30708Y52549D01*
X30680Y52900D01*
X30708Y53251D01*
X30706Y53602D01*
X30673Y53952D01*
X30610Y54298D01*
X30517Y54637D01*
X30394Y54967D01*
X30243Y55285D01*
X30066Y55588D01*
X29862Y55875D01*
X29634Y56143D01*
X29384Y56390D01*
X29113Y56614D01*
X28824Y56814D01*
X28518Y56988D01*
X28198Y57134D01*
X27867Y57252D01*
X27527Y57341D01*
X27180Y57400D01*
X21180Y57400D01*
X20833Y57341D01*
X20493Y57252D01*
X20162Y57134D01*
X19842Y56988D01*
X19536Y56814D01*
X19247Y56614D01*
X18976Y56390D01*
X18726Y56143D01*
X18498Y55875D01*
X18294Y55588D01*
X18117Y55285D01*
X17966Y54967D01*
X17843Y54637D01*
X17750Y54298D01*
X17687Y53952D01*
X17654Y53602D01*
X17652Y53251D01*
X17680Y52900D01*
X17680Y123900D02*
X17716Y123574D01*
X17780Y123253D01*
X17872Y122938D01*
X17992Y122633D01*
X18137Y122339D01*
X18307Y122059D01*
X18502Y121794D01*
X18718Y121548D01*
X18955Y121322D01*
X19211Y121117D01*
X19484Y120935D01*
X19772Y120777D01*
X20072Y120646D01*
X20382Y120541D01*
X20701Y120463D01*
X21025Y120414D01*
X21352Y120392D01*
X21680Y120400D01*
X27180Y120400D01*
X27485Y120413D01*
X27788Y120453D01*
X28086Y120519D01*
X28377Y120611D01*
X28659Y120728D01*
X28930Y120869D01*
X29188Y121033D01*
X29430Y121219D01*
X29655Y121425D01*
X29861Y121650D01*
X30047Y121892D01*
X30211Y122150D01*
X30352Y122421D01*
X30469Y122703D01*
X30561Y122994D01*
X30627Y123292D01*
X30667Y123595D01*
X30680Y123900D01*
X30680Y125900D01*
X30667Y126205D01*
X30627Y126508D01*
X30561Y126806D01*
X30469Y127097D01*
X30352Y127379D01*
X30211Y127650D01*
X30047Y127908D01*
X29861Y128150D01*
X29655Y128375D01*
X29430Y128581D01*
X29188Y128767D01*
X28930Y128931D01*
X28659Y129072D01*
X28377Y129189D01*
X28086Y129281D01*
X27788Y129347D01*
X27485Y129387D01*
X27180Y129400D01*
X21680Y129400D01*
X21352Y129408D01*
X21025Y129386D01*
X20701Y129337D01*
X20382Y129259D01*
X20072Y129154D01*
X19772Y129023D01*
X19484Y128865D01*
X19211Y128683D01*
X18955Y128478D01*
X18718Y128252D01*
X18502Y128006D01*
X18307Y127742D01*
X18137Y127461D01*
X17992Y127168D01*
X17872Y126862D01*
X17780Y126547D01*
X17716Y126226D01*
X17680Y125900D01*
X17680Y123900D01*
X30050Y158318D02*
X29982Y157456D01*
X29847Y156602D01*
X29645Y155762D01*
X29378Y154940D01*
X29047Y154141D01*
X28655Y153371D01*
X28203Y152634D01*
X27695Y151935D01*
X27134Y151277D01*
X26523Y150666D01*
X25865Y150105D01*
X25166Y149597D01*
X24429Y149145D01*
X23659Y148753D01*
X22860Y148422D01*
X22038Y148155D01*
X21198Y147953D01*
X20344Y147818D01*
X19482Y147750D01*
X18618Y147750D01*
X17756Y147818D01*
X16902Y147953D01*
X16062Y148155D01*
X15240Y148422D01*
X14441Y148753D01*
X13671Y149145D01*
X12934Y149597D01*
X12235Y150105D01*
X11577Y150666D01*
X10966Y151277D01*
X10405Y151935D01*
X9897Y152634D01*
X9445Y153371D01*
X9053Y154141D01*
X8722Y154940D01*
X8455Y155762D01*
X8253Y156602D01*
X8118Y157456D01*
X8050Y158318D01*
X8050Y159182D01*
X8118Y160044D01*
X8253Y160898D01*
X8455Y161738D01*
X8722Y162560D01*
X9053Y163359D01*
X9445Y164129D01*
X9897Y164866D01*
X10405Y165565D01*
X10966Y166223D01*
X11577Y166834D01*
X12235Y167395D01*
X12934Y167903D01*
X13671Y168355D01*
X14441Y168747D01*
X15240Y169078D01*
X16062Y169345D01*
X16902Y169547D01*
X17756Y169682D01*
X18618Y169750D01*
X19482Y169750D01*
X20344Y169682D01*
X21198Y169547D01*
X22038Y169345D01*
X22860Y169078D01*
X23659Y168747D01*
X24429Y168355D01*
X25166Y167903D01*
X25865Y167395D01*
X26523Y166834D01*
X27134Y166223D01*
X27695Y165565D01*
X28203Y164866D01*
X28655Y164129D01*
X29047Y163359D01*
X29378Y162560D01*
X29645Y161738D01*
X29847Y160898D01*
X29982Y160044D01*
X30050Y159182D01*
X30050Y158318D01*
X30050Y18618D02*
X29982Y17756D01*
X29847Y16902D01*
X29645Y16062D01*
X29378Y15240D01*
X29047Y14441D01*
X28655Y13671D01*
X28203Y12934D01*
X27695Y12235D01*
X27134Y11577D01*
X26523Y10966D01*
X25865Y10405D01*
X25166Y9897D01*
X24429Y9445D01*
X23659Y9053D01*
X22860Y8722D01*
X22038Y8455D01*
X21198Y8253D01*
X20344Y8118D01*
X19482Y8050D01*
X18618Y8050D01*
X17756Y8118D01*
X16902Y8253D01*
X16062Y8455D01*
X15240Y8722D01*
X14441Y9053D01*
X13671Y9445D01*
X12934Y9897D01*
X12235Y10405D01*
X11577Y10966D01*
X10966Y11577D01*
X10405Y12235D01*
X9897Y12934D01*
X9445Y13671D01*
X9053Y14441D01*
X8722Y15240D01*
X8455Y16062D01*
X8253Y16902D01*
X8118Y17756D01*
X8050Y18618D01*
X8050Y19482D01*
X8118Y20344D01*
X8253Y21198D01*
X8455Y22038D01*
X8722Y22860D01*
X9053Y23659D01*
X9445Y24429D01*
X9897Y25166D01*
X10405Y25865D01*
X10966Y26523D01*
X11577Y27134D01*
X12235Y27695D01*
X12934Y28203D01*
X13671Y28655D01*
X14441Y29047D01*
X15240Y29378D01*
X16062Y29645D01*
X16902Y29847D01*
X17756Y29982D01*
X18618Y30050D01*
X19482Y30050D01*
X20344Y29982D01*
X21198Y29847D01*
X22038Y29645D01*
X22860Y29378D01*
X23659Y29047D01*
X24429Y28655D01*
X25166Y28203D01*
X25865Y27695D01*
X26523Y27134D01*
X27134Y26523D01*
X27695Y25865D01*
X28203Y25166D01*
X28655Y24429D01*
X29047Y23659D01*
X29378Y22860D01*
X29645Y22038D01*
X29847Y21198D01*
X29982Y20344D01*
X30050Y19482D01*
X30050Y18618D01*
X422480Y158318D02*
X422412Y157456D01*
X422277Y156602D01*
X422075Y155762D01*
X421808Y154940D01*
X421477Y154141D01*
X421085Y153371D01*
X420633Y152634D01*
X420125Y151935D01*
X419564Y151277D01*
X418953Y150666D01*
X418295Y150105D01*
X417596Y149597D01*
X416859Y149145D01*
X416089Y148753D01*
X415290Y148422D01*
X414468Y148155D01*
X413628Y147953D01*
X412774Y147818D01*
X411912Y147750D01*
X411048Y147750D01*
X410186Y147818D01*
X409332Y147953D01*
X408492Y148155D01*
X407670Y148422D01*
X406871Y148753D01*
X406101Y149145D01*
X405364Y149597D01*
X404665Y150105D01*
X404007Y150666D01*
X403396Y151277D01*
X402835Y151935D01*
X402327Y152634D01*
X401875Y153371D01*
X401483Y154141D01*
X401152Y154940D01*
X400885Y155762D01*
X400683Y156602D01*
X400548Y157456D01*
X400480Y158318D01*
X400480Y159182D01*
X400548Y160044D01*
X400683Y160898D01*
X400885Y161738D01*
X401152Y162560D01*
X401483Y163359D01*
X401875Y164129D01*
X402327Y164866D01*
X402835Y165565D01*
X403396Y166223D01*
X404007Y166834D01*
X404665Y167395D01*
X405364Y167903D01*
X406101Y168355D01*
X406871Y168747D01*
X407670Y169078D01*
X408492Y169345D01*
X409332Y169547D01*
X410186Y169682D01*
X411048Y169750D01*
X411912Y169750D01*
X412774Y169682D01*
X413628Y169547D01*
X414468Y169345D01*
X415290Y169078D01*
X416089Y168747D01*
X416859Y168355D01*
X417596Y167903D01*
X418295Y167395D01*
X418953Y166834D01*
X419564Y166223D01*
X420125Y165565D01*
X420633Y164866D01*
X421085Y164129D01*
X421477Y163359D01*
X421808Y162560D01*
X422075Y161738D01*
X422277Y160898D01*
X422412Y160044D01*
X422480Y159182D01*
X422480Y158318D01*
X42951Y104900D02*
X42496Y104960D01*
X42053Y105079D01*
X41629Y105254D01*
X41231Y105484D01*
X40867Y105763D01*
X40543Y106087D01*
X40264Y106451D01*
X40034Y106849D01*
X39859Y107273D01*
X39740Y107716D01*
X39680Y108171D01*
X39680Y108629D01*
X39740Y109084D01*
X39859Y109527D01*
X40034Y109951D01*
X40264Y110349D01*
X40543Y110713D01*
X40867Y111037D01*
X41231Y111316D01*
X41629Y111546D01*
X42053Y111721D01*
X42496Y111840D01*
X42951Y111900D01*
X43409Y111900D01*
X43864Y111840D01*
X44307Y111721D01*
X44731Y111546D01*
X45129Y111316D01*
X45493Y111037D01*
X45817Y110713D01*
X46096Y110349D01*
X46326Y109951D01*
X46501Y109527D01*
X46620Y109084D01*
X46680Y108629D01*
X46680Y108171D01*
X46620Y107716D01*
X46501Y107273D01*
X46326Y106849D01*
X46096Y106451D01*
X45817Y106087D01*
X45493Y105763D01*
X45129Y105484D01*
X44731Y105254D01*
X44307Y105079D01*
X43864Y104960D01*
X43409Y104900D01*
X42951Y104900D01*
X42951Y65900D02*
X42496Y65960D01*
X42053Y66079D01*
X41629Y66254D01*
X41231Y66484D01*
X40867Y66763D01*
X40543Y67087D01*
X40264Y67451D01*
X40034Y67849D01*
X39859Y68273D01*
X39740Y68716D01*
X39680Y69171D01*
X39680Y69629D01*
X39740Y70084D01*
X39859Y70527D01*
X40034Y70951D01*
X40264Y71349D01*
X40543Y71713D01*
X40867Y72037D01*
X41231Y72316D01*
X41629Y72546D01*
X42053Y72721D01*
X42496Y72840D01*
X42951Y72900D01*
X43409Y72900D01*
X43864Y72840D01*
X44307Y72721D01*
X44731Y72546D01*
X45129Y72316D01*
X45493Y72037D01*
X45817Y71713D01*
X46096Y71349D01*
X46326Y70951D01*
X46501Y70527D01*
X46620Y70084D01*
X46680Y69629D01*
X46680Y69171D01*
X46620Y68716D01*
X46501Y68273D01*
X46326Y67849D01*
X46096Y67451D01*
X45817Y67087D01*
X45493Y66763D01*
X45129Y66484D01*
X44731Y66254D01*
X44307Y66079D01*
X43864Y65960D01*
X43409Y65900D01*
X42951Y65900D01*
M02*
