G04 EAGLE Gerber RS-274X export*
G75*
%MOMM*%
%FSLAX34Y34*%
%LPD*%
%INSilkscreen Top*%
%IPPOS*%
%AMOC8*
5,1,8,0,0,1.08239X$1,22.5*%
G01*
%ADD10C,0.127000*%
%ADD11C,0.101600*%
%ADD12C,0.304800*%
%ADD13R,0.190500X0.889000*%
%ADD14C,0.203200*%
%ADD15C,0.220000*%
%ADD16R,0.200000X1.000000*%
%ADD17C,0.254000*%

G36*
X250212Y116082D02*
X250212Y116082D01*
X250229Y116080D01*
X250332Y116102D01*
X250437Y116120D01*
X250452Y116128D01*
X250470Y116132D01*
X250560Y116186D01*
X250654Y116236D01*
X250666Y116249D01*
X250681Y116258D01*
X250750Y116338D01*
X250822Y116415D01*
X250829Y116432D01*
X250841Y116445D01*
X250880Y116543D01*
X250924Y116639D01*
X250926Y116657D01*
X250933Y116673D01*
X250951Y116840D01*
X250951Y124460D01*
X250949Y124477D01*
X250950Y124492D01*
X250950Y124495D01*
X250929Y124599D01*
X250912Y124703D01*
X250903Y124718D01*
X250900Y124736D01*
X250846Y124827D01*
X250796Y124920D01*
X250784Y124932D01*
X250775Y124948D01*
X250695Y125017D01*
X250618Y125090D01*
X250602Y125097D01*
X250588Y125109D01*
X250491Y125149D01*
X250395Y125193D01*
X250377Y125195D01*
X250361Y125202D01*
X250255Y125209D01*
X250151Y125220D01*
X250133Y125216D01*
X250115Y125218D01*
X250013Y125190D01*
X249940Y125174D01*
X249937Y125174D01*
X249910Y125168D01*
X249895Y125159D01*
X249878Y125154D01*
X249733Y125069D01*
X244653Y121259D01*
X244650Y121256D01*
X244647Y121254D01*
X244565Y121167D01*
X244483Y121082D01*
X244481Y121078D01*
X244478Y121075D01*
X244428Y120966D01*
X244378Y120859D01*
X244378Y120855D01*
X244376Y120851D01*
X244363Y120733D01*
X244350Y120615D01*
X244350Y120611D01*
X244350Y120606D01*
X244376Y120490D01*
X244401Y120374D01*
X244403Y120370D01*
X244404Y120366D01*
X244465Y120264D01*
X244526Y120162D01*
X244529Y120159D01*
X244531Y120156D01*
X244653Y120041D01*
X249733Y116231D01*
X249749Y116223D01*
X249762Y116211D01*
X249858Y116166D01*
X249951Y116117D01*
X249969Y116114D01*
X249985Y116107D01*
X250090Y116095D01*
X250194Y116079D01*
X250212Y116082D01*
G37*
G36*
X250212Y99572D02*
X250212Y99572D01*
X250229Y99570D01*
X250332Y99592D01*
X250437Y99610D01*
X250452Y99618D01*
X250470Y99622D01*
X250560Y99676D01*
X250654Y99726D01*
X250666Y99739D01*
X250681Y99748D01*
X250750Y99828D01*
X250822Y99905D01*
X250829Y99922D01*
X250841Y99935D01*
X250880Y100033D01*
X250924Y100129D01*
X250926Y100147D01*
X250933Y100163D01*
X250951Y100330D01*
X250951Y107950D01*
X250949Y107967D01*
X250950Y107982D01*
X250950Y107985D01*
X250929Y108089D01*
X250912Y108193D01*
X250903Y108208D01*
X250900Y108226D01*
X250846Y108317D01*
X250796Y108410D01*
X250784Y108422D01*
X250775Y108438D01*
X250695Y108507D01*
X250618Y108580D01*
X250602Y108587D01*
X250588Y108599D01*
X250491Y108639D01*
X250395Y108683D01*
X250377Y108685D01*
X250361Y108692D01*
X250255Y108699D01*
X250151Y108710D01*
X250133Y108706D01*
X250115Y108708D01*
X250013Y108680D01*
X249940Y108664D01*
X249937Y108664D01*
X249910Y108658D01*
X249895Y108649D01*
X249878Y108644D01*
X249733Y108559D01*
X244653Y104749D01*
X244650Y104746D01*
X244647Y104744D01*
X244565Y104657D01*
X244483Y104572D01*
X244481Y104568D01*
X244478Y104565D01*
X244428Y104456D01*
X244378Y104349D01*
X244378Y104345D01*
X244376Y104341D01*
X244363Y104223D01*
X244350Y104105D01*
X244350Y104101D01*
X244350Y104096D01*
X244376Y103980D01*
X244401Y103864D01*
X244403Y103860D01*
X244404Y103856D01*
X244465Y103754D01*
X244526Y103652D01*
X244529Y103649D01*
X244531Y103646D01*
X244653Y103531D01*
X249733Y99721D01*
X249749Y99713D01*
X249762Y99701D01*
X249858Y99656D01*
X249951Y99607D01*
X249969Y99604D01*
X249985Y99597D01*
X250090Y99585D01*
X250194Y99569D01*
X250212Y99572D01*
G37*
G36*
X250212Y83062D02*
X250212Y83062D01*
X250229Y83060D01*
X250332Y83082D01*
X250437Y83100D01*
X250452Y83108D01*
X250470Y83112D01*
X250560Y83166D01*
X250654Y83216D01*
X250666Y83229D01*
X250681Y83238D01*
X250750Y83318D01*
X250822Y83395D01*
X250829Y83412D01*
X250841Y83425D01*
X250880Y83523D01*
X250924Y83619D01*
X250926Y83637D01*
X250933Y83653D01*
X250951Y83820D01*
X250951Y91440D01*
X250949Y91457D01*
X250950Y91472D01*
X250950Y91475D01*
X250929Y91579D01*
X250912Y91683D01*
X250903Y91698D01*
X250900Y91716D01*
X250846Y91807D01*
X250796Y91900D01*
X250784Y91912D01*
X250775Y91928D01*
X250695Y91997D01*
X250618Y92070D01*
X250602Y92077D01*
X250588Y92089D01*
X250491Y92129D01*
X250395Y92173D01*
X250377Y92175D01*
X250361Y92182D01*
X250255Y92189D01*
X250151Y92200D01*
X250133Y92196D01*
X250115Y92198D01*
X250013Y92170D01*
X249940Y92154D01*
X249937Y92154D01*
X249910Y92148D01*
X249895Y92139D01*
X249878Y92134D01*
X249733Y92049D01*
X244653Y88239D01*
X244650Y88236D01*
X244647Y88234D01*
X244565Y88147D01*
X244483Y88062D01*
X244481Y88058D01*
X244478Y88055D01*
X244428Y87946D01*
X244378Y87839D01*
X244378Y87835D01*
X244376Y87831D01*
X244363Y87713D01*
X244350Y87595D01*
X244350Y87591D01*
X244350Y87586D01*
X244376Y87470D01*
X244401Y87354D01*
X244403Y87350D01*
X244404Y87346D01*
X244465Y87244D01*
X244526Y87142D01*
X244529Y87139D01*
X244531Y87136D01*
X244653Y87021D01*
X249733Y83211D01*
X249749Y83203D01*
X249762Y83191D01*
X249858Y83146D01*
X249951Y83097D01*
X249969Y83094D01*
X249985Y83087D01*
X250090Y83075D01*
X250194Y83059D01*
X250212Y83062D01*
G37*
G36*
X250212Y66552D02*
X250212Y66552D01*
X250229Y66550D01*
X250332Y66572D01*
X250437Y66590D01*
X250452Y66598D01*
X250470Y66602D01*
X250560Y66656D01*
X250654Y66706D01*
X250666Y66719D01*
X250681Y66728D01*
X250750Y66808D01*
X250822Y66885D01*
X250829Y66902D01*
X250841Y66915D01*
X250880Y67013D01*
X250924Y67109D01*
X250926Y67127D01*
X250933Y67143D01*
X250951Y67310D01*
X250951Y74930D01*
X250949Y74947D01*
X250950Y74962D01*
X250950Y74965D01*
X250929Y75069D01*
X250912Y75173D01*
X250903Y75188D01*
X250900Y75206D01*
X250846Y75297D01*
X250796Y75390D01*
X250784Y75402D01*
X250775Y75418D01*
X250695Y75487D01*
X250618Y75560D01*
X250602Y75567D01*
X250588Y75579D01*
X250491Y75619D01*
X250395Y75663D01*
X250377Y75665D01*
X250361Y75672D01*
X250255Y75679D01*
X250151Y75690D01*
X250133Y75686D01*
X250115Y75688D01*
X250013Y75660D01*
X249940Y75644D01*
X249937Y75644D01*
X249910Y75638D01*
X249895Y75629D01*
X249878Y75624D01*
X249733Y75539D01*
X244653Y71729D01*
X244650Y71726D01*
X244647Y71724D01*
X244565Y71637D01*
X244483Y71552D01*
X244481Y71548D01*
X244478Y71545D01*
X244428Y71436D01*
X244378Y71329D01*
X244378Y71325D01*
X244376Y71321D01*
X244363Y71203D01*
X244350Y71085D01*
X244350Y71081D01*
X244350Y71076D01*
X244376Y70960D01*
X244401Y70844D01*
X244403Y70840D01*
X244404Y70836D01*
X244465Y70734D01*
X244526Y70632D01*
X244529Y70629D01*
X244531Y70626D01*
X244653Y70511D01*
X249733Y66701D01*
X249749Y66693D01*
X249762Y66681D01*
X249858Y66636D01*
X249951Y66587D01*
X249969Y66584D01*
X249985Y66577D01*
X250090Y66565D01*
X250194Y66549D01*
X250212Y66552D01*
G37*
G36*
X94565Y42713D02*
X94565Y42713D01*
X94636Y42711D01*
X94706Y42730D01*
X94777Y42738D01*
X94832Y42763D01*
X94911Y42783D01*
X95014Y42844D01*
X95083Y42875D01*
X98083Y44875D01*
X98170Y44952D01*
X98260Y45025D01*
X98275Y45047D01*
X98295Y45065D01*
X98357Y45162D01*
X98424Y45257D01*
X98432Y45283D01*
X98447Y45305D01*
X98479Y45416D01*
X98517Y45526D01*
X98518Y45553D01*
X98525Y45578D01*
X98525Y45694D01*
X98531Y45810D01*
X98525Y45836D01*
X98525Y45863D01*
X98493Y45974D01*
X98467Y46087D01*
X98454Y46110D01*
X98446Y46136D01*
X98384Y46234D01*
X98328Y46335D01*
X98310Y46351D01*
X98295Y46376D01*
X98087Y46561D01*
X98083Y46565D01*
X95083Y48565D01*
X95019Y48596D01*
X94959Y48636D01*
X94891Y48657D01*
X94827Y48688D01*
X94756Y48700D01*
X94688Y48721D01*
X94617Y48723D01*
X94547Y48735D01*
X94475Y48727D01*
X94404Y48729D01*
X94335Y48711D01*
X94264Y48702D01*
X94198Y48675D01*
X94129Y48657D01*
X94068Y48620D01*
X94002Y48593D01*
X93946Y48548D01*
X93884Y48512D01*
X93835Y48460D01*
X93780Y48415D01*
X93739Y48357D01*
X93690Y48304D01*
X93657Y48241D01*
X93616Y48183D01*
X93593Y48115D01*
X93560Y48051D01*
X93550Y47992D01*
X93523Y47914D01*
X93517Y47795D01*
X93505Y47720D01*
X93505Y43720D01*
X93515Y43649D01*
X93515Y43577D01*
X93535Y43509D01*
X93545Y43439D01*
X93574Y43373D01*
X93594Y43304D01*
X93632Y43244D01*
X93661Y43179D01*
X93707Y43124D01*
X93745Y43064D01*
X93799Y43016D01*
X93845Y42962D01*
X93904Y42922D01*
X93958Y42875D01*
X94022Y42844D01*
X94081Y42805D01*
X94150Y42783D01*
X94214Y42752D01*
X94284Y42740D01*
X94352Y42719D01*
X94424Y42717D01*
X94495Y42705D01*
X94565Y42713D01*
G37*
D10*
X265600Y99695D02*
X265600Y108593D01*
X270049Y108593D01*
X271532Y107110D01*
X271532Y104144D01*
X270049Y102661D01*
X265600Y102661D01*
X268566Y102661D02*
X271532Y99695D01*
X280887Y99695D02*
X274955Y108593D01*
X280887Y108593D02*
X274955Y99695D01*
X268566Y116205D02*
X268566Y125103D01*
X265600Y125103D02*
X271532Y125103D01*
X274955Y125103D02*
X280887Y116205D01*
X274955Y116205D02*
X280887Y125103D01*
X270049Y92083D02*
X267083Y92083D01*
X265600Y90600D01*
X265600Y84668D01*
X267083Y83185D01*
X270049Y83185D01*
X271532Y84668D01*
X271532Y90600D01*
X270049Y92083D01*
X274955Y92083D02*
X274955Y83185D01*
X280887Y83185D02*
X274955Y92083D01*
X280887Y92083D02*
X280887Y83185D01*
X45046Y154313D02*
X42080Y151347D01*
X45046Y154313D02*
X45046Y145415D01*
X42080Y145415D02*
X48012Y145415D01*
X51435Y152830D02*
X52918Y154313D01*
X55884Y154313D01*
X57367Y152830D01*
X57367Y151347D01*
X55884Y149864D01*
X54401Y149864D01*
X55884Y149864D02*
X57367Y148381D01*
X57367Y146898D01*
X55884Y145415D01*
X52918Y145415D01*
X51435Y146898D01*
X68750Y151347D02*
X71716Y154313D01*
X71716Y145415D01*
X68750Y145415D02*
X74682Y145415D01*
X78105Y145415D02*
X84037Y145415D01*
X78105Y145415D02*
X84037Y151347D01*
X84037Y152830D01*
X82554Y154313D01*
X79588Y154313D01*
X78105Y152830D01*
X94150Y151347D02*
X97116Y154313D01*
X97116Y145415D01*
X94150Y145415D02*
X100082Y145415D01*
X103505Y151347D02*
X106471Y154313D01*
X106471Y145415D01*
X103505Y145415D02*
X109437Y145415D01*
X119550Y151347D02*
X122516Y154313D01*
X122516Y145415D01*
X119550Y145415D02*
X125482Y145415D01*
X128905Y146898D02*
X128905Y152830D01*
X130388Y154313D01*
X133354Y154313D01*
X134837Y152830D01*
X134837Y146898D01*
X133354Y145415D01*
X130388Y145415D01*
X128905Y146898D01*
X134837Y152830D01*
X149627Y146898D02*
X151110Y145415D01*
X154076Y145415D01*
X155559Y146898D01*
X155559Y152830D01*
X154076Y154313D01*
X151110Y154313D01*
X149627Y152830D01*
X149627Y151347D01*
X151110Y149864D01*
X155559Y149864D01*
X175027Y152830D02*
X176510Y154313D01*
X179476Y154313D01*
X180959Y152830D01*
X180959Y151347D01*
X179476Y149864D01*
X180959Y148381D01*
X180959Y146898D01*
X179476Y145415D01*
X176510Y145415D01*
X175027Y146898D01*
X175027Y148381D01*
X176510Y149864D01*
X175027Y151347D01*
X175027Y152830D01*
X176510Y149864D02*
X179476Y149864D01*
X200427Y154313D02*
X206359Y154313D01*
X206359Y152830D01*
X200427Y146898D01*
X200427Y145415D01*
X228793Y152830D02*
X231759Y154313D01*
X228793Y152830D02*
X225827Y149864D01*
X225827Y146898D01*
X227310Y145415D01*
X230276Y145415D01*
X231759Y146898D01*
X231759Y148381D01*
X230276Y149864D01*
X225827Y149864D01*
X251227Y154313D02*
X257159Y154313D01*
X251227Y154313D02*
X251227Y149864D01*
X254193Y151347D01*
X255676Y151347D01*
X257159Y149864D01*
X257159Y146898D01*
X255676Y145415D01*
X252710Y145415D01*
X251227Y146898D01*
X279806Y145415D02*
X279806Y154313D01*
X275357Y149864D01*
X281289Y149864D01*
X300757Y152830D02*
X302240Y154313D01*
X305206Y154313D01*
X306689Y152830D01*
X306689Y151347D01*
X305206Y149864D01*
X303723Y149864D01*
X305206Y149864D02*
X306689Y148381D01*
X306689Y146898D01*
X305206Y145415D01*
X302240Y145415D01*
X300757Y146898D01*
X327427Y145415D02*
X333359Y145415D01*
X327427Y145415D02*
X333359Y151347D01*
X333359Y152830D01*
X331876Y154313D01*
X328910Y154313D01*
X327427Y152830D01*
X352827Y151347D02*
X355793Y154313D01*
X355793Y145415D01*
X352827Y145415D02*
X358759Y145415D01*
X378227Y146898D02*
X378227Y152830D01*
X379710Y154313D01*
X382676Y154313D01*
X384159Y152830D01*
X384159Y146898D01*
X382676Y145415D01*
X379710Y145415D01*
X378227Y146898D01*
X384159Y152830D01*
D11*
X373841Y31502D02*
X375027Y30316D01*
X373841Y31502D02*
X371468Y31502D01*
X370282Y30316D01*
X370282Y29129D01*
X371468Y27943D01*
X373841Y27943D01*
X375027Y26757D01*
X375027Y25570D01*
X373841Y24384D01*
X371468Y24384D01*
X370282Y25570D01*
X381325Y31502D02*
X382511Y30316D01*
X381325Y31502D02*
X378952Y31502D01*
X377766Y30316D01*
X377766Y25570D01*
X378952Y24384D01*
X381325Y24384D01*
X382511Y25570D01*
X385250Y24384D02*
X385250Y31502D01*
X385250Y24384D02*
X389995Y24384D01*
X350897Y30316D02*
X349711Y31502D01*
X347338Y31502D01*
X346152Y30316D01*
X346152Y29129D01*
X347338Y27943D01*
X349711Y27943D01*
X350897Y26757D01*
X350897Y25570D01*
X349711Y24384D01*
X347338Y24384D01*
X346152Y25570D01*
X353636Y24384D02*
X353636Y31502D01*
X353636Y24384D02*
X357195Y24384D01*
X358381Y25570D01*
X358381Y30316D01*
X357195Y31502D01*
X353636Y31502D01*
X361120Y29129D02*
X361120Y24384D01*
X361120Y29129D02*
X363493Y31502D01*
X365865Y29129D01*
X365865Y24384D01*
X365865Y27943D02*
X361120Y27943D01*
D10*
X322750Y29427D02*
X322750Y23495D01*
X322750Y29427D02*
X325716Y32393D01*
X328682Y29427D01*
X328682Y23495D01*
X328682Y27944D02*
X322750Y27944D01*
X332105Y30910D02*
X333588Y32393D01*
X336554Y32393D01*
X338037Y30910D01*
X338037Y29427D01*
X336554Y27944D01*
X335071Y27944D01*
X336554Y27944D02*
X338037Y26461D01*
X338037Y24978D01*
X336554Y23495D01*
X333588Y23495D01*
X332105Y24978D01*
X297350Y23495D02*
X297350Y29427D01*
X300316Y32393D01*
X303282Y29427D01*
X303282Y23495D01*
X303282Y27944D02*
X297350Y27944D01*
X306705Y23495D02*
X312637Y23495D01*
X306705Y23495D02*
X312637Y29427D01*
X312637Y30910D01*
X311154Y32393D01*
X308188Y32393D01*
X306705Y30910D01*
X271950Y29427D02*
X271950Y23495D01*
X271950Y29427D02*
X274916Y32393D01*
X277882Y29427D01*
X277882Y23495D01*
X277882Y27944D02*
X271950Y27944D01*
X281305Y29427D02*
X284271Y32393D01*
X284271Y23495D01*
X281305Y23495D02*
X287237Y23495D01*
X246550Y23495D02*
X246550Y29427D01*
X249516Y32393D01*
X252482Y29427D01*
X252482Y23495D01*
X252482Y27944D02*
X246550Y27944D01*
X255905Y24978D02*
X255905Y30910D01*
X257388Y32393D01*
X260354Y32393D01*
X261837Y30910D01*
X261837Y24978D01*
X260354Y23495D01*
X257388Y23495D01*
X255905Y24978D01*
X261837Y30910D01*
X236855Y24903D02*
X230923Y24903D01*
X227957Y27869D01*
X230923Y30835D01*
X236855Y30835D01*
X232406Y30835D02*
X232406Y24903D01*
X230923Y34259D02*
X236855Y34259D01*
X233889Y34259D02*
X230923Y37224D01*
X230923Y38707D01*
X236855Y43538D02*
X236855Y46503D01*
X236855Y43538D02*
X235372Y42055D01*
X232406Y42055D01*
X230923Y43538D01*
X230923Y46503D01*
X232406Y47986D01*
X233889Y47986D01*
X233889Y42055D01*
X236855Y52893D02*
X229440Y52893D01*
X227957Y54376D01*
X232406Y54376D02*
X232406Y51410D01*
X192631Y32393D02*
X192631Y26461D01*
X195597Y23495D01*
X198563Y26461D01*
X198563Y32393D01*
X201987Y29427D02*
X203470Y29427D01*
X203470Y23495D01*
X204952Y23495D02*
X201987Y23495D01*
X203470Y32393D02*
X203470Y33876D01*
X208223Y29427D02*
X208223Y23495D01*
X208223Y29427D02*
X212672Y29427D01*
X214155Y27944D01*
X214155Y23495D01*
X158904Y30910D02*
X157421Y32393D01*
X154455Y32393D01*
X152972Y30910D01*
X152972Y24978D01*
X154455Y23495D01*
X157421Y23495D01*
X158904Y24978D01*
X158904Y27944D01*
X155938Y27944D01*
X162327Y23495D02*
X162327Y32393D01*
X168259Y23495D01*
X168259Y32393D01*
X171683Y32393D02*
X171683Y23495D01*
X176131Y23495D01*
X177614Y24978D01*
X177614Y30910D01*
X176131Y32393D01*
X171683Y32393D01*
X125482Y32393D02*
X119550Y32393D01*
X119550Y27944D01*
X122516Y29427D01*
X123999Y29427D01*
X125482Y27944D01*
X125482Y24978D01*
X123999Y23495D01*
X121033Y23495D01*
X119550Y24978D01*
X128905Y26461D02*
X128905Y32393D01*
X128905Y26461D02*
X131871Y23495D01*
X134837Y26461D01*
X134837Y32393D01*
X36132Y32393D02*
X36132Y24978D01*
X37615Y23495D01*
X40581Y23495D01*
X42064Y24978D01*
X42064Y32393D01*
X49936Y32393D02*
X51419Y30910D01*
X49936Y32393D02*
X46970Y32393D01*
X45487Y30910D01*
X45487Y29427D01*
X46970Y27944D01*
X49936Y27944D01*
X51419Y26461D01*
X51419Y24978D01*
X49936Y23495D01*
X46970Y23495D01*
X45487Y24978D01*
X54843Y23495D02*
X54843Y32393D01*
X59291Y32393D01*
X60774Y30910D01*
X60774Y29427D01*
X59291Y27944D01*
X60774Y26461D01*
X60774Y24978D01*
X59291Y23495D01*
X54843Y23495D01*
X54843Y27944D02*
X59291Y27944D01*
X92880Y30910D02*
X94363Y32393D01*
X97329Y32393D01*
X98812Y30910D01*
X98812Y29427D01*
X97329Y27944D01*
X95846Y27944D01*
X97329Y27944D02*
X98812Y26461D01*
X98812Y24978D01*
X97329Y23495D01*
X94363Y23495D01*
X92880Y24978D01*
X102235Y26461D02*
X102235Y32393D01*
X102235Y26461D02*
X105201Y23495D01*
X108167Y26461D01*
X108167Y32393D01*
X65631Y32393D02*
X65631Y23495D01*
X65631Y32393D02*
X70080Y32393D01*
X71563Y30910D01*
X71563Y27944D01*
X70080Y26461D01*
X65631Y26461D01*
X68597Y26461D02*
X71563Y23495D01*
X74987Y23495D02*
X79435Y23495D01*
X80918Y24978D01*
X79435Y26461D01*
X76470Y26461D01*
X74987Y27944D01*
X76470Y29427D01*
X80918Y29427D01*
X85825Y30910D02*
X85825Y24978D01*
X87308Y23495D01*
X87308Y29427D02*
X84342Y29427D01*
X203295Y132715D02*
X203295Y138647D01*
X206261Y141613D01*
X209226Y138647D01*
X209226Y132715D01*
X209226Y137164D02*
X203295Y137164D01*
X218582Y141613D02*
X218582Y132715D01*
X214133Y132715D01*
X212650Y134198D01*
X212650Y137164D01*
X214133Y138647D01*
X218582Y138647D01*
X223488Y138647D02*
X226454Y138647D01*
X227937Y137164D01*
X227937Y132715D01*
X223488Y132715D01*
X222005Y134198D01*
X223488Y135681D01*
X227937Y135681D01*
X232843Y132715D02*
X232843Y140130D01*
X234326Y141613D01*
X234326Y137164D02*
X231360Y137164D01*
X237597Y138647D02*
X237597Y132715D01*
X237597Y135681D02*
X240563Y138647D01*
X242046Y138647D01*
X245393Y138647D02*
X245393Y134198D01*
X246876Y132715D01*
X251325Y132715D01*
X251325Y138647D01*
X254748Y138647D02*
X256231Y138647D01*
X256231Y132715D01*
X254748Y132715D02*
X257714Y132715D01*
X256231Y141613D02*
X256231Y143096D01*
X262468Y140130D02*
X262468Y134198D01*
X263951Y132715D01*
X263951Y138647D02*
X260985Y138647D01*
X281026Y141613D02*
X282509Y140130D01*
X281026Y141613D02*
X278060Y141613D01*
X276577Y140130D01*
X276577Y134198D01*
X278060Y132715D01*
X281026Y132715D01*
X282509Y134198D01*
X285932Y141613D02*
X287415Y141613D01*
X287415Y132715D01*
X285932Y132715D02*
X288898Y132715D01*
X293652Y132715D02*
X296618Y132715D01*
X298101Y134198D01*
X298101Y137164D01*
X296618Y138647D01*
X293652Y138647D01*
X292169Y137164D01*
X292169Y134198D01*
X293652Y132715D01*
X303007Y138647D02*
X307456Y138647D01*
X303007Y138647D02*
X301524Y137164D01*
X301524Y134198D01*
X303007Y132715D01*
X307456Y132715D01*
X310879Y132715D02*
X310879Y141613D01*
X310879Y135681D02*
X315328Y132715D01*
X310879Y135681D02*
X315328Y138647D01*
X379087Y76835D02*
X387985Y76835D01*
X379087Y76835D02*
X379087Y81284D01*
X380570Y82767D01*
X383536Y82767D01*
X385019Y81284D01*
X385019Y76835D01*
X385019Y79801D02*
X387985Y82767D01*
X379087Y90639D02*
X380570Y92122D01*
X379087Y90639D02*
X379087Y87673D01*
X380570Y86190D01*
X382053Y86190D01*
X383536Y87673D01*
X383536Y90639D01*
X385019Y92122D01*
X386502Y92122D01*
X387985Y90639D01*
X387985Y87673D01*
X386502Y86190D01*
X387985Y98511D02*
X379087Y98511D01*
X379087Y95545D02*
X379087Y101477D01*
X397680Y32393D02*
X403612Y32393D01*
X397680Y32393D02*
X397680Y27944D01*
X400646Y29427D01*
X402129Y29427D01*
X403612Y27944D01*
X403612Y24978D01*
X402129Y23495D01*
X399163Y23495D01*
X397680Y24978D01*
X407035Y26461D02*
X407035Y32393D01*
X407035Y26461D02*
X410001Y23495D01*
X412967Y26461D01*
X412967Y32393D01*
X422851Y32393D02*
X424334Y30910D01*
X422851Y32393D02*
X419885Y32393D01*
X418402Y30910D01*
X418402Y24978D01*
X419885Y23495D01*
X422851Y23495D01*
X424334Y24978D01*
X424334Y27944D01*
X421368Y27944D01*
X427757Y23495D02*
X427757Y32393D01*
X433689Y23495D01*
X433689Y32393D01*
X437113Y32393D02*
X437113Y23495D01*
X441561Y23495D01*
X443044Y24978D01*
X443044Y30910D01*
X441561Y32393D01*
X437113Y32393D01*
D12*
X181610Y50800D02*
X171450Y50800D01*
D13*
X245293Y87630D03*
D12*
X291484Y54392D02*
X291484Y44232D01*
D13*
X245293Y71120D03*
D14*
X268986Y65786D02*
X268986Y76463D01*
X268986Y65786D02*
X276104Y65786D01*
X143510Y48260D02*
X143510Y38100D01*
D12*
X204470Y74930D02*
X204470Y85090D01*
X90170Y71120D02*
X80010Y71120D01*
D15*
X322038Y124080D02*
X322038Y140080D01*
X354038Y140080D02*
X354038Y124080D01*
D12*
X369108Y112440D02*
X376292Y119624D01*
X255270Y46990D02*
X255270Y36830D01*
D14*
X425464Y68916D02*
X425464Y110916D01*
X394956Y110916D02*
X394956Y68916D01*
D12*
X403860Y119380D02*
X403860Y129540D01*
X392430Y58420D02*
X382270Y58420D01*
D14*
X105250Y38720D02*
X87790Y38720D01*
X87790Y52720D02*
X105250Y52720D01*
X99520Y45720D02*
X93520Y41720D01*
X93520Y49720D01*
X99520Y45720D01*
D16*
X100520Y45720D03*
D14*
X195550Y91490D02*
X223550Y91490D01*
X223550Y129490D02*
X195550Y129490D01*
X199010Y36840D02*
X215010Y36840D01*
X215010Y69840D02*
X199010Y69840D01*
X196510Y57340D02*
X196510Y49340D01*
D17*
X361313Y82969D02*
X361313Y87211D01*
X332321Y53977D02*
X328079Y53977D01*
X299087Y82969D02*
X299087Y87211D01*
X328079Y116203D02*
X332321Y116203D01*
X350620Y85090D02*
X350622Y85167D01*
X350628Y85244D01*
X350638Y85321D01*
X350652Y85397D01*
X350669Y85472D01*
X350691Y85546D01*
X350716Y85619D01*
X350746Y85691D01*
X350778Y85761D01*
X350815Y85829D01*
X350854Y85895D01*
X350897Y85959D01*
X350944Y86021D01*
X350993Y86080D01*
X351046Y86137D01*
X351101Y86191D01*
X351159Y86242D01*
X351220Y86290D01*
X351283Y86335D01*
X351348Y86376D01*
X351415Y86414D01*
X351484Y86449D01*
X351555Y86479D01*
X351627Y86507D01*
X351701Y86530D01*
X351775Y86550D01*
X351851Y86566D01*
X351927Y86578D01*
X352004Y86586D01*
X352081Y86590D01*
X352159Y86590D01*
X352236Y86586D01*
X352313Y86578D01*
X352389Y86566D01*
X352465Y86550D01*
X352539Y86530D01*
X352613Y86507D01*
X352685Y86479D01*
X352756Y86449D01*
X352825Y86414D01*
X352892Y86376D01*
X352957Y86335D01*
X353020Y86290D01*
X353081Y86242D01*
X353139Y86191D01*
X353194Y86137D01*
X353247Y86080D01*
X353296Y86021D01*
X353343Y85959D01*
X353386Y85895D01*
X353425Y85829D01*
X353462Y85761D01*
X353494Y85691D01*
X353524Y85619D01*
X353549Y85546D01*
X353571Y85472D01*
X353588Y85397D01*
X353602Y85321D01*
X353612Y85244D01*
X353618Y85167D01*
X353620Y85090D01*
X353618Y85013D01*
X353612Y84936D01*
X353602Y84859D01*
X353588Y84783D01*
X353571Y84708D01*
X353549Y84634D01*
X353524Y84561D01*
X353494Y84489D01*
X353462Y84419D01*
X353425Y84351D01*
X353386Y84285D01*
X353343Y84221D01*
X353296Y84159D01*
X353247Y84100D01*
X353194Y84043D01*
X353139Y83989D01*
X353081Y83938D01*
X353020Y83890D01*
X352957Y83845D01*
X352892Y83804D01*
X352825Y83766D01*
X352756Y83731D01*
X352685Y83701D01*
X352613Y83673D01*
X352539Y83650D01*
X352465Y83630D01*
X352389Y83614D01*
X352313Y83602D01*
X352236Y83594D01*
X352159Y83590D01*
X352081Y83590D01*
X352004Y83594D01*
X351927Y83602D01*
X351851Y83614D01*
X351775Y83630D01*
X351701Y83650D01*
X351627Y83673D01*
X351555Y83701D01*
X351484Y83731D01*
X351415Y83766D01*
X351348Y83804D01*
X351283Y83845D01*
X351220Y83890D01*
X351159Y83938D01*
X351101Y83989D01*
X351046Y84043D01*
X350993Y84100D01*
X350944Y84159D01*
X350897Y84221D01*
X350854Y84285D01*
X350815Y84351D01*
X350778Y84419D01*
X350746Y84489D01*
X350716Y84561D01*
X350691Y84634D01*
X350669Y84708D01*
X350652Y84783D01*
X350638Y84859D01*
X350628Y84936D01*
X350622Y85013D01*
X350620Y85090D01*
D14*
X129220Y94300D02*
X125720Y94300D01*
X129220Y94300D02*
X129220Y97800D01*
X92720Y94300D02*
X89220Y94300D01*
X89220Y97800D01*
X129220Y130800D02*
X129220Y134300D01*
X125720Y134300D01*
X92720Y134300D02*
X89220Y130800D01*
X77470Y127000D02*
X77472Y127071D01*
X77478Y127142D01*
X77488Y127213D01*
X77502Y127283D01*
X77520Y127352D01*
X77541Y127419D01*
X77567Y127486D01*
X77596Y127551D01*
X77628Y127614D01*
X77665Y127676D01*
X77704Y127735D01*
X77747Y127792D01*
X77793Y127846D01*
X77842Y127898D01*
X77894Y127947D01*
X77948Y127993D01*
X78005Y128036D01*
X78064Y128075D01*
X78126Y128112D01*
X78189Y128144D01*
X78254Y128173D01*
X78321Y128199D01*
X78388Y128220D01*
X78457Y128238D01*
X78527Y128252D01*
X78598Y128262D01*
X78669Y128268D01*
X78740Y128270D01*
X78811Y128268D01*
X78882Y128262D01*
X78953Y128252D01*
X79023Y128238D01*
X79092Y128220D01*
X79159Y128199D01*
X79226Y128173D01*
X79291Y128144D01*
X79354Y128112D01*
X79416Y128075D01*
X79475Y128036D01*
X79532Y127993D01*
X79586Y127947D01*
X79638Y127898D01*
X79687Y127846D01*
X79733Y127792D01*
X79776Y127735D01*
X79815Y127676D01*
X79852Y127614D01*
X79884Y127551D01*
X79913Y127486D01*
X79939Y127419D01*
X79960Y127352D01*
X79978Y127283D01*
X79992Y127213D01*
X80002Y127142D01*
X80008Y127071D01*
X80010Y127000D01*
X80008Y126929D01*
X80002Y126858D01*
X79992Y126787D01*
X79978Y126717D01*
X79960Y126648D01*
X79939Y126581D01*
X79913Y126514D01*
X79884Y126449D01*
X79852Y126386D01*
X79815Y126324D01*
X79776Y126265D01*
X79733Y126208D01*
X79687Y126154D01*
X79638Y126102D01*
X79586Y126053D01*
X79532Y126007D01*
X79475Y125964D01*
X79416Y125925D01*
X79354Y125888D01*
X79291Y125856D01*
X79226Y125827D01*
X79159Y125801D01*
X79092Y125780D01*
X79023Y125762D01*
X78953Y125748D01*
X78882Y125738D01*
X78811Y125732D01*
X78740Y125730D01*
X78669Y125732D01*
X78598Y125738D01*
X78527Y125748D01*
X78457Y125762D01*
X78388Y125780D01*
X78321Y125801D01*
X78254Y125827D01*
X78189Y125856D01*
X78126Y125888D01*
X78064Y125925D01*
X78005Y125964D01*
X77948Y126007D01*
X77894Y126053D01*
X77842Y126102D01*
X77793Y126154D01*
X77747Y126208D01*
X77704Y126265D01*
X77665Y126324D01*
X77628Y126386D01*
X77596Y126449D01*
X77567Y126514D01*
X77541Y126581D01*
X77520Y126648D01*
X77502Y126717D01*
X77488Y126787D01*
X77478Y126858D01*
X77472Y126929D01*
X77470Y127000D01*
D10*
X54180Y113900D02*
X54180Y105900D01*
X54180Y71900D02*
X54180Y63900D01*
X9180Y126900D02*
X180Y126900D01*
X180Y50900D01*
X9180Y50900D01*
D12*
X154940Y113030D02*
X154940Y123190D01*
X153670Y80010D02*
X143510Y80010D01*
D13*
X245293Y104140D03*
X245293Y120650D03*
D14*
X124840Y87620D02*
X108840Y87620D01*
X108840Y54620D02*
X124840Y54620D01*
X127340Y67120D02*
X127340Y75120D01*
D12*
X161200Y86360D02*
X161203Y86580D01*
X161211Y86801D01*
X161224Y87021D01*
X161243Y87240D01*
X161268Y87459D01*
X161297Y87678D01*
X161332Y87895D01*
X161373Y88112D01*
X161418Y88328D01*
X161469Y88542D01*
X161525Y88755D01*
X161587Y88967D01*
X161653Y89177D01*
X161725Y89385D01*
X161802Y89592D01*
X161884Y89796D01*
X161970Y89999D01*
X162062Y90199D01*
X162159Y90398D01*
X162260Y90593D01*
X162367Y90786D01*
X162478Y90977D01*
X162593Y91164D01*
X162713Y91349D01*
X162838Y91531D01*
X162967Y91709D01*
X163101Y91885D01*
X163238Y92057D01*
X163380Y92225D01*
X163526Y92391D01*
X163676Y92552D01*
X163830Y92710D01*
X163988Y92864D01*
X164149Y93014D01*
X164315Y93160D01*
X164483Y93302D01*
X164655Y93439D01*
X164831Y93573D01*
X165009Y93702D01*
X165191Y93827D01*
X165376Y93947D01*
X165563Y94062D01*
X165754Y94173D01*
X165947Y94280D01*
X166142Y94381D01*
X166341Y94478D01*
X166541Y94570D01*
X166744Y94656D01*
X166948Y94738D01*
X167155Y94815D01*
X167363Y94887D01*
X167573Y94953D01*
X167785Y95015D01*
X167998Y95071D01*
X168212Y95122D01*
X168428Y95167D01*
X168645Y95208D01*
X168862Y95243D01*
X169081Y95272D01*
X169300Y95297D01*
X169519Y95316D01*
X169739Y95329D01*
X169960Y95337D01*
X170180Y95340D01*
X170400Y95337D01*
X170621Y95329D01*
X170841Y95316D01*
X171060Y95297D01*
X171279Y95272D01*
X171498Y95243D01*
X171715Y95208D01*
X171932Y95167D01*
X172148Y95122D01*
X172362Y95071D01*
X172575Y95015D01*
X172787Y94953D01*
X172997Y94887D01*
X173205Y94815D01*
X173412Y94738D01*
X173616Y94656D01*
X173819Y94570D01*
X174019Y94478D01*
X174218Y94381D01*
X174413Y94280D01*
X174606Y94173D01*
X174797Y94062D01*
X174984Y93947D01*
X175169Y93827D01*
X175351Y93702D01*
X175529Y93573D01*
X175705Y93439D01*
X175877Y93302D01*
X176045Y93160D01*
X176211Y93014D01*
X176372Y92864D01*
X176530Y92710D01*
X176684Y92552D01*
X176834Y92391D01*
X176980Y92225D01*
X177122Y92057D01*
X177259Y91885D01*
X177393Y91709D01*
X177522Y91531D01*
X177647Y91349D01*
X177767Y91164D01*
X177882Y90977D01*
X177993Y90786D01*
X178100Y90593D01*
X178201Y90398D01*
X178298Y90199D01*
X178390Y89999D01*
X178476Y89796D01*
X178558Y89592D01*
X178635Y89385D01*
X178707Y89177D01*
X178773Y88967D01*
X178835Y88755D01*
X178891Y88542D01*
X178942Y88328D01*
X178987Y88112D01*
X179028Y87895D01*
X179063Y87678D01*
X179092Y87459D01*
X179117Y87240D01*
X179136Y87021D01*
X179149Y86801D01*
X179157Y86580D01*
X179160Y86360D01*
X179157Y86140D01*
X179149Y85919D01*
X179136Y85699D01*
X179117Y85480D01*
X179092Y85261D01*
X179063Y85042D01*
X179028Y84825D01*
X178987Y84608D01*
X178942Y84392D01*
X178891Y84178D01*
X178835Y83965D01*
X178773Y83753D01*
X178707Y83543D01*
X178635Y83335D01*
X178558Y83128D01*
X178476Y82924D01*
X178390Y82721D01*
X178298Y82521D01*
X178201Y82322D01*
X178100Y82127D01*
X177993Y81934D01*
X177882Y81743D01*
X177767Y81556D01*
X177647Y81371D01*
X177522Y81189D01*
X177393Y81011D01*
X177259Y80835D01*
X177122Y80663D01*
X176980Y80495D01*
X176834Y80329D01*
X176684Y80168D01*
X176530Y80010D01*
X176372Y79856D01*
X176211Y79706D01*
X176045Y79560D01*
X175877Y79418D01*
X175705Y79281D01*
X175529Y79147D01*
X175351Y79018D01*
X175169Y78893D01*
X174984Y78773D01*
X174797Y78658D01*
X174606Y78547D01*
X174413Y78440D01*
X174218Y78339D01*
X174019Y78242D01*
X173819Y78150D01*
X173616Y78064D01*
X173412Y77982D01*
X173205Y77905D01*
X172997Y77833D01*
X172787Y77767D01*
X172575Y77705D01*
X172362Y77649D01*
X172148Y77598D01*
X171932Y77553D01*
X171715Y77512D01*
X171498Y77477D01*
X171279Y77448D01*
X171060Y77423D01*
X170841Y77404D01*
X170621Y77391D01*
X170400Y77383D01*
X170180Y77380D01*
X169960Y77383D01*
X169739Y77391D01*
X169519Y77404D01*
X169300Y77423D01*
X169081Y77448D01*
X168862Y77477D01*
X168645Y77512D01*
X168428Y77553D01*
X168212Y77598D01*
X167998Y77649D01*
X167785Y77705D01*
X167573Y77767D01*
X167363Y77833D01*
X167155Y77905D01*
X166948Y77982D01*
X166744Y78064D01*
X166541Y78150D01*
X166341Y78242D01*
X166142Y78339D01*
X165947Y78440D01*
X165754Y78547D01*
X165563Y78658D01*
X165376Y78773D01*
X165191Y78893D01*
X165009Y79018D01*
X164831Y79147D01*
X164655Y79281D01*
X164483Y79418D01*
X164315Y79560D01*
X164149Y79706D01*
X163988Y79856D01*
X163830Y80010D01*
X163676Y80168D01*
X163526Y80329D01*
X163380Y80495D01*
X163238Y80663D01*
X163101Y80835D01*
X162967Y81011D01*
X162838Y81189D01*
X162713Y81371D01*
X162593Y81556D01*
X162478Y81743D01*
X162367Y81934D01*
X162260Y82127D01*
X162159Y82322D01*
X162062Y82521D01*
X161970Y82721D01*
X161884Y82924D01*
X161802Y83128D01*
X161725Y83335D01*
X161653Y83543D01*
X161587Y83753D01*
X161525Y83965D01*
X161469Y84178D01*
X161418Y84392D01*
X161373Y84608D01*
X161332Y84825D01*
X161297Y85042D01*
X161268Y85261D01*
X161243Y85480D01*
X161224Y85699D01*
X161211Y85919D01*
X161203Y86140D01*
X161200Y86360D01*
D14*
X167640Y82296D02*
X167640Y90431D01*
X171707Y90431D01*
X173063Y89075D01*
X173063Y87719D01*
X171707Y86363D01*
X173063Y85008D01*
X173063Y83652D01*
X171707Y82296D01*
X167640Y82296D01*
X167640Y86363D02*
X171707Y86363D01*
D12*
X518160Y22860D02*
X528320Y22860D01*
X500380Y22860D02*
X490220Y22860D01*
X464820Y20320D02*
X464820Y10160D01*
M02*
