G04 EAGLE Gerber RS-274X export*
G75*
%MOMM*%
%FSLAX34Y34*%
%LPD*%
%INSoldermask Bottom*%
%IPPOS*%
%AMOC8*
5,1,8,0,0,1.08239X$1,22.5*%
G01*
%ADD10C,2.301600*%
%ADD11C,1.778000*%
%ADD12R,4.200000X1.800000*%
%ADD13C,1.879600*%
%ADD14C,0.801600*%
%ADD15R,2.601600X2.601600*%
%ADD16C,1.409600*%
%ADD17C,6.451600*%
%ADD18R,3.301600X3.301600*%
%ADD19C,12.564231*%


D10*
X19050Y158750D03*
X19050Y19050D03*
X411480Y158750D03*
D11*
X254000Y12700D03*
X279400Y12700D03*
X304800Y12700D03*
X330200Y12700D03*
X355600Y12700D03*
X381000Y12700D03*
X406400Y12700D03*
X431800Y12700D03*
X203200Y165100D03*
X228600Y165100D03*
X254000Y165100D03*
X279400Y165100D03*
X304800Y165100D03*
X330200Y165100D03*
X355600Y165100D03*
X381000Y165100D03*
D12*
X118110Y58420D03*
D11*
X177800Y165100D03*
X152400Y165100D03*
X127000Y165100D03*
X101600Y165100D03*
X76200Y165100D03*
X50800Y165100D03*
D13*
X50800Y12700D03*
X76200Y12700D03*
X101600Y12700D03*
X127000Y12700D03*
X152400Y12700D03*
X177800Y12700D03*
X203200Y12700D03*
X228600Y12700D03*
D14*
X43180Y108400D03*
X43180Y69400D03*
D15*
X24180Y52900D03*
X24180Y124900D03*
D16*
X52180Y121900D02*
X52180Y134980D01*
X52180Y55900D02*
X52180Y42820D01*
D17*
X486410Y92710D03*
D18*
X486410Y10456D03*
X486410Y174964D03*
D19*
X486410Y92710D03*
M02*
