M48
;GenerationSoftware,Autodesk,EAGLE,9.6.2*%
;CreationDate,2020-09-15T01:54:35Z*%
FMAT,2
ICI,OFF
METRIC,TZ,000.000
T9C0.350
T8C0.394
T7C0.483
T6C0.500
T5C0.700
T4C0.800
T3C0.900
T2C1.000
T1C2.200
%
G90
M71
T1
X41148Y15875
X1905Y15875
X1905Y1905
T2
X35560Y16510
X22860Y1270
X20320Y1270
X17780Y1270
X15240Y1270
X12700Y1270
X10160Y1270
X7620Y1270
X5080Y1270
X5080Y16510
X7620Y16510
X10160Y16510
X12700Y16510
X15240Y16510
X25400Y1270
X38100Y16510
X17780Y16510
X33020Y16510
X30480Y16510
X27940Y16510
X25400Y16510
X22860Y16510
X20320Y16510
X43180Y1270
X40640Y1270
X38100Y1270
X35560Y1270
X33020Y1270
X30480Y1270
X27940Y1270
T3
X2418Y5290
X2418Y12490
T4
X5218Y5590
X5218Y12190
T5
X4318Y6940
X4318Y10840
T6
X6858Y8636
X7366Y11811
X33020Y8509
X8763Y13716
X8382Y9398
X13335Y9271
T7
X29210Y6985
X6731Y6477
X6223Y10922
X14224Y13335
X24130Y5715
X17628Y12929
X14605Y5715
X43561Y9906
X18161Y7620
X39243Y13970
X31242Y13462
X47752Y4064
X9271Y4318
X20701Y5461
X25781Y5715
X42189Y3353
X27813Y10414
X16383Y7239
X27686Y11557
X28321Y9398
X40361Y4267
X11557Y3175
X46101Y4318
X30505Y14427
X18669Y9398
X10922Y11176
X51689Y4572
T8
X35941Y13970
X44196Y12700
X37084Y8636
X37236Y6502
X37084Y9652
X36322Y10414
X37033Y5512
X36424Y7239
T9
X39116Y9144
M30